<?xml version="1.0" encoding="UTF-8"?><svg id="katman_2" xmlns="http://www.w3.org/2000/svg" viewBox="0 0 469.63 216"><g id="katman_1"><path d="m128.63,129.9v23.34H.97l-.97-17.63L76.35,15.98h23.47l-25.41,43.53-43.89,70.4h98.12ZM106.51,15.98v177.02h-29.3V15.98h29.3Z" style="fill:#432774;"/><path d="m469.63,129.9v23.34h-127.66l-.97-17.63L417.35,15.98h23.46l-25.41,43.53-43.89,70.4h98.12Zm-22.13-113.92v177.02h-29.3V15.98h29.3Z" style="fill:#432774;"/><path d="m334.12,26.05c-1.7-.65-3.54-.67-5.87.55-.35.18-.71.35-1.07.5l-68.07,27.84c.83,1.39,1.88,3.02,3.19,4.97.37.56.76,1.14,1.17,1.74,1.75,2.6,3.77,5.6,5.6,8.62h0c3.4,5.61,7.15,9.32,10.19,11.07,2.41,1.39,3.49,1.18,4.06.93l56.53-33.56c.21-.12.41-.24.62-.35,2.27-1.18,3.51-2.91,3.97-4.82.46-1.92.39-5.18-2.27-9.57h0c-3.07-5.07-6.08-7.17-8.05-7.92Zm30.05-5.31c-5.18-8.56-12.21-15.32-20.91-18.62-8.77-3.33-18.02-2.66-26.33,1.49l-73.13,29.9c-.37.15-.72.32-1.07.5-5.62,2.92-10.15,7.98-11.05,15.14-.74,5.92,1.35,11.19,2.99,14.56,1.76,3.62,4.15,7.28,6.24,10.4.47.7.92,1.37,1.37,2.04,1.72,2.55,3.3,4.91,4.79,7.35,0,0,0,0,0,0s0,0,0,0c4.85,8.01,11.41,15.43,19.32,20,8.2,4.73,18.76,6.72,29.05,1.36.21-.11.42-.23.62-.35l56.67-33.64c8.35-4.47,14.46-12.03,16.71-21.36,2.27-9.45.33-19.55-5.26-28.77,0,0,0,0,0,0,0,0,0,0,0,0Zm-170.49,89.45l-27.2,62.8c-.19.43-.39.85-.63,1.25-1.16,2.04-1.39,4.32-.69,6.43.67,2.01,2.51,4.83,7.26,7.15h0c5.43,2.66,9.66,2.93,12.33,2.4,2.52-.5,4.08-1.74,5.02-3.39.13-.24.28-.47.43-.7l34.3-52.14c.04-.11.05-.23.03-.44-.04-.43-.25-1.38-1.11-2.79-1.78-2.92-5.6-6.54-11.39-9.38-4.49-2.2-8.62-4.83-12.03-7.06-.78-.51-1.51-.99-2.2-1.45-1.57-1.04-2.92-1.93-4.14-2.69Zm20.47-17.25c3.28,2.15,6.28,4.02,9.24,5.47,9.11,4.46,17.13,11.06,22.01,19.07,4.97,8.15,7.23,19.06,1.38,29.33-.14.24-.28.47-.43.7l-34.45,52.36c-10.36,17.66-32.22,20.05-50.82,10.94-10.15-4.97-17.23-12.78-20.32-22.1-2.97-8.97-1.94-18.46,2.37-26.43l29.76-68.72c.18-.43.39-.85.63-1.25,1.52-2.66,3.71-5.32,6.85-7.27,3.22-2,6.68-2.77,9.89-2.75,5.71.03,10.73,2.55,13.82,4.28,2.74,1.53,5.72,3.51,8.35,5.25.59.39,1.17.77,1.71,1.13Z" style="fill:#f59a1a; fill-rule:evenodd;"/><path d="m279.1,65.07c4.29,4.73,4.06,12.03-.52,16.48l-13.3,12.94c-.11.11-.23.22-.35.33l-38.7,34.67-17.59,17.4c-4.63,4.58-12.09,4.54-16.66-.11-4.57-4.64-4.54-12.13.07-16.73l17.17-17.14c.09-.09.19-.18.28-.27l38.38-35.86c.12-.11.24-.22.37-.33l14.46-12.41c4.84-4.16,12.1-3.7,16.39,1.03Z" style="fill:#f59a1a; fill-rule:evenodd;"/><path d="m156.78,32.4l-6.9,12.41,40.5,9.19-33.6-21.6Z" style="fill:#f59a1a;"/><path d="m205.67,6.3l-16.2,13.49,15.16,25.21,1.04-38.7Z" style="fill:#f59a1a;"/></g></svg>