<?xml version="1.0" encoding="UTF-8"?><svg id="katman_2" xmlns="http://www.w3.org/2000/svg" viewBox="0 0 211 211"><g id="katman_1"><path d="m211,105.5c0,22.28-7.05,43.99-20.15,62.01-13.1,18.02-31.56,31.44-52.75,38.32-21.19,6.88-44.01,6.88-65.2,0-21.19-6.88-39.65-20.3-52.75-38.32l42.68-31.01c6.55,9.01,15.78,15.72,26.37,19.16,10.59,3.44,22.01,3.44,32.6,0,10.59-3.44,19.83-10.15,26.37-19.16,6.55-9.01,10.07-19.87,10.07-31.01h52.75Z" style="fill:#f4be37;"/><path d="m59.86,200.62c-16.02-7.69-29.84-19.3-40.18-33.75l42.91-30.68c5.17,7.23,12.08,13.03,20.09,16.88l-22.82,47.56Z" style="fill:#3fb6e6;"/><path d="m72.49,5.3C88.36.07,105.24-1.31,121.74,1.26c16.51,2.57,32.17,9.03,45.69,18.83,13.52,9.81,24.53,22.69,32.1,37.58,7.57,14.89,11.5,31.37,11.47,48.07l-52.75-.12c.02-8.35-1.95-16.59-5.73-24.04-3.79-7.44-9.29-13.88-16.05-18.79-6.76-4.9-14.59-8.13-22.84-9.42-8.25-1.29-16.69-.59-24.63,2.02L72.49,5.3Z" style="fill:#5785c4;"/><path d="m20.41,167.87c-9.84-13.43-16.37-28.99-19.04-45.43C-1.3,106.01-.05,89.18,5.03,73.32c5.08-15.86,13.84-30.28,25.56-42.11,11.72-11.82,26.08-20.7,41.89-25.91l16.51,50.1c-7.91,2.61-15.08,7.05-20.94,12.96-5.86,5.91-10.24,13.13-12.78,21.05-2.54,7.93-3.17,16.34-1.83,24.56,1.34,8.22,4.6,16,9.52,22.71l-42.54,31.19Z" style="fill:#24a17b;"/></g></svg>