<?xml version="1.0" encoding="UTF-8"?><svg id="katman_2" xmlns="http://www.w3.org/2000/svg" xmlns:xlink="http://www.w3.org/1999/xlink" viewBox="0 0 664 546"><defs><linearGradient id="Adsız_degrade_2" x1="363.48" y1="-1281.31" x2="363.48" y2="-1534.03" gradientTransform="translate(-8.36 -1042.02) scale(1 -1)" gradientUnits="userSpaceOnUse"><stop offset="0" stop-color="#432774"/><stop offset="1" stop-color="#fff" stop-opacity="0"/></linearGradient></defs><g id="katman_1"><g><rect width="664" height="546" rx="8" ry="8" style="fill:none;"/><rect x="62.24" y="492.02" width="585.76" height="2.11" style="fill:#f2f2f2;"/><rect x="62.24" y="399.17" width="585.76" height="2.11" style="fill:#f2f2f2;"/><rect x="62.24" y="304.22" width="585.76" height="2.11" style="fill:#f2f2f2;"/><rect x="62.24" y="209.27" width="585.76" height="2.11" style="fill:#f2f2f2;"/><rect x="62.24" y="116.42" width="585.76" height="2.11" style="fill:#f2f2f2;"/><path d="m260.49,510.22h-2.28v-.92h2.28c.44,0,.8-.07,1.07-.21.27-.14.47-.34.6-.59.13-.25.19-.54.19-.86,0-.29-.06-.57-.19-.83-.12-.26-.32-.47-.6-.62-.27-.16-.63-.24-1.07-.24h-2.02v7.6h-1.13v-8.53h3.15c.64,0,1.19.11,1.64.33.44.22.78.53,1.01.93.23.39.35.84.35,1.34,0,.55-.11,1.01-.35,1.4-.23.39-.57.68-1.01.88-.45.2-.99.3-1.64.3Zm7.93,2.26v-3.26c0-.25-.05-.47-.15-.65-.1-.19-.25-.33-.45-.43-.2-.1-.44-.15-.74-.15-.27,0-.51.05-.72.14-.2.09-.36.22-.48.37-.11.15-.17.32-.17.49h-1.08c0-.23.06-.45.18-.67.12-.22.29-.42.5-.6.22-.18.49-.33.8-.43.31-.11.66-.16,1.04-.16.46,0,.87.08,1.22.23.36.16.63.39.83.71.2.31.3.71.3,1.18v2.95c0,.21.02.44.05.67.04.24.1.44.17.61v.09h-1.13c-.06-.12-.1-.29-.13-.5-.03-.21-.05-.41-.05-.59Zm.19-2.76v.76s-1.08,0-1.08,0c-.31,0-.58.02-.83.08-.24.05-.44.12-.61.22s-.29.22-.38.37c-.09.15-.13.32-.13.51s.04.38.13.54.22.3.4.39c.18.09.41.14.67.14.33,0,.62-.07.88-.21s.46-.31.6-.52c.15-.2.24-.4.25-.59l.46.52c-.03.16-.1.35-.22.54-.12.2-.28.39-.49.57-.2.18-.44.33-.71.45-.27.12-.58.18-.92.18-.43,0-.81-.08-1.13-.25-.32-.17-.57-.39-.75-.67-.18-.29-.26-.6-.26-.96s.07-.64.2-.9c.13-.26.33-.48.58-.65.25-.18.55-.31.9-.4.35-.09.74-.13,1.18-.13h1.26Zm7.33,2.95v.89h-4.61v-.89h4.61Zm-.17-4.68l-4.2,5.57h-.66v-.8l4.17-5.54h.69v.77Zm-.48-.77v.9h-4.33v-.9h4.33Zm5.62,5.26v-3.26c0-.25-.05-.47-.15-.65-.1-.19-.25-.33-.44-.43-.2-.1-.45-.15-.74-.15-.27,0-.51.05-.72.14-.2.09-.36.22-.48.37-.11.15-.17.32-.17.49h-1.08c0-.23.06-.45.18-.67.12-.22.29-.42.5-.6.22-.18.49-.33.8-.43.31-.11.66-.16,1.04-.16.46,0,.87.08,1.22.23.36.16.63.39.83.71.2.31.3.71.3,1.18v2.95c0,.21.02.44.05.67.04.24.1.44.17.61v.09h-1.13c-.05-.12-.1-.29-.13-.5-.03-.21-.05-.41-.05-.59Zm.19-2.76v.76s-1.08,0-1.08,0c-.31,0-.58.02-.83.08-.24.05-.45.12-.61.22s-.29.22-.38.37c-.09.15-.13.32-.13.51s.05.38.14.54.23.3.4.39c.18.09.41.14.67.14.33,0,.62-.07.88-.21s.45-.31.6-.52c.15-.2.23-.4.25-.59l.46.52c-.03.16-.1.35-.22.54-.12.2-.28.39-.49.57-.2.18-.44.33-.71.45-.27.12-.58.18-.93.18-.43,0-.81-.08-1.13-.25-.32-.17-.57-.39-.75-.67-.18-.29-.26-.6-.26-.96s.07-.64.2-.9c.13-.26.32-.48.57-.65.25-.18.55-.31.9-.4.35-.09.74-.13,1.18-.13h1.26Zm3.68-1.5v5.34h-1.08v-6.34h1.05l.03,1Zm1.98-1.03v1.01c-.1-.02-.18-.03-.26-.04-.08,0-.17-.01-.27-.01-.25,0-.47.04-.66.12-.19.08-.35.19-.49.33-.13.14-.24.31-.32.5-.07.19-.12.4-.15.63l-.3.18c0-.38.04-.74.11-1.08.08-.34.2-.63.36-.89.16-.26.36-.46.61-.61.25-.15.55-.22.89-.22.08,0,.17.01.27.03.1.02.17.03.21.05Z" style="fill:rgba(29,34,41,.6);"/><path d="m339.62,510.22h-2.28v-.92h2.28c.44,0,.8-.07,1.07-.21.27-.14.47-.34.6-.59.13-.25.19-.54.19-.86,0-.29-.06-.57-.19-.83-.12-.26-.32-.47-.6-.62-.27-.16-.63-.24-1.07-.24h-2.01v7.6h-1.13v-8.53h3.15c.65,0,1.19.11,1.64.33.45.22.78.53,1.01.93.23.39.35.84.35,1.34,0,.55-.12,1.01-.35,1.4-.23.39-.57.68-1.01.88-.45.2-.99.3-1.64.3Zm7.93,2.26v-3.26c0-.25-.05-.47-.15-.65-.1-.19-.25-.33-.45-.43-.2-.1-.45-.15-.74-.15-.27,0-.51.05-.72.14-.2.09-.36.22-.48.37-.11.15-.17.32-.17.49h-1.08c0-.23.06-.45.18-.67.12-.22.29-.42.5-.6.22-.18.49-.33.8-.43.31-.11.66-.16,1.04-.16.46,0,.87.08,1.22.23.36.16.63.39.83.71.2.31.31.71.31,1.18v2.95c0,.21.02.44.05.67.04.24.1.44.17.61v.09h-1.13c-.05-.12-.1-.29-.13-.5-.03-.21-.05-.41-.05-.59Zm.19-2.76v.76s-1.08,0-1.08,0c-.31,0-.58.02-.83.08-.24.05-.45.12-.61.22s-.29.22-.38.37c-.09.15-.13.32-.13.51s.05.38.14.54.22.3.4.39c.18.09.41.14.67.14.33,0,.62-.07.88-.21s.45-.31.6-.52c.15-.2.23-.4.25-.59l.46.52c-.03.16-.1.35-.22.54-.12.2-.28.39-.49.57-.2.18-.44.33-.71.45-.27.12-.58.18-.93.18-.43,0-.81-.08-1.13-.25-.32-.17-.57-.39-.75-.67-.18-.29-.26-.6-.26-.96s.07-.64.2-.9c.13-.26.32-.48.57-.65.25-.18.55-.31.9-.4.35-.09.74-.13,1.18-.13h1.26Zm7.32,2.95v.89h-4.61v-.89h4.61Zm-.17-4.68l-4.2,5.57h-.66v-.8l4.17-5.54h.69v.77Zm-.48-.77v.9h-4.33v-.9h4.33Zm5.62,5.26v-3.26c0-.25-.05-.47-.15-.65-.1-.19-.25-.33-.45-.43-.2-.1-.45-.15-.74-.15-.27,0-.51.05-.72.14-.2.09-.36.22-.48.37-.11.15-.17.32-.17.49h-1.08c0-.23.06-.45.18-.67.12-.22.29-.42.5-.6.22-.18.49-.33.8-.43.31-.11.66-.16,1.04-.16.46,0,.87.08,1.22.23.35.16.63.39.83.71.2.31.3.71.3,1.18v2.95c0,.21.02.44.05.67.04.24.1.44.17.61v.09h-1.13c-.05-.12-.1-.29-.13-.5-.03-.21-.05-.41-.05-.59Zm.19-2.76v.76s-1.08,0-1.08,0c-.31,0-.58.02-.83.08-.24.05-.45.12-.61.22s-.29.22-.38.37c-.09.15-.13.32-.13.51s.04.38.13.54.23.3.4.39c.18.09.41.14.67.14.33,0,.62-.07.88-.21s.46-.31.6-.52c.15-.2.23-.4.25-.59l.46.52c-.03.16-.1.35-.22.54-.12.2-.28.39-.49.57-.2.18-.44.33-.71.45-.27.12-.58.18-.93.18-.43,0-.81-.08-1.13-.25-.32-.17-.57-.39-.75-.67-.18-.29-.26-.6-.26-.96s.07-.64.2-.9c.13-.26.32-.48.57-.65.25-.18.55-.31.9-.4.35-.09.74-.13,1.18-.13h1.26Zm3.68-1.5v5.34h-1.08v-6.34h1.05l.03,1Zm1.98-1.03v1.01c-.1-.02-.18-.03-.26-.04-.08,0-.17-.01-.27-.01-.25,0-.47.04-.66.12-.19.08-.35.19-.49.33-.13.14-.24.31-.32.5-.07.19-.12.4-.15.63l-.3.18c0-.38.04-.74.11-1.08.08-.34.2-.63.36-.89.16-.26.36-.46.61-.61.25-.15.55-.22.89-.22.08,0,.17.01.27.03.1.02.17.03.21.05Zm3.95.04v.83h-3.43v-.83h3.43Zm-2.27-1.54h1.08v6.31c0,.21.03.38.1.49s.15.18.26.22c.11.03.22.05.34.05.09,0,.18,0,.28-.02.1-.02.18-.04.23-.05v.88c-.08.03-.19.05-.33.08-.14.03-.3.04-.5.04-.26,0-.51-.05-.73-.16-.22-.11-.4-.28-.53-.53-.13-.25-.19-.59-.19-1.01v-6.31Zm6.17,8c-.44,0-.84-.07-1.2-.22-.36-.15-.66-.37-.92-.64-.25-.27-.45-.6-.59-.97-.14-.38-.2-.79-.2-1.23v-.25c0-.52.08-.98.23-1.38.15-.41.36-.75.62-1.03.26-.28.56-.49.89-.64.33-.15.67-.22,1.03-.22.45,0,.84.08,1.17.23.33.16.6.38.81.66.21.28.37.61.47.98.1.38.15.79.15,1.23v.49h-4.73v-.89h3.65v-.08c-.01-.28-.07-.55-.18-.82-.1-.27-.25-.48-.47-.66-.21-.17-.51-.26-.88-.26-.25,0-.47.05-.68.16-.21.1-.38.25-.53.46-.15.2-.26.45-.35.74s-.12.63-.12,1.01v.25c0,.3.04.58.12.85.09.26.21.49.37.69.16.2.36.35.59.47.24.11.5.17.8.17.38,0,.71-.08.97-.23.26-.16.5-.36.7-.63l.66.52c-.14.21-.31.4-.52.59-.21.19-.47.34-.78.46-.3.12-.67.18-1.08.18Zm7.42-1.8c0-.16-.04-.3-.11-.43-.07-.14-.2-.26-.42-.37-.21-.11-.52-.21-.94-.29-.35-.07-.67-.16-.95-.26-.28-.1-.52-.23-.72-.37-.2-.14-.35-.32-.45-.51-.11-.19-.16-.42-.16-.68s.06-.49.16-.71c.11-.22.27-.42.48-.59.21-.17.46-.31.74-.4.29-.1.61-.15.97-.15.51,0,.94.09,1.3.27.36.18.63.42.83.72.19.3.29.63.29.99h-1.08c0-.18-.05-.35-.16-.51-.1-.17-.25-.31-.45-.42-.2-.11-.43-.16-.72-.16-.3,0-.54.05-.73.14-.18.09-.32.2-.4.35-.08.14-.12.29-.12.44,0,.12.02.22.06.32.04.09.12.17.22.25.11.07.25.14.45.21.19.07.43.13.73.2.52.12.95.26,1.28.42s.59.37.75.6c.16.24.25.53.25.87,0,.28-.06.53-.18.76-.11.23-.28.43-.5.6-.21.16-.47.29-.77.39-.3.09-.63.13-1,.13-.56,0-1.03-.1-1.42-.3-.39-.2-.68-.46-.88-.77-.2-.32-.3-.65-.3-1h1.09c.02.3.1.53.26.71.16.17.35.3.57.37.23.07.45.11.67.11.3,0,.55-.04.74-.12.2-.08.36-.18.46-.32.11-.14.16-.29.16-.47Zm3.69-4.66v6.34h-1.09v-6.34h1.09Zm-1.17-1.68c0-.18.05-.33.16-.45.11-.12.27-.18.48-.18s.37.06.47.18c.11.12.17.27.17.45s-.06.31-.17.43c-.11.12-.27.18-.47.18s-.37-.06-.48-.18c-.11-.12-.16-.26-.16-.43Z" style="fill:rgba(29,34,41,.6);"/><path d="m445.68,511.41c0-.2-.03-.38-.09-.53-.06-.16-.16-.3-.32-.42-.15-.12-.36-.24-.62-.36-.26-.11-.59-.23-1-.35-.42-.12-.8-.26-1.14-.42-.34-.16-.63-.33-.87-.53-.24-.2-.43-.43-.56-.68s-.19-.55-.19-.89.07-.64.2-.92c.14-.28.33-.53.59-.73.26-.21.56-.38.92-.49.35-.12.75-.18,1.19-.18.64,0,1.18.12,1.63.37.45.24.79.56,1.02.95.24.39.35.81.35,1.25h-1.12c0-.32-.07-.6-.21-.85-.14-.25-.34-.44-.62-.59-.28-.14-.63-.22-1.05-.22-.4,0-.73.06-1,.18-.26.12-.46.28-.59.49-.12.21-.19.44-.19.71,0,.18.04.34.11.49.08.14.2.28.36.4.16.12.37.24.62.35.25.11.56.21.91.3.48.14.9.29,1.25.46.35.17.64.36.87.57.23.21.4.44.51.71.11.26.17.56.17.89s-.07.66-.21.94c-.14.28-.34.52-.6.72s-.58.35-.94.46c-.36.11-.77.16-1.22.16-.4,0-.78-.05-1.17-.16-.38-.11-.73-.27-1.04-.49-.31-.22-.56-.49-.74-.81-.18-.32-.28-.7-.28-1.12h1.12c0,.29.06.54.17.76.11.21.27.38.46.52.2.14.42.24.67.3.25.06.52.09.79.09.39,0,.73-.05,1-.16.27-.11.48-.27.62-.47.14-.2.22-.44.22-.72Zm6.15,1.07v-3.26c0-.25-.05-.47-.15-.65-.1-.19-.25-.33-.45-.43-.2-.1-.45-.15-.74-.15-.27,0-.51.05-.72.14-.2.09-.36.22-.48.37-.11.15-.17.32-.17.49h-1.08c0-.23.06-.45.18-.67.12-.22.29-.42.5-.6.22-.18.49-.33.8-.43.31-.11.66-.16,1.04-.16.46,0,.87.08,1.22.23.36.16.63.39.83.71.2.31.3.71.3,1.18v2.95c0,.21.02.44.05.67.04.24.1.44.17.61v.09h-1.13c-.06-.12-.1-.29-.13-.5-.03-.21-.05-.41-.05-.59Zm.19-2.76v.76s-1.08,0-1.08,0c-.31,0-.58.02-.83.08-.24.05-.45.12-.61.22-.16.1-.29.22-.38.37-.09.15-.13.32-.13.51s.05.38.14.54.22.3.4.39c.18.09.41.14.67.14.33,0,.62-.07.88-.21s.46-.31.6-.52c.15-.2.24-.4.25-.59l.46.52c-.03.16-.1.35-.22.54-.12.2-.28.39-.49.57-.2.18-.44.33-.71.45-.27.12-.58.18-.93.18-.43,0-.81-.08-1.13-.25-.32-.17-.57-.39-.75-.67-.18-.29-.26-.6-.26-.96s.07-.64.2-.9c.13-.26.33-.48.58-.65.25-.18.55-.31.9-.4.35-.09.74-.13,1.18-.13h1.26Zm3.78-5.16v9h-1.09v-9h1.09Zm2.91,2.66v6.34h-1.08v-6.34h1.08Z" style="fill:rgba(29,34,41,.6);"/><path d="m518.9,510.86h1.12c-.06.54-.21,1.02-.46,1.45-.25.43-.6.76-1.06,1.01-.46.25-1.03.37-1.71.37-.5,0-.96-.09-1.36-.28-.41-.19-.76-.45-1.05-.8-.29-.35-.52-.76-.68-1.25-.16-.49-.23-1.03-.23-1.63v-.85c0-.6.08-1.14.23-1.62.16-.49.39-.91.69-1.25.3-.35.66-.62,1.08-.8.42-.19.9-.28,1.42-.28.64,0,1.19.12,1.63.36.45.24.79.58,1.04,1.01.25.43.4.92.46,1.48h-1.12c-.05-.4-.16-.74-.3-1.02-.15-.29-.36-.51-.63-.67s-.63-.23-1.07-.23c-.38,0-.71.07-1,.22-.29.15-.53.35-.72.62-.19.27-.34.58-.43.96-.1.37-.15.78-.15,1.24v.86c0,.42.04.81.13,1.18.09.37.22.69.4.97.18.28.41.5.69.66.28.16.61.23.98.23.48,0,.86-.08,1.15-.23.29-.15.5-.37.64-.66.15-.29.25-.63.32-1.03Zm-2.51,2.77h.78l-.07.31c.23.04.43.13.61.28.19.15.28.39.28.73,0,.18-.04.35-.12.5-.07.15-.18.28-.33.39-.15.11-.33.19-.56.25-.22.06-.47.09-.77.09l-.04-.63c.18,0,.34-.02.49-.06.15-.04.27-.1.35-.19.09-.08.14-.2.14-.33,0-.13-.03-.23-.1-.3-.07-.07-.17-.13-.31-.17-.14-.03-.31-.06-.53-.08l.18-.79Zm8.75-1.14v-3.26c0-.25-.05-.47-.15-.65-.1-.19-.25-.33-.45-.43-.2-.1-.45-.15-.74-.15-.27,0-.51.05-.72.14-.2.09-.36.22-.48.37-.11.15-.17.32-.17.49h-1.08c0-.23.06-.45.17-.67.12-.22.29-.42.5-.6.22-.18.49-.33.8-.43.31-.11.66-.16,1.04-.16.46,0,.87.08,1.22.23.36.16.63.39.83.71.2.31.3.71.3,1.18v2.95c0,.21.02.44.05.67.04.24.1.44.17.61v.09h-1.13c-.05-.12-.1-.29-.13-.5-.03-.21-.05-.41-.05-.59Zm.19-2.76v.76s-1.08,0-1.08,0c-.31,0-.58.02-.83.08-.24.05-.45.12-.61.22s-.29.22-.38.37c-.09.15-.13.32-.13.51s.04.38.13.54c.09.16.22.3.4.39.18.09.41.14.67.14.33,0,.62-.07.88-.21.25-.14.46-.31.6-.52.15-.2.23-.4.25-.59l.46.52c-.03.16-.1.35-.22.54-.12.2-.28.39-.49.57-.2.18-.44.33-.71.45-.27.12-.58.18-.93.18-.43,0-.81-.08-1.13-.25-.32-.17-.57-.39-.75-.67-.18-.29-.26-.6-.26-.96s.07-.64.2-.9c.13-.26.32-.48.57-.65.25-.18.55-.31.9-.4.35-.09.74-.13,1.18-.13h1.26Zm3.69-1.5v5.34h-1.08v-6.34h1.05l.03,1Zm1.98-1.03v1.01c-.09-.02-.18-.03-.26-.04-.08,0-.17-.01-.27-.01-.25,0-.47.04-.66.12-.19.08-.35.19-.49.33-.13.14-.24.31-.32.5-.07.19-.12.4-.15.63l-.3.18c0-.38.04-.74.11-1.08.08-.34.2-.63.36-.89.16-.26.36-.46.61-.61.25-.15.55-.22.89-.22.08,0,.17.01.27.03.1.02.17.03.21.05Zm4.69,4.69c0-.16-.04-.3-.11-.43-.07-.14-.21-.26-.42-.37-.21-.11-.52-.21-.94-.29-.35-.07-.67-.16-.95-.26-.28-.1-.52-.23-.72-.37-.2-.14-.35-.32-.45-.51-.11-.19-.16-.42-.16-.68s.05-.49.16-.71c.11-.22.27-.42.47-.59.21-.17.46-.31.74-.4.29-.1.61-.15.97-.15.51,0,.94.09,1.3.27.36.18.63.42.83.72.19.3.29.63.29.99h-1.08c0-.18-.05-.35-.16-.51-.1-.17-.25-.31-.45-.42-.2-.11-.44-.16-.72-.16-.3,0-.54.05-.73.14-.18.09-.32.2-.41.35-.08.14-.12.29-.12.44,0,.12.02.22.06.32.04.09.12.17.22.25.11.07.25.14.45.21.19.07.43.13.73.2.52.12.95.26,1.28.42.34.16.59.37.75.6.16.24.25.53.25.87,0,.28-.06.53-.18.76-.11.23-.28.43-.5.6-.21.16-.47.29-.77.39-.3.09-.63.13-1,.13-.56,0-1.03-.1-1.42-.3-.39-.2-.68-.46-.88-.77-.2-.32-.3-.65-.3-1h1.09c.02.3.1.53.26.71.16.17.35.3.58.37.23.07.45.11.67.11.3,0,.54-.04.74-.12.2-.08.36-.18.46-.32.11-.14.16-.29.16-.47Zm-1.58,1.74h.78l-.07.31c.23.04.43.13.62.28.19.15.28.39.28.73,0,.18-.04.35-.12.5-.07.15-.19.28-.33.39-.15.11-.33.19-.56.25-.22.06-.47.09-.77.09l-.04-.63c.18,0,.34-.02.49-.06.15-.04.27-.1.35-.19.09-.08.13-.2.13-.33,0-.13-.03-.23-.1-.3-.07-.07-.17-.13-.31-.17-.14-.03-.31-.06-.53-.08l.18-.79Zm7.83-1.14v-3.26c0-.25-.05-.47-.15-.65-.1-.19-.25-.33-.45-.43-.2-.1-.44-.15-.74-.15-.27,0-.51.05-.72.14-.2.09-.36.22-.48.37-.11.15-.17.32-.17.49h-1.08c0-.23.06-.45.18-.67.12-.22.29-.42.5-.6.22-.18.49-.33.8-.43.31-.11.66-.16,1.04-.16.46,0,.87.08,1.22.23.35.16.63.39.83.71.2.31.3.71.3,1.18v2.95c0,.21.02.44.05.67.04.24.1.44.17.61v.09h-1.13c-.05-.12-.1-.29-.13-.5-.03-.21-.05-.41-.05-.59Zm.19-2.76v.76s-1.08,0-1.08,0c-.31,0-.58.02-.83.08-.24.05-.44.12-.61.22s-.29.22-.38.37c-.09.15-.13.32-.13.51s.04.38.14.54c.09.16.22.3.4.39.18.09.41.14.67.14.33,0,.62-.07.88-.21.25-.14.46-.31.6-.52.15-.2.23-.4.25-.59l.46.52c-.03.16-.1.35-.22.54-.12.2-.28.39-.49.57-.2.18-.44.33-.72.45-.27.12-.58.18-.93.18-.43,0-.81-.08-1.13-.25-.32-.17-.57-.39-.75-.67-.18-.29-.26-.6-.26-.96s.07-.64.2-.9c.13-.26.32-.48.57-.65.25-.18.55-.31.9-.4.35-.09.74-.13,1.18-.13h1.26Zm3.68-1.24v5.08h-1.09v-6.34h1.03l.06,1.26Zm-.22,1.67l-.5-.02c0-.43.06-.83.17-1.2.11-.37.27-.69.49-.97.21-.27.48-.48.8-.63.32-.15.69-.23,1.11-.23.3,0,.57.04.82.13.25.08.47.21.65.39.18.18.33.41.43.69.1.28.15.62.15,1.02v4.22h-1.08v-4.17c0-.33-.06-.6-.17-.8-.11-.2-.27-.34-.47-.43-.2-.09-.44-.14-.72-.14-.32,0-.59.06-.8.17-.22.11-.39.27-.52.47-.13.2-.22.43-.28.68-.05.25-.08.52-.08.81Zm4.11-.6l-.73.22c0-.35.06-.68.17-1,.11-.32.28-.61.49-.86.21-.25.48-.45.79-.59.31-.15.67-.22,1.07-.22.34,0,.64.05.9.14.27.09.49.23.67.42.18.18.32.42.42.71s.14.63.14,1.03v4.17h-1.09v-4.18c0-.35-.06-.63-.17-.83-.11-.2-.27-.34-.47-.42-.2-.08-.44-.12-.71-.12-.24,0-.45.04-.63.12-.18.08-.34.2-.46.34-.12.14-.22.3-.29.49-.06.18-.09.38-.09.59Zm5.55-4.99h1.09v7.77l-.09,1.23h-1v-9Zm5.37,5.78v.12c0,.46-.05.89-.16,1.28-.11.39-.27.73-.48,1.02s-.47.51-.77.67c-.3.16-.65.24-1.05.24s-.76-.07-1.06-.2c-.3-.14-.55-.34-.76-.6-.21-.26-.37-.58-.5-.95-.12-.37-.21-.79-.25-1.25v-.54c.05-.47.13-.89.25-1.26.12-.37.29-.69.5-.95.21-.27.46-.47.76-.6.3-.14.65-.21,1.05-.21s.75.08,1.06.23c.31.15.57.37.77.66.21.29.37.63.48,1.03.11.39.16.83.16,1.32Zm-1.09.12v-.12c0-.32-.03-.61-.09-.89-.06-.28-.15-.53-.28-.74-.13-.21-.3-.38-.51-.5-.21-.12-.47-.19-.78-.19-.27,0-.51.05-.72.14-.2.09-.37.22-.51.38-.14.16-.26.34-.35.54-.09.2-.15.41-.19.62v1.41c.06.27.16.54.3.79.15.25.34.46.58.61.24.16.54.24.9.24.29,0,.54-.06.75-.17.21-.12.38-.29.51-.5.13-.21.23-.46.29-.73.06-.28.09-.57.09-.89Zm6.2,2.02v-3.26c0-.25-.05-.47-.15-.65-.1-.19-.25-.33-.45-.43-.2-.1-.44-.15-.74-.15-.27,0-.51.05-.72.14-.2.09-.36.22-.48.37-.11.15-.17.32-.17.49h-1.08c0-.23.06-.45.18-.67.12-.22.28-.42.5-.6.22-.18.49-.33.8-.43.31-.11.66-.16,1.04-.16.46,0,.87.08,1.22.23.35.16.63.39.83.71.2.31.3.71.3,1.18v2.95c0,.21.02.44.05.67.04.24.1.44.17.61v.09h-1.13c-.05-.12-.1-.29-.13-.5-.03-.21-.05-.41-.05-.59Zm.19-2.76v.76s-1.08,0-1.08,0c-.31,0-.58.02-.83.08-.24.05-.44.12-.61.22s-.29.22-.38.37c-.09.15-.13.32-.13.51s.04.38.14.54c.09.16.22.3.4.39.18.09.41.14.67.14.33,0,.62-.07.88-.21.25-.14.46-.31.6-.52.15-.2.23-.4.25-.59l.46.52c-.03.16-.1.35-.22.54-.12.2-.28.39-.49.57-.2.18-.44.33-.72.45-.27.12-.58.18-.92.18-.43,0-.81-.08-1.13-.25-.32-.17-.57-.39-.75-.67-.18-.29-.26-.6-.26-.96s.07-.64.2-.9c.13-.26.32-.48.57-.65.25-.18.55-.31.9-.4.35-.09.74-.13,1.18-.13h1.26Z" style="fill:rgba(29,34,41,.6);"/><path d="m607.1,510.22h-2.28v-.92h2.28c.44,0,.8-.07,1.07-.21.27-.14.47-.34.6-.59.13-.25.19-.54.19-.86,0-.29-.07-.57-.19-.83-.12-.26-.32-.47-.6-.62-.27-.16-.63-.24-1.07-.24h-2.02v7.6h-1.13v-8.53h3.15c.64,0,1.19.11,1.63.33.45.22.78.53,1.01.93.23.39.35.84.35,1.34,0,.55-.12,1.01-.35,1.4s-.57.68-1.01.88c-.45.2-.99.3-1.63.3Zm6.81,3.46c-.44,0-.84-.07-1.2-.22-.35-.15-.66-.37-.92-.64-.25-.27-.45-.6-.59-.97s-.21-.79-.21-1.23v-.25c0-.52.08-.98.23-1.38.15-.41.36-.75.62-1.03.26-.28.56-.49.89-.64.33-.15.68-.22,1.03-.22.45,0,.84.08,1.17.23.33.16.6.38.82.66.21.28.37.61.47.98.1.38.15.79.15,1.23v.49h-4.73v-.89h3.65v-.08c-.02-.28-.07-.55-.18-.82-.1-.27-.25-.48-.47-.66-.21-.17-.51-.26-.88-.26-.25,0-.47.05-.68.16-.21.1-.39.25-.53.46-.15.2-.26.45-.35.74-.08.29-.12.63-.12,1.01v.25c0,.3.04.58.12.85.09.26.21.49.37.69.16.2.36.35.59.47.23.11.5.17.8.17.38,0,.71-.08.97-.23.27-.16.5-.36.7-.63l.66.52c-.14.21-.31.4-.52.59-.21.19-.47.34-.78.46-.3.12-.67.18-1.08.18Zm4.82-5.46v5.34h-1.08v-6.34h1.05l.03,1Zm1.98-1.03v1.01c-.1-.02-.18-.03-.26-.04-.08,0-.17-.01-.27-.01-.25,0-.47.04-.66.12-.19.08-.35.19-.49.33-.13.14-.24.31-.32.5-.07.19-.12.4-.15.63l-.3.18c0-.38.04-.74.11-1.08.08-.34.2-.63.36-.89.16-.26.36-.46.61-.61.25-.15.55-.22.89-.22.08,0,.17.01.27.03.1.02.17.03.21.05Zm4.69,4.69c0-.16-.04-.3-.11-.43-.07-.14-.2-.26-.42-.37-.21-.11-.52-.21-.94-.29-.35-.07-.67-.16-.95-.26-.28-.1-.52-.23-.72-.37-.2-.14-.35-.32-.45-.51-.11-.19-.16-.42-.16-.68s.05-.49.16-.71c.11-.22.27-.42.47-.59.21-.17.46-.31.74-.4.29-.1.61-.15.97-.15.51,0,.94.09,1.3.27.36.18.63.42.83.72.19.3.29.63.29.99h-1.08c0-.18-.05-.35-.16-.51-.1-.17-.25-.31-.45-.42-.2-.11-.44-.16-.72-.16-.3,0-.54.05-.73.14-.18.09-.32.2-.4.35-.08.14-.12.29-.12.44,0,.12.02.22.06.32.04.09.12.17.22.25.11.07.25.14.45.21.19.07.43.13.73.2.52.12.95.26,1.28.42s.59.37.75.6c.16.24.25.53.25.87,0,.28-.06.53-.17.76-.11.23-.28.43-.5.6-.21.16-.47.29-.77.39-.3.09-.63.13-1,.13-.56,0-1.03-.1-1.42-.3-.39-.2-.68-.46-.88-.77-.2-.32-.3-.65-.3-1h1.09c.02.3.1.53.26.71.16.17.35.3.57.37.23.07.45.11.67.11.3,0,.55-.04.74-.12.2-.08.36-.18.46-.32.11-.14.16-.29.16-.47Zm-1.58,1.74h.78l-.07.31c.23.04.43.13.62.28.19.15.28.39.28.73,0,.18-.04.35-.12.5-.08.15-.19.28-.33.39-.15.11-.33.19-.56.25-.22.06-.48.09-.77.09l-.04-.63c.18,0,.34-.02.49-.06.15-.04.27-.1.35-.19.09-.08.14-.2.14-.33,0-.13-.03-.23-.1-.3-.07-.07-.17-.13-.31-.17-.14-.03-.32-.06-.53-.08l.18-.79Zm6.72.06c-.44,0-.84-.07-1.2-.22-.36-.15-.66-.37-.92-.64-.25-.27-.45-.6-.59-.97-.14-.38-.2-.79-.2-1.23v-.25c0-.52.08-.98.23-1.38.15-.41.36-.75.62-1.03.26-.28.56-.49.89-.64.33-.15.68-.22,1.03-.22.45,0,.84.08,1.17.23.33.16.6.38.82.66.21.28.37.61.47.98.1.38.15.79.15,1.23v.49h-4.73v-.89h3.65v-.08c-.02-.28-.07-.55-.18-.82-.1-.27-.25-.48-.47-.66-.21-.17-.51-.26-.88-.26-.25,0-.47.05-.68.16-.21.1-.39.25-.53.46-.15.2-.26.45-.35.74-.08.29-.12.63-.12,1.01v.25c0,.3.04.58.12.85.09.26.21.49.37.69.16.2.36.35.59.47.23.11.5.17.8.17.38,0,.71-.08.97-.23.27-.16.5-.36.7-.63l.66.52c-.14.21-.31.4-.52.59-.21.19-.47.34-.78.46-.3.12-.67.18-1.08.18Zm4.81-5.2v5.08h-1.09v-6.34h1.03l.06,1.26Zm-.22,1.67l-.5-.02c0-.43.06-.83.17-1.2.11-.37.27-.69.49-.97.22-.27.48-.48.8-.63.32-.15.69-.23,1.11-.23.3,0,.57.04.82.13.25.08.47.21.65.39.18.18.33.41.43.69.1.28.15.62.15,1.02v4.22h-1.08v-4.17c0-.33-.06-.6-.17-.8-.11-.2-.27-.34-.47-.43-.2-.09-.44-.14-.71-.14-.32,0-.59.06-.8.17-.21.11-.39.27-.52.47-.13.2-.22.43-.28.68-.05.25-.08.52-.08.81Zm4.11-.6l-.73.22c0-.35.06-.68.17-1,.11-.32.28-.61.49-.86.22-.25.48-.45.79-.59.31-.15.67-.22,1.07-.22.34,0,.64.05.9.14.27.09.49.23.67.42.18.18.32.42.42.71.09.29.14.63.14,1.03v4.17h-1.09v-4.18c0-.35-.06-.63-.17-.83-.11-.2-.27-.34-.47-.42-.2-.08-.44-.12-.72-.12-.24,0-.45.04-.63.12-.18.08-.34.2-.46.34-.12.14-.22.3-.29.49-.06.18-.09.38-.09.59Zm5.55-4.99h1.09v7.77l-.09,1.23h-1v-9Zm5.37,5.78v.12c0,.46-.05.89-.16,1.28-.11.39-.27.73-.48,1.02s-.47.51-.77.67c-.3.16-.65.24-1.05.24s-.76-.07-1.06-.2c-.3-.14-.55-.34-.76-.6-.21-.26-.37-.58-.5-.95-.12-.37-.21-.79-.25-1.25v-.54c.05-.47.13-.89.25-1.26.12-.37.29-.69.5-.95.21-.27.46-.47.76-.6.3-.14.65-.21,1.05-.21s.75.08,1.06.23c.31.15.57.37.77.66.21.29.37.63.48,1.03.11.39.16.83.16,1.32Zm-1.09.12v-.12c0-.32-.03-.61-.09-.89-.06-.28-.15-.53-.28-.74-.13-.21-.3-.38-.51-.5-.21-.12-.47-.19-.78-.19-.27,0-.51.05-.72.14-.2.09-.37.22-.51.38-.14.16-.26.34-.35.54-.09.2-.15.41-.19.62v1.41c.06.27.16.54.3.79.14.25.34.46.57.61.24.16.54.24.9.24.29,0,.54-.06.75-.17.21-.12.38-.29.51-.5.13-.21.23-.46.29-.73.06-.28.09-.57.09-.89Zm5.09,3.22c-.44,0-.84-.07-1.2-.22-.36-.15-.66-.37-.92-.64-.25-.27-.45-.6-.59-.97-.14-.38-.2-.79-.2-1.23v-.25c0-.52.08-.98.23-1.38.15-.41.36-.75.62-1.03.26-.28.56-.49.89-.64.33-.15.68-.22,1.03-.22.45,0,.84.08,1.17.23.33.16.6.38.82.66.21.28.37.61.47.98.1.38.15.79.15,1.23v.49h-4.73v-.89h3.65v-.08c-.02-.28-.07-.55-.18-.82-.1-.27-.25-.48-.47-.66-.21-.17-.51-.26-.88-.26-.25,0-.47.05-.68.16-.21.1-.39.25-.53.46-.15.2-.26.45-.35.74-.08.29-.12.63-.12,1.01v.25c0,.3.04.58.12.85.09.26.21.49.37.69.16.2.36.35.59.47.23.11.5.17.8.17.38,0,.71-.08.97-.23.27-.16.5-.36.7-.63l.66.52c-.14.21-.31.4-.52.59-.21.19-.47.34-.78.46-.3.12-.67.18-1.08.18Z" style="fill:rgba(29,34,41,.6);"/><path d="m81.94,510.86h1.12c-.06.54-.21,1.02-.46,1.45-.25.43-.6.76-1.06,1.01-.46.25-1.03.37-1.71.37-.5,0-.96-.09-1.37-.28-.41-.19-.76-.45-1.05-.8-.29-.35-.52-.76-.68-1.25-.16-.49-.23-1.03-.23-1.63v-.85c0-.6.08-1.14.23-1.62.16-.49.39-.91.69-1.25.3-.35.66-.62,1.08-.8.42-.19.9-.28,1.42-.28.64,0,1.19.12,1.63.36.45.24.79.58,1.04,1.01.25.43.4.92.46,1.48h-1.12c-.05-.4-.16-.74-.3-1.02-.15-.29-.36-.51-.63-.67s-.63-.23-1.07-.23c-.38,0-.71.07-1,.22-.29.15-.53.35-.72.62-.19.27-.34.58-.43.96-.1.37-.15.78-.15,1.24v.86c0,.42.04.81.13,1.18.09.37.22.69.4.97.18.28.41.5.69.66.28.16.61.23.98.23.48,0,.86-.08,1.15-.23.29-.15.5-.37.64-.66.15-.29.25-.63.32-1.03Zm6.38,1.25v-4.88h1.09v6.34h-1.04l-.05-1.46Zm.2-1.34h.45c0,.41-.04.8-.13,1.16-.09.36-.23.67-.42.93-.2.26-.45.47-.77.61-.32.15-.7.22-1.15.22-.31,0-.59-.04-.85-.13-.25-.09-.47-.23-.66-.42-.18-.19-.33-.43-.43-.73-.1-.3-.15-.66-.15-1.08v-4.09h1.08v4.1c0,.29.03.52.09.71.07.18.15.33.26.44.11.11.24.18.38.22.14.04.29.06.43.06.46,0,.83-.09,1.1-.26.27-.18.46-.42.58-.72.12-.31.18-.64.18-1.01Zm3.62-2.28v5.08h-1.09v-6.34h1.03l.06,1.26Zm-.22,1.67l-.5-.02c0-.43.06-.83.17-1.2.11-.37.27-.69.49-.97.21-.27.48-.48.8-.63.32-.15.69-.23,1.11-.23.3,0,.57.04.82.13.25.08.47.21.65.39.18.18.33.41.43.69.1.28.15.62.15,1.02v4.22h-1.08v-4.17c0-.33-.06-.6-.17-.8-.11-.2-.27-.34-.47-.43-.2-.09-.44-.14-.71-.14-.32,0-.59.06-.8.17-.21.11-.39.27-.52.47-.13.2-.22.43-.28.68-.05.25-.08.52-.08.81Zm4.11-.6l-.73.22c0-.35.06-.68.17-1,.11-.32.28-.61.49-.86.21-.25.48-.45.79-.59.31-.15.67-.22,1.07-.22.34,0,.64.05.9.14.27.09.49.23.67.42.18.18.32.42.42.71.09.29.14.63.14,1.03v4.17h-1.09v-4.18c0-.35-.06-.63-.17-.83-.11-.2-.27-.34-.47-.42-.2-.08-.44-.12-.71-.12-.24,0-.45.04-.63.12s-.34.2-.46.34c-.12.14-.22.3-.29.49-.06.18-.09.38-.09.59Zm9.3,2.92v-3.26c0-.25-.05-.47-.15-.65-.1-.19-.25-.33-.45-.43-.2-.1-.45-.15-.74-.15-.27,0-.51.05-.72.14-.2.09-.36.22-.48.37-.11.15-.17.32-.17.49h-1.08c0-.23.06-.45.18-.67.12-.22.29-.42.5-.6.22-.18.49-.33.8-.43.31-.11.66-.16,1.04-.16.46,0,.87.08,1.22.23.36.16.63.39.83.71.2.31.31.71.31,1.18v2.95c0,.21.02.44.05.67.04.24.1.44.17.61v.09h-1.13c-.06-.12-.1-.29-.13-.5-.03-.21-.05-.41-.05-.59Zm.19-2.76v.76s-1.08,0-1.08,0c-.31,0-.58.02-.83.08-.24.05-.45.12-.61.22-.16.1-.29.22-.38.37-.09.15-.13.32-.13.51s.05.38.14.54.22.3.4.39c.18.09.41.14.67.14.33,0,.62-.07.88-.21s.46-.31.6-.52c.15-.2.23-.4.25-.59l.46.52c-.03.16-.1.35-.22.54-.12.2-.28.39-.49.57-.2.18-.44.33-.71.45-.27.12-.58.18-.93.18-.43,0-.81-.08-1.13-.25-.32-.17-.57-.39-.75-.67-.18-.29-.26-.6-.26-.96s.07-.64.2-.9c.13-.26.32-.48.57-.65.25-.18.55-.31.9-.4.35-.09.74-.13,1.18-.13h1.26Z" style="fill:rgba(29,34,41,.6);"/><path d="m44.27,199.03v8.58h-1.08v-7.22l-2.19.8v-.98l3.1-1.17h.17Zm4.56,4.52l-.87-.22.43-4.25h4.38v1h-3.46l-.26,2.32c.16-.09.35-.17.59-.25.24-.08.52-.12.83-.12.39,0,.75.07,1.06.21.31.13.58.33.8.58.22.25.39.55.51.9.12.35.18.74.18,1.18,0,.41-.06.79-.17,1.13-.11.34-.28.64-.5.9-.22.25-.5.45-.84.59-.34.14-.73.21-1.19.21-.34,0-.67-.05-.98-.14-.3-.1-.58-.24-.82-.44-.24-.2-.43-.45-.59-.74-.15-.3-.24-.64-.28-1.04h1.03c.05.32.14.59.28.81.14.22.32.38.55.5.23.11.5.16.8.16.26,0,.49-.04.69-.13.2-.09.37-.22.5-.39s.24-.37.31-.61c.07-.24.11-.51.11-.8,0-.27-.04-.52-.11-.75-.07-.23-.19-.43-.33-.6-.14-.17-.32-.3-.53-.4-.21-.1-.45-.15-.73-.15-.36,0-.64.05-.83.15-.18.1-.37.23-.57.4Zm10.73-.88v1.3c0,.7-.06,1.29-.19,1.77-.12.48-.3.87-.54,1.16-.23.29-.52.5-.85.64-.33.13-.7.19-1.11.19-.33,0-.63-.04-.91-.12-.28-.08-.53-.21-.75-.39-.22-.18-.41-.42-.56-.71-.16-.29-.28-.65-.36-1.07-.08-.42-.12-.91-.12-1.46v-1.3c0-.7.06-1.29.19-1.76.13-.47.31-.85.54-1.14.23-.29.52-.5.84-.62.33-.12.7-.19,1.11-.19.33,0,.64.04.91.12.28.08.53.21.75.38.22.17.4.4.56.69.16.29.28.64.36,1.05.08.41.12.9.12,1.46Zm-1.09,1.48v-1.66c0-.38-.02-.72-.07-1.01-.04-.29-.11-.54-.19-.75-.09-.21-.2-.38-.33-.5-.13-.13-.28-.22-.45-.28-.17-.06-.36-.09-.57-.09-.26,0-.49.05-.69.15-.2.09-.37.24-.5.45-.13.21-.23.48-.3.82-.07.34-.11.74-.11,1.23v1.66c0,.38.02.72.06,1.01.05.29.12.55.21.76.09.21.2.38.33.52.13.14.28.24.45.3.17.06.36.09.57.09.27,0,.5-.05.7-.15.2-.1.37-.26.5-.47.14-.22.24-.5.3-.84.07-.34.1-.75.1-1.23Z" style="fill:rgba(29,34,41,.6);"/><path d="m42.29,109.96h.77c.38,0,.69-.06.94-.19.25-.13.44-.3.56-.52.12-.22.19-.47.19-.75,0-.33-.05-.6-.16-.83-.11-.22-.27-.39-.49-.5-.22-.11-.5-.17-.83-.17-.3,0-.57.06-.81.18-.23.12-.41.29-.54.5-.13.22-.19.48-.19.77h-1.08c0-.43.11-.83.33-1.18.22-.35.53-.64.92-.85.4-.21.86-.32,1.38-.32s.97.09,1.35.28c.39.18.69.45.9.81.21.36.32.8.32,1.33,0,.21-.05.44-.15.69-.1.24-.25.47-.46.68-.21.21-.48.38-.81.52-.33.13-.73.2-1.2.2h-.93v-.66Zm0,.89v-.65h.93c.54,0,.99.06,1.35.19.36.13.63.3.84.52.21.21.35.45.43.71.09.25.13.51.13.76,0,.4-.07.75-.21,1.06-.13.31-.32.57-.57.78-.24.22-.53.38-.86.49-.33.11-.69.16-1.07.16s-.72-.05-1.05-.16c-.32-.11-.61-.26-.86-.46-.25-.2-.45-.45-.59-.74-.14-.3-.21-.63-.21-1.01h1.08c0,.3.06.56.19.78.13.22.32.4.56.52.25.12.54.18.87.18s.62-.06.86-.17c.24-.12.43-.29.56-.53.13-.24.2-.53.2-.89s-.07-.65-.22-.87c-.15-.23-.36-.4-.63-.51-.27-.11-.59-.17-.96-.17h-.77Zm10.93,1.04v.89h-6.16v-.64l3.82-5.91h.88l-.95,1.71-2.53,3.95h4.93Zm-1.19-5.66v8.53h-1.08v-8.53h1.08Zm7.53,3.59v1.3c0,.7-.06,1.29-.19,1.77-.12.48-.3.87-.54,1.16-.23.29-.52.51-.85.64-.33.13-.7.19-1.11.19-.33,0-.63-.04-.91-.12-.28-.08-.53-.21-.75-.39-.22-.18-.41-.42-.56-.71-.16-.29-.28-.65-.36-1.07-.08-.42-.12-.91-.12-1.47v-1.3c0-.7.06-1.29.19-1.76.13-.47.31-.85.54-1.14.23-.29.52-.5.84-.62.33-.12.7-.19,1.11-.19.33,0,.64.04.91.12.28.08.53.21.75.38.22.17.4.4.56.69.16.29.28.64.36,1.05.08.41.12.9.12,1.46Zm-1.09,1.48v-1.66c0-.38-.02-.72-.07-1.01-.04-.29-.11-.54-.19-.75-.09-.21-.2-.38-.33-.5-.13-.13-.28-.22-.45-.28-.17-.06-.36-.09-.57-.09-.26,0-.49.05-.69.15-.2.09-.37.24-.5.45-.13.21-.23.48-.3.82-.07.34-.11.74-.11,1.22v1.66c0,.38.02.72.06,1.01.05.29.12.55.21.76.09.21.2.39.33.52.13.14.28.24.45.3.17.06.36.09.57.09.27,0,.5-.05.7-.15.2-.1.37-.26.5-.47.14-.22.24-.5.3-.84.07-.34.1-.75.1-1.23Zm3.59,2.18v.87c0,.36-.09.73-.27,1.12-.18.4-.43.73-.76,1l-.62-.43c.12-.17.23-.35.32-.53.09-.18.15-.36.19-.55.05-.19.07-.39.07-.6v-.89h1.06Zm6.62-3.66v1.3c0,.7-.06,1.29-.19,1.77-.12.48-.3.87-.54,1.16s-.52.51-.85.64c-.33.13-.7.19-1.11.19-.33,0-.63-.04-.91-.12-.28-.08-.53-.21-.75-.39-.22-.18-.41-.42-.56-.71-.16-.29-.28-.65-.36-1.07-.08-.42-.12-.91-.12-1.47v-1.3c0-.7.06-1.29.19-1.76.13-.47.31-.85.54-1.14.23-.29.52-.5.84-.62.33-.12.7-.19,1.11-.19.33,0,.64.04.91.12.28.08.53.21.75.38.22.17.4.4.56.69.16.29.28.64.36,1.05s.12.9.12,1.46Zm-1.09,1.48v-1.66c0-.38-.02-.72-.07-1.01-.04-.29-.11-.54-.19-.75-.09-.21-.2-.38-.33-.5-.13-.13-.28-.22-.45-.28-.17-.06-.36-.09-.57-.09-.26,0-.49.05-.69.15-.2.09-.37.24-.5.45-.13.21-.23.48-.3.82-.07.34-.11.74-.11,1.22v1.66c0,.38.02.72.06,1.01.05.29.12.55.21.76.09.21.2.39.33.52.13.14.28.24.45.3.17.06.36.09.57.09.27,0,.5-.05.7-.15.2-.1.37-.26.5-.47.14-.22.24-.5.3-.84.07-.34.1-.75.1-1.23Zm7.84-1.48v1.3c0,.7-.06,1.29-.19,1.77-.12.48-.3.87-.54,1.16s-.52.51-.85.64c-.33.13-.7.19-1.11.19-.33,0-.63-.04-.91-.12-.28-.08-.53-.21-.75-.39-.22-.18-.41-.42-.56-.71-.16-.29-.28-.65-.36-1.07-.08-.42-.12-.91-.12-1.47v-1.3c0-.7.06-1.29.19-1.76.13-.47.31-.85.54-1.14.23-.29.52-.5.84-.62.33-.12.7-.19,1.11-.19.33,0,.64.04.91.12.28.08.53.21.75.38.22.17.4.4.56.69.16.29.28.64.36,1.05s.12.9.12,1.46Zm-1.09,1.48v-1.66c0-.38-.02-.72-.07-1.01-.04-.29-.11-.54-.19-.75-.09-.21-.2-.38-.33-.5-.13-.13-.28-.22-.45-.28-.17-.06-.36-.09-.57-.09-.26,0-.49.05-.69.15-.2.09-.37.24-.5.45-.13.21-.23.48-.3.82-.07.34-.11.74-.11,1.22v1.66c0,.38.02.72.06,1.01.05.29.12.55.21.76.09.21.2.39.33.52.13.14.28.24.45.3.17.06.36.09.57.09.27,0,.5-.05.7-.15.2-.1.37-.26.5-.47.14-.22.24-.5.3-.84.07-.34.1-.75.1-1.23Z" style="fill:rgba(29,34,41,.6);"/><path d="m44.27,293.98v8.58h-1.08v-7.23l-2.19.8v-.98l3.1-1.17h.17Zm8.54,3.63v1.3c0,.7-.06,1.29-.19,1.77-.12.48-.3.87-.54,1.16-.23.29-.52.51-.85.64-.33.13-.7.19-1.11.19-.33,0-.63-.04-.91-.12-.28-.08-.53-.21-.75-.39-.22-.18-.41-.42-.56-.71-.16-.29-.28-.65-.36-1.07-.08-.42-.12-.91-.12-1.46v-1.3c0-.7.06-1.29.19-1.76.13-.47.31-.85.54-1.14.23-.29.52-.5.84-.62.33-.12.7-.19,1.11-.19.33,0,.64.04.91.12.28.08.53.21.75.38.22.17.4.4.56.69.16.29.28.64.36,1.05.08.41.12.9.12,1.46Zm-1.09,1.48v-1.66c0-.38-.02-.72-.07-1.01-.04-.29-.11-.54-.19-.75-.09-.21-.2-.38-.33-.5-.13-.13-.28-.22-.45-.28-.17-.06-.36-.09-.57-.09-.26,0-.49.05-.69.15-.2.09-.37.25-.5.45-.13.21-.23.48-.3.81-.07.34-.11.74-.11,1.23v1.66c0,.38.02.72.06,1.01.05.29.12.55.21.76.09.21.2.39.33.52.13.14.28.24.45.3.17.06.36.09.57.09.27,0,.5-.05.7-.15.2-.1.37-.26.5-.48.14-.22.24-.5.3-.84.07-.34.1-.75.1-1.23Zm7.84-1.48v1.3c0,.7-.06,1.29-.19,1.77-.12.48-.3.87-.54,1.16-.23.29-.52.51-.85.64-.33.13-.7.19-1.11.19-.33,0-.63-.04-.91-.12-.28-.08-.53-.21-.75-.39-.22-.18-.41-.42-.56-.71-.16-.29-.28-.65-.36-1.07-.08-.42-.12-.91-.12-1.46v-1.3c0-.7.06-1.29.19-1.76.13-.47.31-.85.54-1.14.23-.29.52-.5.84-.62.33-.12.7-.19,1.11-.19.33,0,.64.04.91.12.28.08.53.21.75.38.22.17.4.4.56.69.16.29.28.64.36,1.05.08.41.12.9.12,1.46Zm-1.09,1.48v-1.66c0-.38-.02-.72-.07-1.01-.04-.29-.11-.54-.19-.75-.09-.21-.2-.38-.33-.5-.13-.13-.28-.22-.45-.28-.17-.06-.36-.09-.57-.09-.26,0-.49.05-.69.15-.2.09-.37.25-.5.45-.13.21-.23.48-.3.81-.07.34-.11.74-.11,1.23v1.66c0,.38.02.72.06,1.01.05.29.12.55.21.76.09.21.2.39.33.52.13.14.28.24.45.3.17.06.36.09.57.09.27,0,.5-.05.7-.15.2-.1.37-.26.5-.48.14-.22.24-.5.3-.84.07-.34.1-.75.1-1.23Z" style="fill:rgba(29,34,41,.6);"/><path d="m47.85,391.34l-.87-.22.43-4.25h4.38v1h-3.46l-.26,2.32c.16-.09.35-.17.59-.25.24-.08.52-.12.83-.12.39,0,.75.07,1.06.21.31.13.58.32.8.57.22.25.39.55.51.9.12.35.18.74.18,1.18,0,.41-.06.79-.17,1.13-.11.34-.28.64-.5.9-.22.25-.5.45-.84.59-.34.14-.73.21-1.19.21-.34,0-.67-.05-.98-.14-.3-.1-.58-.24-.82-.44-.24-.2-.43-.45-.59-.74-.15-.3-.24-.64-.28-1.04h1.03c.05.32.14.59.28.81.14.22.32.39.55.5.23.11.5.16.8.16.26,0,.49-.05.69-.14.2-.09.37-.22.5-.39.14-.17.24-.37.31-.61.07-.24.11-.51.11-.8,0-.27-.04-.52-.11-.75-.07-.23-.19-.43-.33-.6-.14-.17-.32-.3-.53-.4-.21-.1-.45-.15-.73-.15-.36,0-.64.05-.83.15-.18.1-.37.23-.57.4Zm10.73-.88v1.3c0,.7-.06,1.29-.19,1.77-.12.48-.3.87-.54,1.16-.23.29-.52.51-.85.64-.33.13-.7.19-1.11.19-.33,0-.63-.04-.91-.12-.28-.08-.53-.21-.75-.39-.22-.18-.41-.42-.56-.71-.16-.29-.28-.65-.36-1.07-.08-.42-.12-.91-.12-1.46v-1.3c0-.7.06-1.29.19-1.76.13-.47.31-.85.54-1.14.23-.29.52-.5.84-.62.33-.12.7-.19,1.11-.19.33,0,.64.04.91.12.28.08.53.21.75.38.22.17.4.4.56.69.16.29.28.63.36,1.05s.12.9.12,1.46Zm-1.09,1.48v-1.66c0-.38-.02-.72-.07-1.01-.04-.29-.11-.54-.19-.75-.09-.21-.2-.38-.33-.5-.13-.13-.28-.22-.45-.28-.17-.06-.36-.09-.57-.09-.26,0-.49.05-.69.15-.2.09-.37.24-.5.45-.13.21-.23.48-.3.81s-.11.74-.11,1.23v1.66c0,.38.02.72.06,1.01.05.29.12.55.21.76.09.21.2.39.33.52.13.14.28.24.45.3.17.06.36.09.57.09.27,0,.5-.05.7-.15.2-.1.37-.26.5-.48.14-.22.24-.5.3-.84.07-.34.1-.75.1-1.23Z" style="fill:rgba(29,34,41,.6);"/><path d="m57.6,483.3v1.3c0,.7-.06,1.29-.19,1.77-.12.48-.3.87-.54,1.16-.23.29-.52.51-.85.64-.33.13-.7.19-1.11.19-.33,0-.63-.04-.91-.12s-.53-.21-.75-.39c-.22-.18-.41-.42-.56-.71-.16-.29-.28-.65-.36-1.07-.08-.42-.12-.91-.12-1.46v-1.3c0-.7.06-1.29.19-1.76.13-.47.31-.85.54-1.14.23-.29.52-.5.84-.62.33-.12.7-.19,1.11-.19.33,0,.64.04.91.12.28.08.53.21.75.38.22.17.4.4.56.69.16.28.28.63.36,1.05.08.41.12.9.12,1.46Zm-1.09,1.48v-1.66c0-.38-.02-.72-.07-1.01-.04-.29-.11-.54-.19-.75-.09-.21-.2-.38-.33-.5-.13-.13-.28-.22-.45-.28-.17-.06-.36-.09-.57-.09-.26,0-.49.05-.69.15-.2.09-.37.24-.5.45-.13.21-.23.48-.3.81-.07.34-.11.74-.11,1.23v1.66c0,.38.02.72.06,1.01.05.29.12.55.21.76.09.21.2.39.33.52.13.14.28.24.45.31.17.06.36.09.57.09.27,0,.5-.05.7-.15.2-.1.37-.26.5-.48.14-.22.24-.5.3-.84.07-.34.1-.75.1-1.23Z" style="fill:rgba(29,34,41,.6);"/><path d="m159.04,510.86h1.12c-.06.54-.21,1.02-.46,1.45-.25.43-.6.76-1.06,1.01-.46.25-1.03.37-1.71.37-.5,0-.96-.09-1.36-.28-.41-.19-.76-.45-1.05-.8-.29-.35-.52-.76-.68-1.25-.16-.49-.23-1.03-.23-1.63v-.85c0-.6.08-1.14.23-1.62.16-.49.39-.91.69-1.25.3-.35.66-.62,1.08-.8.42-.19.9-.28,1.42-.28.65,0,1.19.12,1.64.36.44.24.79.58,1.04,1.01.25.43.4.92.46,1.48h-1.12c-.06-.4-.16-.74-.31-1.02-.15-.29-.36-.51-.63-.67-.27-.16-.63-.23-1.07-.23-.38,0-.71.07-1,.22-.28.15-.52.35-.72.62-.19.27-.34.58-.43.96-.1.37-.15.78-.15,1.24v.86c0,.42.04.81.13,1.18.09.37.22.69.4.97.18.28.41.5.68.66.28.16.61.23.99.23.48,0,.86-.08,1.15-.23.28-.15.5-.37.64-.66.15-.29.25-.63.32-1.03Zm6.38,1.25v-4.88h1.09v6.34h-1.04l-.05-1.46Zm.21-1.34h.45c0,.41-.05.8-.13,1.16-.09.36-.23.67-.42.93-.2.26-.45.47-.77.61-.32.15-.7.22-1.15.22-.31,0-.59-.04-.85-.13-.25-.09-.47-.23-.66-.42-.18-.19-.33-.43-.43-.73-.1-.3-.15-.66-.15-1.08v-4.09h1.08v4.1c0,.29.03.52.09.71.07.18.15.33.26.44.11.11.24.18.38.22.14.04.29.06.43.06.46,0,.83-.09,1.09-.26.27-.18.46-.42.58-.72.12-.31.18-.64.18-1.01Zm3.61-2.28v5.08h-1.09v-6.34h1.03l.06,1.26Zm-.22,1.67l-.5-.02c0-.43.06-.83.17-1.2.11-.37.27-.69.49-.97.21-.27.48-.48.8-.63.32-.15.69-.23,1.11-.23.3,0,.57.04.82.13.25.08.47.21.65.39.18.18.33.41.43.69.1.28.15.62.15,1.02v4.22h-1.08v-4.17c0-.33-.06-.6-.17-.8-.11-.2-.27-.34-.47-.43-.2-.09-.44-.14-.71-.14-.32,0-.59.06-.8.17-.22.11-.39.27-.52.47s-.22.43-.28.68c-.05.25-.08.52-.08.81Zm4.11-.6l-.73.22c0-.35.06-.68.17-1,.11-.32.28-.61.49-.86.22-.25.48-.45.79-.59.31-.15.67-.22,1.07-.22.34,0,.64.05.9.14.27.09.49.23.67.42.18.18.32.42.42.71.09.29.14.63.14,1.03v4.17h-1.09v-4.18c0-.35-.06-.63-.17-.83-.11-.2-.26-.34-.47-.42-.2-.08-.44-.12-.71-.12-.24,0-.45.04-.63.12-.18.08-.34.2-.46.34-.12.14-.22.3-.29.49-.06.18-.09.38-.09.59Zm9.3,2.92v-3.26c0-.25-.05-.47-.15-.65-.1-.19-.25-.33-.45-.43-.2-.1-.45-.15-.74-.15-.27,0-.51.05-.72.14-.2.09-.36.22-.48.37-.11.15-.17.32-.17.49h-1.08c0-.23.06-.45.18-.67.12-.22.29-.42.5-.6.22-.18.49-.33.8-.43.31-.11.66-.16,1.04-.16.46,0,.87.08,1.22.23.36.16.63.39.83.71.2.31.3.71.3,1.18v2.95c0,.21.02.44.05.67.04.24.09.44.17.61v.09h-1.13c-.05-.12-.1-.29-.13-.5-.03-.21-.05-.41-.05-.59Zm.19-2.76v.76s-1.08,0-1.08,0c-.31,0-.58.02-.83.08-.24.05-.45.12-.61.22s-.29.22-.38.37c-.09.15-.13.32-.13.51s.04.38.13.54c.09.16.22.3.4.39.18.09.41.14.67.14.33,0,.62-.07.88-.21s.46-.31.6-.52c.15-.2.24-.4.25-.59l.46.52c-.03.16-.1.35-.22.54-.12.2-.28.39-.49.57-.2.18-.44.33-.72.45-.27.12-.58.18-.92.18-.43,0-.81-.08-1.13-.25-.32-.17-.57-.39-.75-.67-.18-.29-.26-.6-.26-.96s.07-.64.2-.9c.13-.26.33-.48.58-.65.25-.18.55-.31.9-.4.35-.09.74-.13,1.18-.13h1.26Zm3.69-1.5v5.34h-1.08v-6.34h1.06l.03,1Zm1.98-1.03v1.01c-.1-.02-.18-.03-.26-.04-.08,0-.17-.01-.27-.01-.25,0-.47.04-.66.12-.19.08-.35.19-.49.33-.13.14-.24.31-.32.5-.07.19-.12.4-.15.63l-.3.18c0-.38.04-.74.11-1.08.08-.34.2-.63.36-.89.16-.26.36-.46.61-.61.25-.15.55-.22.89-.22.08,0,.17.01.27.03.1.02.17.03.21.05Zm3.95.04v.83h-3.43v-.83h3.43Zm-2.27-1.54h1.08v6.31c0,.21.03.38.1.49.07.11.15.18.26.22.11.03.22.05.34.05.09,0,.18,0,.28-.02.1-.02.18-.04.23-.05v.88c-.08.03-.19.05-.33.08-.14.03-.3.04-.5.04-.27,0-.51-.05-.73-.16-.22-.11-.4-.28-.53-.53-.13-.25-.19-.59-.19-1.01v-6.31Zm6.17,8c-.44,0-.84-.07-1.2-.22-.36-.15-.66-.37-.92-.64-.25-.27-.45-.6-.59-.97s-.21-.79-.21-1.23v-.25c0-.52.08-.98.23-1.38.15-.41.36-.75.62-1.03.26-.28.56-.49.89-.64.33-.15.68-.22,1.03-.22.45,0,.84.08,1.17.23.33.16.6.38.81.66.21.28.37.61.47.98.1.38.15.79.15,1.23v.49h-4.74v-.89h3.65v-.08c-.02-.28-.07-.55-.18-.82-.1-.27-.25-.48-.47-.66-.22-.17-.51-.26-.88-.26-.25,0-.47.05-.68.16-.21.1-.38.25-.53.46-.15.2-.26.45-.35.74s-.12.63-.12,1.01v.25c0,.3.04.58.12.85.09.26.21.49.37.69.16.2.36.35.59.47.23.11.5.17.8.17.38,0,.71-.08.97-.23.27-.16.5-.36.7-.63l.66.52c-.14.21-.31.4-.52.59-.21.19-.47.34-.78.46-.3.12-.67.18-1.08.18Zm7.42-1.8c0-.16-.03-.3-.11-.43-.07-.14-.2-.26-.42-.37-.21-.11-.52-.21-.94-.29-.35-.07-.67-.16-.96-.26-.28-.1-.52-.23-.72-.37-.2-.14-.35-.32-.45-.51-.11-.19-.16-.42-.16-.68s.05-.49.16-.71c.11-.22.27-.42.47-.59.21-.17.46-.31.75-.4.29-.1.61-.15.97-.15.51,0,.94.09,1.3.27.36.18.63.42.83.72.19.3.29.63.29.99h-1.08c0-.18-.05-.35-.16-.51-.1-.17-.25-.31-.45-.42-.2-.11-.44-.16-.72-.16-.3,0-.55.05-.73.14-.18.09-.32.2-.4.35-.08.14-.12.29-.12.44,0,.12.02.22.06.32.04.09.12.17.22.25.11.07.25.14.45.21.19.07.44.13.73.2.52.12.95.26,1.28.42.34.16.59.37.75.6.16.24.25.53.25.87,0,.28-.06.53-.18.76-.11.23-.28.43-.5.6-.21.16-.47.29-.77.39-.3.09-.63.13-1,.13-.56,0-1.03-.1-1.42-.3-.39-.2-.68-.46-.88-.77-.2-.32-.3-.65-.3-1h1.09c.01.3.1.53.26.71.16.17.35.3.57.37.23.07.45.11.67.11.3,0,.54-.04.74-.12.2-.08.36-.18.46-.32.1-.14.16-.29.16-.47Zm3.68-4.66v6.34h-1.09v-6.34h1.09Zm-1.17-1.68c0-.18.05-.33.16-.45.11-.12.27-.18.48-.18s.36.06.47.18c.11.12.17.27.17.45s-.06.31-.17.43c-.11.12-.27.18-.47.18s-.37-.06-.48-.18c-.11-.12-.16-.26-.16-.43Z" style="fill:rgba(29,34,41,.6);"/><path d="m356.32,271.85c-16.2,0-67.24,33.21-89.06,33.21s-52.3,93.84-81.29,93.84-66.94-99.62-86.37-99.62-37.36,46.2-37.36,46.2v146.54h585.76v-215.84c-16.19,0-27.83-31.04-43.63-31.04s-62.46,139.32-83.38,139.32-47.39-107.89-71.65-79.41c-24.27,28.49-76.82-33.21-93.02-33.21Z" style="fill:url(#Adsız_degrade_2);"/><path d="m648,276.23c-16.19,0-27.83-31.1-43.63-31.1s-62.46,139.57-83.38,139.57-45.79-108.48-68.72-79.55c-22.93,28.93-79.76-33.27-95.95-33.27s-67.24,33.27-89.06,33.27-52.3,94.01-81.29,94.01-66.94-99.8-86.37-99.8-37.36,46.28-37.36,46.28" style="fill:none; stroke:#432774; stroke-width:2px;"/><path d="m429.7,33.56v11.44h-1.45v-9.63l-2.91,1.06v-1.3l4.13-1.56h.23Zm12.05,4.95v1.23h-6.16v-1.23h6.16Zm-5.92-4.89v11.38h-1.51v-11.38h1.51Zm7.23,0v11.38h-1.5v-11.38h1.5Z" style="fill:#e94f3d;"/><path d="m393.7,33.56v11.44h-1.45v-9.63l-2.91,1.06v-1.3l4.13-1.56h.23Zm13.03,5.77v4.16c-.14.21-.36.44-.67.7-.31.26-.73.48-1.27.67-.54.19-1.23.28-2.08.28-.69,0-1.33-.12-1.91-.36-.58-.24-1.08-.6-1.51-1.06-.42-.47-.75-1.04-.98-1.7-.23-.67-.34-1.43-.34-2.28v-.88c0-.85.1-1.61.3-2.27.2-.67.5-1.23.89-1.7.39-.47.87-.82,1.44-1.06.57-.24,1.22-.37,1.95-.37.87,0,1.6.15,2.18.45.59.3,1.05.71,1.38,1.23.33.53.55,1.12.64,1.8h-1.51c-.07-.41-.2-.79-.41-1.12-.2-.34-.48-.61-.85-.81-.37-.21-.85-.31-1.43-.31-.53,0-.98.1-1.37.29s-.7.47-.95.83c-.25.36-.44.79-.56,1.3-.12.51-.18,1.09-.18,1.73v.9c0,.66.08,1.24.23,1.76.16.52.38.96.66,1.32.29.36.63.63,1.02.82.4.19.84.28,1.33.28.54,0,.97-.04,1.3-.13.33-.09.59-.2.78-.33.19-.13.33-.25.43-.37v-2.55h-2.63v-1.22h4.13Z" style="fill:#1d2229;"/><path d="m466.7,33.56v11.44h-1.45v-9.63l-2.91,1.06v-1.3l4.13-1.56h.23Zm8.84,1.07l-3.77,10.37h-1.54l4.34-11.38h.99l-.02,1.01Zm3.16,10.37l-3.77-10.37-.02-1.01h.99l4.35,11.38h-1.55Zm-.2-4.21v1.23h-6.39v-1.23h6.39Z" style="fill:#1d2229;"/><path d="m503.49,33.61h.12v1.23h-.12c-.77,0-1.41.12-1.92.38-.52.24-.92.58-1.23.99-.3.41-.52.88-.66,1.39-.13.52-.2,1.04-.2,1.57v1.67c0,.51.06.95.18,1.34.12.39.28.71.49.98.21.27.44.47.7.6.27.14.54.2.83.2.33,0,.63-.06.89-.19.26-.13.48-.31.66-.54.18-.23.32-.51.41-.83.09-.32.14-.67.14-1.05,0-.34-.04-.66-.12-.98-.08-.32-.21-.6-.38-.84-.17-.25-.39-.45-.65-.59-.26-.15-.56-.22-.91-.22-.4,0-.78.1-1.12.3-.34.19-.63.45-.85.77-.22.31-.34.65-.38,1.02h-.77c.07-.59.21-1.09.41-1.5.2-.42.45-.76.75-1.02.3-.27.64-.46,1.01-.58.38-.12.77-.19,1.19-.19.57,0,1.06.11,1.47.32.41.21.75.5,1.02.86.27.35.46.76.59,1.2.13.44.2.9.2,1.37,0,.54-.08,1.04-.23,1.51-.15.47-.38.88-.68,1.23-.3.35-.66.63-1.1.83-.44.2-.95.3-1.52.3-.61,0-1.15-.12-1.61-.38-.46-.26-.84-.59-1.14-1.02-.3-.42-.53-.89-.68-1.41-.15-.52-.23-1.04-.23-1.57v-.68c0-.8.08-1.59.24-2.36.16-.77.44-1.47.84-2.09.4-.62.96-1.12,1.66-1.49.71-.37,1.61-.55,2.71-.55Zm8.04,1.02l-3.77,10.37h-1.54l4.34-11.38h.99l-.02,1.01Zm3.16,10.37l-3.77-10.37-.02-1.01h.99l4.35,11.38h-1.55Zm-.2-4.21v1.23h-6.39v-1.23h6.39Z" style="fill:#1d2229;"/><path d="m538.7,33.56v11.44h-1.45v-9.63l-2.91,1.06v-1.3l4.13-1.56h.23Zm5.15.06l2.95,5.71,2.96-5.71h1.71l-3.92,7.12v4.25h-1.51v-4.25l-3.92-7.12h1.73Z" style="fill:#1d2229;"/><path d="m570.77,39.59l-1.16-.3.57-5.66h5.84v1.34h-4.61l-.34,3.09c.21-.12.47-.23.79-.34.32-.1.69-.16,1.11-.16.53,0,1,.09,1.41.27.42.18.77.43,1.06.77.3.33.52.73.68,1.2.16.47.23.99.23,1.57,0,.55-.08,1.05-.23,1.51-.15.46-.37.86-.66,1.2-.3.34-.67.6-1.12.79-.45.19-.98.28-1.59.28-.46,0-.89-.06-1.3-.19-.41-.13-.77-.33-1.09-.59-.32-.27-.58-.59-.78-.98-.2-.4-.32-.86-.38-1.39h1.38c.06.43.19.79.38,1.08.19.29.43.51.73.66.31.15.66.22,1.07.22.34,0,.65-.06.91-.18s.49-.29.67-.52c.18-.22.32-.49.41-.81.1-.32.15-.67.15-1.07,0-.36-.05-.69-.15-1-.1-.31-.25-.58-.45-.8-.19-.23-.43-.41-.71-.53-.28-.13-.6-.2-.97-.2-.48,0-.85.07-1.1.2-.24.13-.5.31-.76.53Zm8.07-5.96l2.95,5.71,2.96-5.71h1.71l-3.92,7.12v4.25h-1.51v-4.25l-3.92-7.12h1.73Z" style="fill:#1d2229;"/><path d="m604.8,33.62h1.46l3.73,9.27,3.72-9.27h1.47l-4.62,11.38h-1.14l-4.61-11.38Zm-.48,0h1.29l.21,6.94v4.44h-1.5v-11.38Zm10.03,0h1.29v11.38h-1.5v-4.44l.21-6.94Zm8.29,1.01l-3.77,10.37h-1.54l4.34-11.38h.99l-.02,1.01Zm3.16,10.37l-3.77-10.37-.02-1.01h.99l4.35,11.38h-1.55Zm-.2-4.21v1.23h-6.39v-1.23h6.39Zm4.77-7.16v11.38h-1.51v-11.38h1.51Zm6.87,0l-4.73,5.3-2.66,2.76-.25-1.61,2-2.2,3.82-4.25h1.81Zm-1.45,11.38l-4.21-5.55.9-1.2,5.11,6.74h-1.8Zm9.19-2.88c0-.27-.04-.5-.12-.7-.08-.21-.22-.4-.42-.56-.2-.17-.47-.33-.83-.48-.35-.15-.79-.3-1.33-.46-.56-.17-1.07-.35-1.52-.55-.45-.21-.84-.45-1.16-.71-.32-.27-.57-.57-.74-.91-.17-.34-.26-.74-.26-1.18s.09-.85.27-1.23c.18-.38.44-.7.78-.98.34-.28.75-.5,1.23-.66.47-.16,1-.23,1.59-.23.85,0,1.58.16,2.17.49.6.32,1.05.75,1.37,1.27.31.52.47,1.08.47,1.67h-1.5c0-.43-.09-.8-.27-1.13-.18-.33-.46-.59-.83-.78-.37-.19-.84-.29-1.41-.29-.54,0-.98.08-1.33.24-.35.16-.61.38-.78.66-.17.28-.25.59-.25.95,0,.24.05.46.15.66.1.19.26.37.48.54.22.17.49.32.83.46.34.14.74.28,1.21.41.65.18,1.2.39,1.67.61.47.22.85.48,1.16.76.31.28.53.59.68.95.15.35.23.74.23,1.19s-.09.88-.28,1.26c-.19.38-.46.7-.8.96-.35.27-.77.47-1.26.62-.48.14-1.03.21-1.62.21-.53,0-1.04-.07-1.55-.22-.51-.15-.97-.36-1.38-.66-.41-.29-.74-.65-.99-1.08-.24-.43-.37-.93-.37-1.5h1.5c0,.39.08.73.23,1.01.15.28.36.51.62.69.27.18.57.32.9.41.34.08.69.12,1.05.12.53,0,.97-.07,1.34-.22.36-.15.64-.35.83-.62.19-.27.29-.59.29-.96Z" style="fill:#1d2229;"/><path d="m24.25,40.02h-4.32l-.02-1.82h3.93c.65,0,1.21-.11,1.7-.33.48-.22.86-.53,1.12-.94.27-.41.41-.91.41-1.48,0-.62-.12-1.13-.36-1.52-.23-.4-.6-.69-1.09-.87-.48-.19-1.1-.28-1.85-.28h-3.33v15.21h-2.26v-17.06h5.59c.88,0,1.66.09,2.34.27.69.17,1.27.45,1.75.82.48.37.85.84,1.1,1.41.25.57.38,1.25.38,2.05,0,.7-.18,1.34-.54,1.91-.36.56-.86,1.02-1.5,1.38-.63.36-1.38.59-2.23.69l-.81.55Zm-.11,7.98h-5.11l1.28-1.84h3.83c.72,0,1.33-.12,1.83-.38.51-.25.89-.6,1.16-1.05.27-.46.4-1,.4-1.63s-.11-1.18-.34-1.64c-.23-.46-.58-.82-1.07-1.07s-1.11-.38-1.88-.38h-3.22l.02-1.82h4.41l.48.66c.82.07,1.52.3,2.09.7.57.39,1,.89,1.3,1.5.3.61.46,1.28.46,2.02,0,1.06-.23,1.96-.7,2.7-.46.73-1.11,1.28-1.96,1.66-.84.38-1.84.56-2.98.56Zm15.2-17.06v17.06h-2.23v-17.06h2.23Zm5.48,0v1.85h-13.18v-1.85h13.18Zm12.75,11.64h2.25c-.12,1.08-.43,2.04-.93,2.89-.5.85-1.21,1.53-2.12,2.03-.91.49-2.05.74-3.42.74-1,0-1.91-.19-2.73-.56-.81-.38-1.51-.91-2.1-1.59-.59-.7-1.04-1.53-1.36-2.5-.31-.98-.47-2.06-.47-3.26v-1.7c0-1.2.16-2.28.47-3.25.32-.98.78-1.81,1.37-2.51.6-.7,1.32-1.23,2.17-1.61.84-.38,1.79-.56,2.85-.56,1.29,0,2.38.24,3.27.73.89.48,1.58,1.16,2.07,2.02.5.85.81,1.84.93,2.96h-2.25c-.11-.8-.31-1.48-.61-2.05-.3-.58-.72-1.02-1.27-1.34-.55-.31-1.26-.47-2.14-.47-.76,0-1.43.14-2,.43-.57.29-1.05.7-1.44,1.23-.38.53-.67,1.17-.87,1.91-.2.74-.29,1.57-.29,2.47v1.72c0,.84.09,1.62.26,2.36.18.73.45,1.38.81,1.93.36.55.82.99,1.37,1.31.55.31,1.21.47,1.97.47.96,0,1.73-.15,2.3-.46s1-.74,1.29-1.31c.3-.57.51-1.25.63-2.05Zm12.8-11.64l-7.11,18.53h-1.86l7.13-18.53h1.85Zm9.25,0v17.06h-2.23v-17.06h2.23Zm5.48,0v1.85h-13.18v-1.85h13.18Zm2.78,0h5.65c1.28,0,2.36.2,3.25.59.89.39,1.57.97,2.03,1.73.47.76.7,1.69.7,2.8,0,.78-.16,1.5-.48,2.14-.31.64-.77,1.19-1.36,1.64-.59.45-1.29.78-2.11,1l-.63.25h-5.31l-.02-1.84h4.01c.81,0,1.49-.14,2.03-.42.54-.29.95-.68,1.22-1.16.27-.48.41-1.02.41-1.61,0-.66-.13-1.23-.39-1.72-.26-.49-.66-.87-1.22-1.14-.55-.27-1.25-.41-2.12-.41h-3.39v15.21h-2.26v-17.06Zm9.97,17.06l-4.15-7.73h2.36s4.21,7.59,4.21,7.59v.14h-2.41Zm5.29-17.06l4.43,8.57,4.44-8.57h2.57l-5.88,10.69v6.38h-2.26v-6.38l-5.88-10.69h2.59Z" style="fill:#1d2229;"/><ellipse cx="354.67" cy="270.93" rx="4.82" ry="5.02" style="fill:#432774;"/><rect x="314" y="222" width="81" height="36" rx="4" ry="4" style="fill:rgba(98,98,97,.9);"/><path d="m334.18,226.99v10.01h-1.27v-8.43l-2.55.93v-1.14l3.62-1.37h.2Zm10.07,4.24v1.52c0,.82-.07,1.5-.22,2.06-.15.56-.36,1.01-.63,1.35-.27.34-.6.59-.99.74-.38.15-.82.23-1.3.23-.38,0-.74-.05-1.06-.14-.32-.1-.61-.25-.88-.46-.26-.21-.47-.49-.66-.83-.18-.34-.32-.76-.42-1.24s-.14-1.06-.14-1.71v-1.52c0-.82.07-1.5.22-2.05.15-.55.36-.99.64-1.33.27-.34.6-.58.98-.73.39-.15.82-.22,1.3-.22.39,0,.74.05,1.07.14.33.09.62.24.88.44.26.2.47.47.65.81.18.33.32.74.42,1.22.1.48.14,1.05.14,1.7Zm-1.27,1.72v-1.93c0-.45-.03-.84-.08-1.18-.05-.34-.13-.63-.23-.88-.1-.24-.23-.44-.38-.59-.15-.15-.33-.26-.53-.33-.2-.07-.42-.11-.66-.11-.3,0-.57.06-.8.17-.23.11-.43.28-.59.53-.15.24-.27.56-.35.95s-.12.87-.12,1.43v1.93c0,.45.03.84.08,1.18.05.34.13.64.24.89.11.25.23.45.38.61.15.16.32.28.52.36.2.07.42.11.66.11.31,0,.58-.06.81-.18.23-.12.43-.3.58-.55.16-.26.28-.58.36-.98.08-.4.12-.88.12-1.44Zm9.25-1.72v1.52c0,.82-.07,1.5-.22,2.06-.15.56-.36,1.01-.63,1.35-.27.34-.6.59-.99.74-.38.15-.82.23-1.3.23-.38,0-.74-.05-1.06-.14-.32-.1-.61-.25-.88-.46-.26-.21-.47-.49-.66-.83-.18-.34-.32-.76-.42-1.24s-.14-1.06-.14-1.71v-1.52c0-.82.07-1.5.22-2.05.15-.55.36-.99.64-1.33.27-.34.6-.58.98-.73.39-.15.82-.22,1.3-.22.39,0,.74.05,1.07.14.33.09.62.24.88.44.26.2.47.47.65.81.18.33.32.74.42,1.22.1.48.14,1.05.14,1.7Zm-1.27,1.72v-1.93c0-.45-.03-.84-.08-1.18-.05-.34-.13-.63-.23-.88-.1-.24-.23-.44-.38-.59-.15-.15-.32-.26-.53-.33-.2-.07-.42-.11-.66-.11-.3,0-.57.06-.8.17-.23.11-.43.28-.59.53-.15.24-.27.56-.35.95s-.12.87-.12,1.43v1.93c0,.45.02.84.08,1.18.05.34.13.64.24.89.11.25.23.45.38.61.15.16.32.28.52.36.2.07.42.11.66.11.31,0,.58-.06.81-.18.23-.12.43-.3.58-.55.16-.26.28-.58.36-.98.08-.4.12-.88.12-1.44Zm4.28,2.54v1.02c0,.41-.1.85-.31,1.31-.21.47-.5.85-.88,1.16l-.72-.5c.15-.2.27-.4.37-.62.1-.21.17-.42.22-.64.06-.22.08-.45.08-.7v-1.04h1.24Zm7.83-4.27v1.52c0,.82-.07,1.5-.22,2.06-.15.56-.36,1.01-.63,1.35-.27.34-.6.59-.99.74-.38.15-.82.23-1.3.23-.38,0-.74-.05-1.06-.14-.32-.1-.62-.25-.88-.46-.26-.21-.47-.49-.66-.83-.18-.34-.32-.76-.42-1.24-.1-.49-.14-1.06-.14-1.71v-1.52c0-.82.07-1.5.22-2.05.15-.55.36-.99.64-1.33.27-.34.6-.58.98-.73.39-.15.82-.22,1.3-.22.39,0,.74.05,1.07.14.33.09.62.24.88.44.26.2.47.47.65.81.18.33.32.74.42,1.22.1.48.14,1.05.14,1.7Zm-1.27,1.72v-1.93c0-.45-.03-.84-.08-1.18-.05-.34-.13-.63-.23-.88-.1-.24-.23-.44-.38-.59-.15-.15-.33-.26-.53-.33-.2-.07-.42-.11-.66-.11-.3,0-.57.06-.8.17-.23.11-.43.28-.59.53-.15.24-.27.56-.36.95-.08.39-.12.87-.12,1.43v1.93c0,.45.03.84.08,1.18.05.34.13.64.24.89.11.25.23.45.38.61.15.16.32.28.52.36.2.07.42.11.66.11.31,0,.58-.06.81-.18.23-.12.43-.3.58-.55.16-.26.28-.58.36-.98.08-.4.12-.88.12-1.44Zm9.25-1.72v1.52c0,.82-.07,1.5-.22,2.06-.15.56-.36,1.01-.63,1.35-.27.34-.6.59-.99.74-.38.15-.82.23-1.3.23-.38,0-.74-.05-1.06-.14-.32-.1-.62-.25-.88-.46-.26-.21-.47-.49-.66-.83-.18-.34-.32-.76-.42-1.24-.1-.49-.14-1.06-.14-1.71v-1.52c0-.82.07-1.5.22-2.05.15-.55.36-.99.64-1.33.27-.34.6-.58.98-.73.39-.15.82-.22,1.3-.22.39,0,.74.05,1.07.14.33.09.62.24.88.44.25.2.47.47.65.81.18.33.32.74.42,1.22.1.48.14,1.05.14,1.7Zm-1.27,1.72v-1.93c0-.45-.03-.84-.08-1.18-.05-.34-.13-.63-.23-.88-.1-.24-.23-.44-.38-.59-.15-.15-.33-.26-.53-.33-.2-.07-.42-.11-.66-.11-.3,0-.57.06-.8.17-.23.11-.43.28-.59.53-.15.24-.27.56-.36.95-.08.39-.12.87-.12,1.43v1.93c0,.45.03.84.08,1.18.05.34.13.64.24.89.11.25.23.45.38.61.15.16.32.28.52.36.2.07.42.11.66.11.31,0,.58-.06.81-.18.23-.12.43-.3.58-.55.16-.26.28-.58.36-.98.08-.4.12-.88.12-1.44Zm9.25-1.72v1.52c0,.82-.07,1.5-.22,2.06-.15.56-.35,1.01-.63,1.35-.27.34-.6.59-.99.74-.38.15-.82.23-1.3.23-.38,0-.74-.05-1.06-.14-.32-.1-.61-.25-.88-.46-.26-.21-.47-.49-.66-.83-.18-.34-.32-.76-.42-1.24-.1-.49-.14-1.06-.14-1.71v-1.52c0-.82.07-1.5.22-2.05.15-.55.36-.99.64-1.33.27-.34.6-.58.98-.73.39-.15.82-.22,1.3-.22.39,0,.74.05,1.07.14.33.09.62.24.88.44.26.2.47.47.65.81.18.33.32.74.42,1.22.1.48.14,1.05.14,1.7Zm-1.27,1.72v-1.93c0-.45-.03-.84-.08-1.18-.05-.34-.13-.63-.23-.88-.1-.24-.23-.44-.38-.59-.15-.15-.33-.26-.53-.33-.2-.07-.42-.11-.66-.11-.3,0-.57.06-.8.17-.23.11-.43.28-.59.53-.15.24-.27.56-.36.95-.08.39-.12.87-.12,1.43v1.93c0,.45.03.84.08,1.18.05.34.13.64.24.89.1.25.23.45.38.61.15.16.32.28.52.36.2.07.42.11.66.11.31,0,.58-.06.81-.18.23-.12.43-.3.58-.55.16-.26.28-.58.36-.98.08-.4.12-.88.12-1.44Zm-51.37,10.47v8.58h-1.08v-7.23l-2.18.8v-.98l3.1-1.17h.17Zm8.88,7.69v.89h-5.58v-.78l2.8-3.11c.34-.38.61-.71.8-.97.19-.27.32-.51.4-.72.08-.21.12-.43.12-.66,0-.28-.06-.53-.18-.76-.11-.23-.28-.41-.5-.55-.22-.14-.49-.21-.81-.21-.38,0-.7.07-.95.22-.25.14-.44.35-.56.61-.12.26-.19.56-.19.9h-1.08c0-.48.11-.92.32-1.32.21-.4.52-.72.94-.95.41-.24.92-.36,1.53-.36.54,0,1,.1,1.38.29.38.19.68.45.88.8.21.34.31.74.31,1.19,0,.25-.04.5-.13.76-.08.25-.2.51-.35.76-.14.25-.32.5-.51.75-.19.25-.4.49-.61.73l-2.29,2.48h4.28Zm5.15-7.64l-3.56,9.26h-.93l3.56-9.26h.93Zm4.73-.05v8.58h-1.08v-7.23l-2.18.8v-.98l3.1-1.17h.17Zm6.85,0v8.58h-1.08v-7.23l-2.18.8v-.98l3.1-1.17h.17Zm7.18.05l-3.56,9.26h-.93l3.56-9.26h.93Zm6.76,7.64v.89h-5.58v-.78l2.8-3.11c.34-.38.61-.71.8-.97.19-.27.32-.51.4-.72.08-.21.12-.43.12-.66,0-.28-.06-.53-.17-.76-.11-.23-.28-.41-.5-.55-.22-.14-.49-.21-.81-.21-.38,0-.7.07-.95.22-.25.14-.44.35-.56.61-.12.26-.19.56-.19.9h-1.08c0-.48.11-.92.32-1.32.21-.4.52-.72.94-.95.41-.24.92-.36,1.53-.36.54,0,1,.1,1.38.29.38.19.68.45.88.8.21.34.31.74.31,1.19,0,.25-.04.5-.13.76-.08.25-.2.51-.35.76-.14.25-.32.5-.51.75-.19.25-.4.49-.61.73l-2.29,2.48h4.28Zm6.61-4.05v1.3c0,.7-.06,1.29-.19,1.77s-.31.87-.54,1.16c-.23.29-.52.51-.85.64-.33.13-.7.19-1.11.19-.33,0-.63-.04-.91-.12-.28-.08-.53-.21-.75-.39-.22-.18-.41-.42-.56-.72-.16-.29-.27-.65-.36-1.07-.08-.42-.12-.91-.12-1.47v-1.3c0-.7.06-1.28.19-1.76.13-.47.31-.85.55-1.14.23-.29.52-.5.84-.62.33-.12.7-.19,1.11-.19.33,0,.64.04.91.12.28.08.53.2.75.38.22.17.4.4.56.69.16.29.28.64.36,1.05.08.41.12.9.12,1.46Zm-1.09,1.48v-1.66c0-.38-.02-.72-.07-1.01-.04-.29-.11-.54-.19-.75s-.2-.38-.33-.5c-.13-.13-.28-.22-.45-.28-.17-.06-.36-.09-.57-.09-.26,0-.49.05-.68.15-.2.09-.37.24-.5.45-.13.21-.24.48-.31.81-.07.34-.1.75-.1,1.23v1.66c0,.38.02.72.06,1.01.05.29.11.55.2.76.09.21.2.38.33.52.13.14.28.24.45.3.17.06.36.09.57.09.27,0,.5-.05.7-.15.2-.1.37-.26.5-.47.14-.22.24-.5.3-.84.07-.34.1-.75.1-1.23Zm8.17,2.58v.89h-5.58v-.78l2.79-3.11c.34-.38.61-.71.8-.97.19-.27.32-.51.4-.72.08-.21.12-.43.12-.66,0-.28-.06-.53-.17-.76-.11-.23-.28-.41-.5-.55-.22-.14-.49-.21-.81-.21-.38,0-.69.07-.95.22-.25.14-.44.35-.56.61-.12.26-.19.56-.19.9h-1.08c0-.48.11-.92.32-1.32.21-.4.52-.72.94-.95.41-.24.92-.36,1.53-.36.54,0,1,.1,1.38.29.38.19.68.45.88.8.21.34.31.74.31,1.19,0,.25-.04.5-.13.76-.08.25-.2.51-.35.76-.15.25-.32.5-.51.75-.19.25-.4.49-.61.73l-2.29,2.48h4.28Zm6.85,0v.89h-5.58v-.78l2.79-3.11c.34-.38.61-.71.8-.97.19-.27.32-.51.4-.72.08-.21.12-.43.12-.66,0-.28-.06-.53-.18-.76-.11-.23-.28-.41-.5-.55-.22-.14-.49-.21-.81-.21-.38,0-.7.07-.95.22-.25.14-.44.35-.56.61-.12.26-.19.56-.19.9h-1.08c0-.48.1-.92.32-1.32.21-.4.52-.72.94-.95.41-.24.92-.36,1.53-.36.54,0,1,.1,1.38.29.38.19.68.45.88.8.21.34.31.74.31,1.19,0,.25-.04.5-.13.76-.08.25-.2.51-.35.76-.14.25-.32.5-.51.75-.19.25-.4.49-.62.73l-2.29,2.48h4.28Z" style="fill:#fff;"/><path d="m355,262l-2.6-4.5h5.2l-2.6,4.5Z" style="fill:#626261;"/></g></g></svg>