<?xml version="1.0" encoding="UTF-8"?><svg id="katman_2" xmlns="http://www.w3.org/2000/svg" viewBox="0 0 24 24"><g id="katman_1"><g><path d="m12.25,24c6.63-.14,11.88-5.62,11.74-12.25S18.37-.14,11.75,0-.14,5.63,0,12.25s5.62,11.88,12.25,11.74Z" style="fill:#f39321;"/><path d="m17.36,10.4c.2-1.58-1.01-2.4-2.66-2.93l.49-2.14-1.3-.3-.47,2.08c-.34-.08-.69-.15-1.04-.22l.48-2.1-1.3-.3-.49,2.14c-.28-.06-.56-.12-.83-.18h0s-1.8-.42-1.8-.42l-.32,1.39s.97.2.95.21c.53.12.63.47.62.74l-.55,2.44s.08.02.14.04l-.14-.03-.78,3.42c-.06.16-.22.4-.59.32.01.02-.95-.21-.95-.21l-.61,1.5,1.7.39c.32.07.62.15.93.22l-.49,2.16,1.3.3.49-2.14c.36.09.7.17,1.04.25l-.48,2.13,1.3.3.49-2.16c2.22.37,3.88.17,4.53-1.85.53-1.62-.08-2.54-1.26-3.12.84-.21,1.47-.78,1.61-1.94Zm-2.87,4.21c-.37,1.62-3.09.8-3.98.61l.65-2.87c.88.2,3.71.58,3.33,2.26Zm.31-4.18c-.33,1.47-2.61.77-3.34.61l.59-2.6c.73.17,3.1.46,2.75,1.99Z" style="fill:#fff;"/></g></g></svg>