<?xml version="1.0" encoding="UTF-8"?><svg id="katman_2" xmlns="http://www.w3.org/2000/svg" viewBox="0 0 664 546"><g id="katman_1"><g><rect width="664" height="546" rx="8" ry="8" style="fill:none;"/><path d="m386.21,460.33c-7.05,26.48-32.31-24.53-37.37,3.83-1.9,10.66,0,29.08,0,29.08h291.16v-219.64s-11.04-3.59-17.76,0c-3.95,2.11-5.76,5.68-9.62,8.42-8.33,5.93-14.64-.97-22.2,8.42-12.95,16.09-4.73,50.29-14.43,74.23-23.49,57.96-62.26-34.38-93.6,4.59-1.61,2.01-2.44,3.4-4.07,5.36-17.54,21.09-34.89-14.8-51.79,8.42-5.2,7.14-6.07,17.26-11.84,22.19-4.7,4.03-8.02.47-12.95,3.06-5.96,3.12-10.63,3.01-14.43,13.01-4.55,12.01,2.45,25.65-1.11,39.03Z" style="fill:#d21217;"/><path d="m348.84,494v-.77m0,0s-1.9-18.42,0-29.08c5.05-28.36,30.32,22.65,37.37-3.83,3.56-13.38-3.45-27.02,1.11-39.03,3.79-10.01,8.47-9.89,14.43-13.01,4.93-2.59,8.25.96,12.95-3.06,5.76-4.93,6.64-15.05,11.84-22.19,16.9-23.22,34.25,12.67,51.79-8.42,1.63-1.96,2.45-3.35,4.07-5.36,31.34-38.97,70.11,53.37,93.6-4.59,9.7-23.94,1.48-58.14,14.43-74.23,7.55-9.39,13.86-2.49,22.2-8.42,3.86-2.74,5.67-6.31,9.62-8.42,6.71-3.59,17.76,0,17.76,0v219.64h-291.16Z" style="fill:none; stroke:#d21217;"/><path d="m24,494V231s11.11,4.8,18.28,7.04c30.72,9.57,48.37-2.67,79.32,0,28.89,2.49,47.94-18.56,73.84,12.31,2.92,3.48,4.33,6.49,7.31,9.68,13.7,14.65,27.02-21.78,38.38,1.76,11.12,23.03-3.9,65.07,6.95,88.84,10.42,22.84,27.13-16.15,35.82,10.56,4.91,15.09-1.07,35.45,5.12,47.5,4.66,9.07,10.2-.77,14.99,7.92,5.2,9.44,5.82,20.81,7.31,36.06,1.53,15.72,0,41.34,0,41.34H24Z" style="fill:#53ae32; stroke:#53ae32;"/><path d="m630,138h10" style="fill:none; stroke:#f2f2f2;"/><path d="m610.57,139.69c0,.52-.12.96-.36,1.33-.24.36-.56.63-.97.82-.41.19-.86.28-1.38.28s-.97-.09-1.38-.28c-.41-.19-.73-.46-.97-.82-.24-.36-.36-.81-.36-1.33,0-.34.06-.65.19-.93.13-.28.32-.53.56-.74.24-.21.53-.37.85-.49.33-.12.7-.18,1.1-.18.52,0,.99.1,1.4.3.41.2.73.47.97.83.24.35.36.75.36,1.21Zm-1.09-.02c0-.32-.07-.6-.2-.84-.14-.25-.33-.44-.57-.57-.25-.14-.53-.21-.85-.21s-.62.07-.86.21c-.24.14-.42.33-.56.57-.13.24-.2.52-.2.84s.06.61.19.84c.13.23.32.41.56.53.25.12.54.18.87.18s.62-.06.87-.18c.24-.12.43-.3.56-.53.13-.24.2-.52.2-.84Zm.89-3.98c0,.42-.11.79-.33,1.12-.22.33-.52.59-.9.78-.38.19-.81.29-1.29.29s-.92-.1-1.31-.29c-.38-.19-.68-.45-.89-.78-.21-.33-.32-.71-.32-1.12,0-.5.11-.92.32-1.26.22-.35.52-.61.9-.8.38-.18.81-.27,1.29-.27s.92.09,1.3.27c.38.18.68.45.89.8.22.35.33.77.33,1.26Zm-1.08.02c0-.29-.06-.54-.18-.76-.12-.22-.29-.39-.5-.51-.21-.13-.46-.19-.75-.19s-.54.06-.75.18c-.21.12-.38.29-.5.5-.12.22-.18.48-.18.78s.06.55.18.77c.12.22.29.39.5.51.22.12.47.18.75.18s.53-.06.74-.18c.21-.12.38-.29.5-.51.12-.22.18-.48.18-.77Zm8.01,1.35v1.3c0,.7-.06,1.29-.19,1.77s-.3.87-.54,1.16c-.23.29-.52.51-.85.64-.33.13-.7.19-1.11.19-.33,0-.63-.04-.91-.12-.28-.08-.53-.21-.75-.39-.22-.18-.41-.42-.56-.72-.16-.29-.28-.65-.36-1.07-.08-.42-.12-.91-.12-1.47v-1.3c0-.7.06-1.28.19-1.76.13-.47.31-.85.54-1.14.23-.29.52-.5.84-.62.33-.12.7-.19,1.11-.19.33,0,.64.04.91.12.28.08.53.2.75.38.22.17.4.4.56.69.16.29.28.64.36,1.05.08.41.12.9.12,1.46Zm-1.09,1.48v-1.66c0-.38-.02-.72-.07-1.01-.04-.29-.11-.54-.19-.75s-.2-.38-.33-.5c-.13-.13-.28-.22-.45-.28-.17-.06-.36-.09-.57-.09-.26,0-.49.05-.69.15-.2.09-.37.24-.5.45-.13.21-.23.48-.3.81-.07.34-.11.75-.11,1.23v1.66c0,.38.02.72.07,1.01.05.29.12.55.21.76.09.21.2.38.33.52.13.14.28.24.45.3.17.06.36.09.57.09.27,0,.5-.05.7-.15.2-.1.36-.26.5-.47.14-.22.24-.5.3-.84.07-.34.1-.75.1-1.23Zm3.9-5.06v8.53h-1.13v-8.53h1.13Zm5.15,0l-3.55,3.98-1.99,2.07-.19-1.21,1.5-1.65,2.87-3.19h1.36Zm-1.09,8.53l-3.16-4.16.67-.9,3.83,5.06h-1.35Z" style="fill:rgba(29,34,41,.6);"/><path d="m630,227h10" style="fill:none; stroke:#f2f2f2;"/><path d="m609.35,222.46h.09v.92h-.09c-.58,0-1.05.09-1.44.28-.39.18-.69.43-.92.74-.23.31-.39.66-.49,1.04-.1.39-.15.78-.15,1.18v1.25c0,.38.04.71.13,1.01.09.29.21.53.37.73.16.2.33.35.53.45.2.1.41.15.62.15.25,0,.47-.05.67-.14.2-.1.36-.23.49-.4.14-.18.24-.38.31-.62.07-.24.11-.5.11-.78,0-.25-.03-.5-.09-.73-.06-.24-.16-.45-.29-.63-.13-.19-.29-.33-.49-.44-.19-.11-.42-.16-.69-.16-.3,0-.58.07-.84.22-.26.15-.47.34-.64.58-.16.23-.26.49-.28.77h-.57c.05-.44.16-.82.3-1.12.15-.31.34-.57.56-.76.23-.2.48-.34.76-.43.28-.09.58-.14.89-.14.43,0,.79.08,1.1.24.31.16.56.38.76.64.2.27.35.57.44.9.1.33.15.67.15,1.03,0,.4-.06.78-.17,1.13-.11.35-.28.66-.51.92-.22.27-.5.47-.83.62-.33.15-.71.22-1.14.22-.46,0-.86-.09-1.21-.28-.34-.19-.63-.44-.86-.76-.23-.32-.4-.67-.51-1.05-.11-.39-.17-.78-.17-1.18v-.51c0-.6.06-1.19.18-1.77.12-.58.33-1.1.63-1.57.3-.47.72-.84,1.25-1.12.53-.28,1.21-.42,2.03-.42Zm7.95,3.6v1.3c0,.7-.06,1.29-.19,1.77s-.3.87-.54,1.16c-.23.29-.52.51-.85.64-.33.13-.7.19-1.11.19-.33,0-.63-.04-.91-.12-.28-.08-.53-.21-.75-.39-.22-.18-.41-.42-.56-.72-.16-.29-.28-.65-.36-1.07-.08-.42-.12-.91-.12-1.47v-1.3c0-.7.06-1.28.19-1.76.13-.47.31-.85.54-1.14.23-.29.52-.5.84-.62.33-.12.7-.19,1.11-.19.33,0,.64.04.91.12.28.08.53.2.75.38.22.17.4.4.56.69.16.29.28.64.36,1.05.08.41.12.9.12,1.46Zm-1.09,1.48v-1.66c0-.38-.02-.72-.07-1.01-.04-.29-.11-.54-.19-.75s-.2-.38-.33-.5c-.13-.13-.28-.22-.45-.28-.17-.06-.36-.09-.57-.09-.26,0-.49.05-.69.15-.2.09-.37.24-.5.45-.13.21-.23.48-.3.81-.07.34-.11.75-.11,1.23v1.66c0,.38.02.72.07,1.01.05.29.12.55.21.76.09.21.2.38.33.52.13.14.28.24.45.3.17.06.36.09.57.09.27,0,.5-.05.7-.15.2-.1.36-.26.5-.47.14-.22.24-.5.3-.84.07-.34.1-.75.1-1.23Zm3.9-5.06v8.53h-1.13v-8.53h1.13Zm5.15,0l-3.55,3.98-1.99,2.07-.19-1.21,1.5-1.65,2.87-3.19h1.36Zm-1.09,8.53l-3.16-4.16.67-.9,3.83,5.06h-1.35Z" style="fill:rgba(29,34,41,.6);"/><path d="m630,316h10" style="fill:none; stroke:#f2f2f2;"/><path d="m610.96,317.13v.89h-6.16v-.64l3.82-5.91h.89l-.95,1.71-2.53,3.95h4.93Zm-1.19-5.66v8.53h-1.08v-8.53h1.08Zm7.53,3.59v1.3c0,.7-.06,1.29-.19,1.77s-.3.87-.54,1.16c-.23.29-.52.51-.85.64-.33.13-.7.19-1.11.19-.33,0-.63-.04-.91-.12-.28-.08-.53-.21-.75-.39-.22-.18-.41-.42-.56-.71-.16-.29-.28-.65-.36-1.07-.08-.42-.12-.91-.12-1.46v-1.3c0-.7.06-1.29.19-1.76.13-.47.31-.85.54-1.14.23-.29.52-.5.84-.62.33-.12.7-.19,1.11-.19.33,0,.64.04.91.12.28.08.53.2.75.38.22.17.4.4.56.69.16.29.28.64.36,1.05.08.41.12.9.12,1.46Zm-1.09,1.48v-1.66c0-.38-.02-.72-.07-1.01-.04-.29-.11-.54-.19-.75s-.2-.38-.33-.5c-.13-.13-.28-.22-.45-.28-.17-.06-.36-.09-.57-.09-.26,0-.49.05-.69.15-.2.09-.37.24-.5.45-.13.21-.23.48-.3.81-.07.34-.11.74-.11,1.22v1.66c0,.38.02.72.07,1.01.05.29.12.55.21.76.09.21.2.38.33.52.13.14.28.24.45.3.17.06.36.09.57.09.27,0,.5-.05.7-.15.2-.1.36-.26.5-.47.14-.22.24-.5.3-.84.07-.34.1-.75.1-1.23Zm3.9-5.06v8.53h-1.13v-8.53h1.13Zm5.15,0l-3.55,3.98-1.99,2.07-.19-1.21,1.5-1.65,2.87-3.19h1.36Zm-1.09,8.53l-3.16-4.16.67-.9,3.83,5.06h-1.35Z" style="fill:rgba(29,34,41,.6);"/><path d="m630,405h10" style="fill:none; stroke:#f2f2f2;"/><path d="m610.78,408.11v.89h-5.58v-.78l2.79-3.11c.34-.38.61-.71.8-.97.19-.27.32-.51.4-.72.08-.21.12-.43.12-.66,0-.28-.06-.54-.18-.76-.11-.23-.28-.41-.5-.55-.22-.14-.49-.2-.81-.2-.38,0-.7.07-.95.22-.25.14-.44.35-.56.61s-.19.56-.19.9h-1.08c0-.48.11-.92.32-1.32.21-.4.52-.71.94-.95.41-.24.92-.36,1.53-.36.54,0,1,.1,1.38.29.38.19.68.45.88.8.21.34.31.74.31,1.2,0,.25-.04.5-.13.76-.08.25-.2.51-.35.76-.14.25-.31.5-.51.75-.19.25-.4.49-.61.73l-2.28,2.48h4.28Zm6.52-4.05v1.3c0,.7-.06,1.29-.19,1.77s-.3.87-.54,1.16c-.23.29-.52.51-.85.64-.33.13-.7.19-1.11.19-.33,0-.63-.04-.91-.12-.28-.08-.53-.21-.75-.39-.22-.18-.41-.42-.56-.71-.16-.29-.28-.65-.36-1.07-.08-.42-.12-.91-.12-1.46v-1.3c0-.7.06-1.29.19-1.76.13-.47.31-.85.54-1.14.23-.29.52-.5.84-.62.33-.12.7-.19,1.11-.19.33,0,.64.04.91.12.28.08.53.2.75.38.22.17.4.4.56.69.16.29.28.64.36,1.05.08.41.12.9.12,1.46Zm-1.09,1.48v-1.66c0-.38-.02-.72-.07-1.01-.04-.29-.11-.54-.19-.75s-.2-.38-.33-.5c-.13-.13-.28-.22-.45-.28-.17-.06-.36-.09-.57-.09-.26,0-.49.05-.69.15-.2.09-.37.24-.5.45-.13.21-.23.48-.3.81-.07.34-.11.74-.11,1.22v1.66c0,.38.02.72.07,1.01.05.29.12.55.21.76.09.21.2.38.33.52.13.14.28.24.45.3.17.06.36.09.57.09.27,0,.5-.05.7-.15.2-.1.36-.26.5-.47.14-.22.24-.5.3-.84.07-.34.1-.75.1-1.23Zm3.9-5.06v8.53h-1.13v-8.53h1.13Zm5.15,0l-3.55,3.98-1.99,2.07-.19-1.21,1.5-1.65,2.87-3.19h1.36Zm-1.09,8.53l-3.16-4.16.67-.9,3.83,5.06h-1.35Z" style="fill:rgba(29,34,41,.6);"/><path d="m24,138h10" style="fill:none; stroke:#f2f2f2;"/><path d="m44.57,139.69c0,.52-.12.96-.36,1.33-.24.36-.56.63-.97.82-.41.19-.87.28-1.38.28s-.97-.09-1.38-.28c-.41-.19-.73-.46-.97-.82-.24-.36-.36-.81-.36-1.33,0-.34.06-.65.19-.93.13-.28.32-.53.56-.74.24-.21.53-.37.86-.49.33-.12.7-.18,1.1-.18.52,0,.99.1,1.4.3.41.2.73.47.97.83.24.35.36.75.36,1.21Zm-1.09-.02c0-.32-.07-.6-.21-.84-.14-.25-.33-.44-.57-.57-.25-.14-.53-.21-.86-.21s-.62.07-.86.21c-.24.14-.42.33-.56.57-.13.24-.2.52-.2.84s.06.61.19.84c.13.23.32.41.56.53.25.12.54.18.87.18s.62-.06.87-.18c.24-.12.43-.3.56-.53.13-.24.2-.52.2-.84Zm.89-3.98c0,.42-.11.79-.33,1.12-.22.33-.52.59-.9.78-.38.19-.81.29-1.29.29s-.92-.1-1.31-.29c-.38-.19-.68-.45-.89-.78-.21-.33-.32-.71-.32-1.12,0-.5.11-.92.32-1.26.22-.35.52-.61.9-.8.38-.18.81-.27,1.3-.27s.92.09,1.3.27c.38.18.68.45.89.8.22.35.33.77.33,1.26Zm-1.08.02c0-.29-.06-.54-.18-.76-.12-.22-.29-.39-.5-.51-.21-.13-.46-.19-.75-.19s-.54.06-.75.18c-.21.12-.38.29-.5.5-.12.22-.18.48-.18.78s.06.55.18.77c.12.22.29.39.5.51.21.12.46.18.75.18s.53-.06.74-.18c.21-.12.38-.29.5-.51.12-.22.18-.48.18-.77Zm8.01,1.35v1.3c0,.7-.06,1.29-.19,1.77s-.3.87-.54,1.16c-.23.29-.52.51-.85.64-.33.13-.7.19-1.11.19-.33,0-.63-.04-.91-.12-.28-.08-.53-.21-.75-.39-.22-.18-.41-.42-.56-.72-.16-.29-.28-.65-.36-1.07-.08-.42-.12-.91-.12-1.47v-1.3c0-.7.06-1.28.19-1.76.13-.47.31-.85.54-1.14.23-.29.52-.5.84-.62.33-.12.7-.19,1.11-.19.33,0,.64.04.91.12.28.08.53.2.75.38.22.17.4.4.56.69.16.29.28.64.36,1.05.08.41.12.9.12,1.46Zm-1.09,1.48v-1.66c0-.38-.02-.72-.07-1.01-.04-.29-.11-.54-.19-.75-.09-.21-.2-.38-.33-.5-.13-.13-.28-.22-.45-.28-.17-.06-.36-.09-.57-.09-.26,0-.49.05-.69.15-.2.09-.37.24-.5.45-.13.21-.23.48-.3.81-.07.34-.11.75-.11,1.23v1.66c0,.38.02.72.06,1.01.05.29.12.55.21.76.09.21.2.38.33.52.13.14.28.24.45.3.17.06.36.09.57.09.27,0,.5-.05.7-.15.2-.1.37-.26.5-.47.14-.22.24-.5.3-.84.07-.34.1-.75.1-1.23Zm3.9-5.06v8.53h-1.13v-8.53h1.13Zm5.15,0l-3.54,3.98-1.99,2.07-.19-1.21,1.5-1.65,2.87-3.19h1.36Zm-1.09,8.53l-3.16-4.16.67-.9,3.83,5.06h-1.35Z" style="fill:rgba(29,34,41,.6);"/><path d="m24,227h10" style="fill:none; stroke:#f2f2f2;"/><path d="m43.35,222.46h.09v.92h-.09c-.57,0-1.05.09-1.44.28-.39.18-.69.43-.92.74-.23.31-.39.66-.49,1.04-.1.39-.15.78-.15,1.18v1.25c0,.38.04.71.13,1.01.09.29.21.53.37.73.16.2.33.35.53.45.2.1.41.15.62.15.25,0,.47-.05.67-.14.2-.1.36-.23.49-.4.14-.18.24-.38.31-.62.07-.24.11-.5.11-.78,0-.25-.03-.5-.09-.73-.06-.24-.16-.45-.29-.63-.13-.19-.29-.33-.49-.44-.19-.11-.42-.16-.69-.16-.3,0-.58.07-.84.22-.26.15-.47.34-.64.58-.16.23-.26.49-.28.77h-.57c.05-.44.16-.82.3-1.12.15-.31.34-.57.56-.76.23-.2.48-.34.76-.43.28-.09.58-.14.89-.14.43,0,.79.08,1.1.24.31.16.56.38.76.64.2.27.35.57.44.9.1.33.15.67.15,1.03,0,.4-.06.78-.17,1.13-.11.35-.28.66-.51.92-.22.27-.5.47-.83.62-.33.15-.71.22-1.14.22-.46,0-.86-.09-1.21-.28-.34-.19-.63-.44-.86-.76-.23-.32-.4-.67-.51-1.05-.11-.39-.17-.78-.17-1.18v-.51c0-.6.06-1.19.18-1.77.12-.58.33-1.1.63-1.57.3-.47.72-.84,1.25-1.12.53-.28,1.21-.42,2.03-.42Zm7.95,3.6v1.3c0,.7-.06,1.29-.19,1.77s-.3.87-.54,1.16c-.23.29-.52.51-.85.64-.33.13-.7.19-1.11.19-.33,0-.63-.04-.91-.12-.28-.08-.53-.21-.75-.39-.22-.18-.41-.42-.56-.72-.16-.29-.28-.65-.36-1.07-.08-.42-.12-.91-.12-1.47v-1.3c0-.7.06-1.28.19-1.76.13-.47.31-.85.54-1.14.23-.29.52-.5.84-.62.33-.12.7-.19,1.11-.19.33,0,.64.04.91.12.28.08.53.2.75.38.22.17.4.4.56.69.16.29.28.64.36,1.05.08.41.12.9.12,1.46Zm-1.09,1.48v-1.66c0-.38-.02-.72-.07-1.01-.04-.29-.11-.54-.19-.75-.09-.21-.2-.38-.33-.5-.13-.13-.28-.22-.45-.28-.17-.06-.36-.09-.57-.09-.26,0-.49.05-.69.15-.2.09-.37.24-.5.45-.13.21-.23.48-.3.81-.07.34-.11.75-.11,1.23v1.66c0,.38.02.72.06,1.01.05.29.12.55.21.76.09.21.2.38.33.52.13.14.28.24.45.3.17.06.36.09.57.09.27,0,.5-.05.7-.15.2-.1.37-.26.5-.47.14-.22.24-.5.3-.84.07-.34.1-.75.1-1.23Zm3.9-5.06v8.53h-1.13v-8.53h1.13Zm5.15,0l-3.54,3.98-1.99,2.07-.19-1.21,1.5-1.65,2.87-3.19h1.36Zm-1.09,8.53l-3.16-4.16.67-.9,3.83,5.06h-1.35Z" style="fill:rgba(29,34,41,.6);"/><path d="m24,316h10" style="fill:none; stroke:#f2f2f2;"/><path d="m44.96,317.13v.89h-6.16v-.64l3.82-5.91h.88l-.95,1.71-2.53,3.95h4.93Zm-1.19-5.66v8.53h-1.08v-8.53h1.08Zm7.53,3.59v1.3c0,.7-.06,1.29-.19,1.77s-.3.87-.54,1.16c-.23.29-.52.51-.85.64-.33.13-.7.19-1.11.19-.33,0-.63-.04-.91-.12-.28-.08-.53-.21-.75-.39-.22-.18-.41-.42-.56-.71-.16-.29-.28-.65-.36-1.07s-.12-.91-.12-1.46v-1.3c0-.7.06-1.29.19-1.76.13-.47.31-.85.54-1.14.23-.29.52-.5.84-.62.33-.12.7-.19,1.11-.19.33,0,.64.04.91.12.28.08.53.2.75.38.22.17.4.4.56.69.16.29.28.64.36,1.05.08.41.12.9.12,1.46Zm-1.09,1.48v-1.66c0-.38-.02-.72-.07-1.01-.04-.29-.11-.54-.19-.75-.09-.21-.2-.38-.33-.5-.13-.13-.28-.22-.45-.28-.17-.06-.36-.09-.57-.09-.26,0-.49.05-.69.15-.2.09-.37.24-.5.45-.13.21-.23.48-.3.81-.07.34-.11.74-.11,1.22v1.66c0,.38.02.72.06,1.01.05.29.12.55.21.76.09.21.2.38.33.52.13.14.28.24.45.3.17.06.36.09.57.09.27,0,.5-.05.7-.15.2-.1.37-.26.5-.47.14-.22.24-.5.3-.84.07-.34.1-.75.1-1.23Zm3.9-5.06v8.53h-1.13v-8.53h1.13Zm5.15,0l-3.54,3.98-1.99,2.07-.19-1.21,1.5-1.65,2.87-3.19h1.36Zm-1.09,8.53l-3.16-4.16.67-.9,3.83,5.06h-1.35Z" style="fill:rgba(29,34,41,.6);"/><path d="m24,405h10" style="fill:none; stroke:#f2f2f2;"/><path d="m44.78,408.11v.89h-5.58v-.78l2.79-3.11c.34-.38.61-.71.8-.97.19-.27.32-.51.4-.72.08-.21.12-.43.12-.66,0-.28-.06-.54-.18-.76-.11-.23-.28-.41-.5-.55-.22-.14-.49-.2-.81-.2-.38,0-.7.07-.95.22-.25.14-.44.35-.56.61s-.19.56-.19.9h-1.08c0-.48.11-.92.32-1.32.21-.4.52-.71.94-.95.41-.24.92-.36,1.53-.36.54,0,1,.1,1.38.29.38.19.68.45.88.8.21.34.31.74.31,1.2,0,.25-.04.5-.13.76-.08.25-.2.51-.35.76-.14.25-.31.5-.51.75-.19.25-.4.49-.62.73l-2.29,2.48h4.28Zm6.52-4.05v1.3c0,.7-.06,1.29-.19,1.77s-.3.87-.54,1.16c-.23.29-.52.51-.85.64-.33.13-.7.19-1.11.19-.33,0-.63-.04-.91-.12-.28-.08-.53-.21-.75-.39-.22-.18-.41-.42-.56-.71-.16-.29-.28-.65-.36-1.07s-.12-.91-.12-1.46v-1.3c0-.7.06-1.29.19-1.76.13-.47.31-.85.54-1.14.23-.29.52-.5.84-.62.33-.12.7-.19,1.11-.19.33,0,.64.04.91.12.28.08.53.2.75.38.22.17.4.4.56.69.16.29.28.64.36,1.05.08.41.12.9.12,1.46Zm-1.09,1.48v-1.66c0-.38-.02-.72-.07-1.01-.04-.29-.11-.54-.19-.75-.09-.21-.2-.38-.33-.5-.13-.13-.28-.22-.45-.28-.17-.06-.36-.09-.57-.09-.26,0-.49.05-.69.15-.2.09-.37.24-.5.45-.13.21-.23.48-.3.81-.07.34-.11.74-.11,1.22v1.66c0,.38.02.72.06,1.01.05.29.12.55.21.76.09.21.2.38.33.52.13.14.28.24.45.3.17.06.36.09.57.09.27,0,.5-.05.7-.15.2-.1.37-.26.5-.47.14-.22.24-.5.3-.84.07-.34.1-.75.1-1.23Zm3.9-5.06v8.53h-1.13v-8.53h1.13Zm5.15,0l-3.54,3.98-1.99,2.07-.19-1.21,1.5-1.65,2.87-3.19h1.36Zm-1.09,8.53l-3.16-4.16.67-.9,3.83,5.06h-1.35Z" style="fill:rgba(29,34,41,.6);"/><path d="m24,494h10" style="fill:none; stroke:#f2f2f2;"/><path d="m52.19,493.05v1.3c0,.7-.06,1.29-.19,1.77s-.3.87-.54,1.16c-.23.29-.52.51-.85.64-.33.13-.7.19-1.11.19-.33,0-.63-.04-.91-.12-.28-.08-.53-.21-.75-.39-.22-.18-.41-.42-.56-.71-.16-.29-.28-.65-.36-1.07-.08-.42-.12-.91-.12-1.46v-1.3c0-.7.06-1.29.19-1.76.13-.47.31-.85.54-1.14.23-.29.52-.5.84-.62.33-.12.7-.19,1.11-.19.33,0,.64.04.91.12.28.08.53.2.75.38.22.17.4.4.56.69.16.29.28.64.36,1.05.08.41.12.9.12,1.46Zm-1.09,1.48v-1.66c0-.38-.02-.72-.07-1.01-.04-.29-.11-.54-.19-.75-.09-.21-.2-.38-.33-.5-.13-.13-.28-.22-.45-.28-.17-.06-.36-.09-.57-.09-.26,0-.49.05-.69.15-.2.09-.37.24-.5.45-.13.21-.23.48-.3.81-.07.34-.11.74-.11,1.22v1.66c0,.38.02.72.06,1.01.05.29.12.55.21.76.09.21.2.38.33.52.13.14.28.24.45.3.17.06.36.09.57.09.27,0,.5-.05.7-.15.2-.1.37-.26.5-.47.14-.22.24-.5.3-.84.07-.34.1-.75.1-1.23Z" style="fill:rgba(29,34,41,.6);"/><path d="m60.52,494v10" style="fill:none; stroke:#f2f2f2;"/><path d="m54.77,516.13v.89h-6.16v-.64l3.82-5.91h.88l-.95,1.71-2.53,3.95h4.93Zm-1.19-5.66v8.53h-1.08v-8.53h1.08Zm2.31,7.96c0-.18.06-.34.17-.46.12-.13.29-.19.5-.19s.38.06.5.19c.12.12.18.28.18.46s-.06.33-.18.46c-.11.12-.28.19-.5.19s-.39-.06-.5-.19c-.11-.12-.17-.28-.17-.46Zm8.54-7.96v.61l-3.53,7.92h-1.14l3.53-7.64h-4.62v-.89h5.77Zm2.61,4.47l-.87-.22.43-4.25h4.38v1h-3.46l-.26,2.32c.16-.09.35-.17.59-.25.24-.08.52-.12.83-.12.39,0,.75.07,1.06.21.31.13.58.32.8.57.22.25.39.55.51.9.12.35.18.74.18,1.18,0,.41-.06.79-.17,1.13-.11.34-.28.65-.5.9-.22.25-.5.45-.84.59-.34.14-.73.21-1.19.21-.34,0-.67-.05-.98-.14-.3-.1-.58-.24-.82-.44-.24-.2-.43-.45-.59-.74-.15-.3-.24-.65-.28-1.04h1.03c.05.32.14.59.28.81.14.22.32.38.55.5.23.11.5.16.8.16.26,0,.49-.04.69-.14.2-.09.37-.22.5-.39.14-.17.24-.37.31-.61.07-.24.11-.51.11-.8,0-.27-.04-.52-.11-.75-.07-.23-.19-.43-.33-.6-.14-.17-.32-.3-.53-.4-.21-.1-.45-.15-.73-.15-.36,0-.64.05-.83.15-.18.1-.37.23-.57.4Z" style="fill:rgba(29,34,41,.6);"/><path d="m115.52,494v10" style="fill:none; stroke:#f2f2f2;"/><path d="m113.64,516.13v.89h-6.16v-.64l3.82-5.91h.88l-.95,1.71-2.53,3.95h4.93Zm-1.19-5.66v8.53h-1.08v-8.53h1.08Zm2.31,7.96c0-.18.06-.34.17-.46.12-.13.29-.19.5-.19s.38.06.5.19c.12.12.18.28.18.46s-.06.33-.18.46c-.11.12-.28.19-.5.19s-.39-.06-.5-.19c-.11-.12-.17-.28-.17-.46Zm8.41-1.74c0,.52-.12.96-.36,1.33-.24.36-.56.63-.97.82-.41.19-.86.28-1.38.28s-.97-.09-1.38-.28c-.41-.19-.73-.46-.97-.82-.24-.36-.36-.8-.36-1.33,0-.34.06-.65.19-.93.13-.29.32-.53.56-.74.24-.21.53-.37.86-.49.33-.12.7-.17,1.1-.17.52,0,.99.1,1.4.3.41.2.73.47.97.83.24.35.36.75.36,1.21Zm-1.09-.02c0-.32-.07-.6-.21-.84-.14-.25-.33-.44-.57-.57-.25-.14-.53-.2-.86-.2s-.62.07-.86.2c-.24.14-.42.33-.56.57-.13.24-.2.52-.2.84s.06.61.19.84c.13.23.32.41.56.53.25.12.54.18.87.18s.62-.06.87-.18c.24-.12.43-.3.56-.53.13-.24.2-.52.2-.84Zm.89-3.98c0,.41-.11.79-.33,1.12-.22.33-.52.59-.9.78-.38.19-.81.29-1.29.29s-.92-.1-1.31-.29c-.38-.19-.68-.45-.89-.78-.22-.33-.32-.71-.32-1.12,0-.5.11-.92.32-1.27.22-.35.52-.61.9-.8.38-.18.81-.28,1.29-.28s.92.09,1.3.28c.38.18.68.45.89.8.22.35.33.77.33,1.27Zm-1.08.02c0-.28-.06-.54-.18-.76-.12-.22-.29-.39-.5-.51-.21-.13-.46-.19-.75-.19s-.53.06-.75.18c-.21.12-.38.29-.5.5-.12.22-.18.48-.18.78s.06.55.18.77c.12.22.29.39.5.51.21.12.46.18.75.18s.53-.06.74-.18c.22-.12.38-.29.5-.51.12-.22.18-.47.18-.77Z" style="fill:rgba(29,34,41,.6);"/><path d="m171.52,494v10" style="fill:none; stroke:#f2f2f2;"/><path d="m165.77,516.13v.89h-6.16v-.64l3.82-5.91h.89l-.95,1.71-2.52,3.95h4.93Zm-1.19-5.66v8.53h-1.08v-8.53h1.08Zm2.31,7.96c0-.18.06-.34.17-.46.12-.13.28-.19.5-.19s.38.06.5.19c.12.12.17.28.17.46s-.06.33-.17.46c-.11.12-.28.19-.5.19s-.39-.06-.5-.19c-.11-.12-.17-.28-.17-.46Zm8.41-1.74c0,.52-.12.96-.36,1.33-.24.36-.56.63-.97.82-.41.19-.87.28-1.38.28s-.97-.09-1.38-.28c-.41-.19-.73-.46-.97-.82-.24-.36-.36-.8-.36-1.33,0-.34.07-.65.19-.93.13-.29.32-.53.56-.74.24-.21.53-.37.86-.49.33-.12.7-.17,1.1-.17.52,0,.99.1,1.4.3.41.2.73.47.97.83.24.35.36.75.36,1.21Zm-1.09-.02c0-.32-.07-.6-.21-.84-.14-.25-.33-.44-.57-.57-.25-.14-.53-.2-.86-.2s-.62.07-.86.2c-.24.14-.42.33-.56.57-.13.24-.2.52-.2.84s.07.61.19.84c.13.23.32.41.56.53.25.12.54.18.87.18s.62-.06.87-.18c.24-.12.43-.3.56-.53.13-.24.2-.52.2-.84Zm.89-3.98c0,.41-.11.79-.33,1.12-.22.33-.52.59-.9.78-.38.19-.81.29-1.29.29s-.92-.1-1.31-.29c-.38-.19-.67-.45-.89-.78-.21-.33-.32-.71-.32-1.12,0-.5.11-.92.32-1.27.22-.35.52-.61.9-.8.38-.18.81-.28,1.29-.28s.92.09,1.3.28c.38.18.68.45.89.8.22.35.33.77.33,1.27Zm-1.08.02c0-.28-.06-.54-.18-.76s-.29-.39-.5-.51c-.22-.13-.47-.19-.75-.19s-.54.06-.75.18c-.21.12-.38.29-.5.5-.12.22-.18.48-.18.78s.06.55.18.77c.12.22.29.39.5.51.21.12.46.18.75.18s.53-.06.74-.18c.21-.12.38-.29.5-.51.12-.22.18-.47.18-.77Zm4.03,2.23l-.87-.22.43-4.25h4.38v1h-3.46l-.26,2.32c.16-.09.35-.17.59-.25.24-.08.52-.12.83-.12.39,0,.75.07,1.06.21.31.13.58.32.8.57.22.25.39.55.51.9.12.35.18.74.18,1.18,0,.41-.06.79-.17,1.13-.11.34-.28.65-.5.9-.22.25-.5.45-.84.59-.34.14-.73.21-1.19.21-.34,0-.67-.05-.98-.14-.3-.1-.58-.24-.82-.44-.24-.2-.43-.45-.59-.74-.15-.3-.24-.65-.28-1.04h1.03c.05.32.14.59.28.81.14.22.32.38.55.5.23.11.5.16.8.16.26,0,.49-.04.69-.14.2-.09.37-.22.5-.39.14-.17.24-.37.31-.61.08-.24.11-.51.11-.8,0-.27-.04-.52-.11-.75-.07-.23-.18-.43-.33-.6-.14-.17-.32-.3-.53-.4-.21-.1-.45-.15-.73-.15-.36,0-.64.05-.83.15-.18.1-.37.23-.57.4Z" style="fill:rgba(29,34,41,.6);"/><path d="m226.52,494v10" style="fill:none; stroke:#f2f2f2;"/><path d="m224.64,516.13v.89h-6.16v-.64l3.82-5.91h.89l-.95,1.71-2.52,3.95h4.93Zm-1.19-5.66v8.53h-1.08v-8.53h1.08Zm2.31,7.96c0-.18.06-.34.17-.46.12-.13.28-.19.5-.19s.38.06.5.19c.12.12.17.28.17.46s-.06.33-.17.46c-.11.12-.28.19-.5.19s-.39-.06-.5-.19c-.11-.12-.17-.28-.17-.46Zm4.11-.33h.11c.62,0,1.13-.09,1.52-.26.39-.18.69-.41.9-.71s.36-.63.43-1c.08-.38.12-.76.12-1.15v-1.31c0-.39-.04-.73-.13-1.03-.09-.3-.21-.55-.36-.76-.15-.2-.33-.36-.52-.46-.2-.11-.4-.16-.62-.16-.25,0-.47.05-.67.15-.2.1-.36.24-.5.42-.13.18-.24.39-.31.63-.07.24-.11.51-.11.79,0,.25.03.5.09.74.06.24.16.45.29.64.13.19.29.34.48.46.2.11.42.16.69.16.24,0,.47-.05.68-.14.21-.1.4-.23.57-.39.17-.17.3-.36.4-.57.1-.21.16-.43.18-.66h.51c0,.33-.06.65-.19.96-.12.31-.3.6-.53.86-.23.26-.49.47-.8.62-.31.15-.64.23-1,.23-.42,0-.79-.08-1.1-.25-.31-.16-.56-.38-.76-.66-.2-.27-.34-.58-.44-.91-.09-.34-.14-.68-.14-1.03,0-.41.06-.79.17-1.14.11-.36.28-.67.5-.94.22-.27.5-.49.83-.64.33-.15.71-.23,1.15-.23.49,0,.9.1,1.25.29.34.2.62.46.84.79.22.33.38.7.48,1.11.1.41.15.83.15,1.27v.39c0,.44-.03.89-.09,1.35-.05.45-.16.89-.32,1.3-.16.41-.38.79-.69,1.11-.3.32-.69.58-1.18.77-.48.19-1.07.28-1.78.28h-.11v-.92Z" style="fill:rgba(29,34,41,.6);"/><path d="m282.52,494v10" style="fill:none; stroke:#f2f2f2;"/><path d="m276.77,516.13v.89h-6.16v-.64l3.82-5.91h.88l-.95,1.71-2.52,3.95h4.93Zm-1.19-5.66v8.53h-1.08v-8.53h1.08Zm2.31,7.96c0-.18.06-.34.17-.46.12-.13.29-.19.5-.19s.38.06.5.19c.12.12.18.28.18.46s-.06.33-.18.46c-.11.12-.28.19-.5.19s-.39-.06-.5-.19c-.11-.12-.17-.28-.17-.46Zm4.11-.33h.11c.62,0,1.13-.09,1.52-.26s.69-.41.9-.71.36-.63.43-1c.08-.38.12-.76.12-1.15v-1.31c0-.39-.05-.73-.14-1.03-.09-.3-.21-.55-.36-.76-.15-.2-.33-.36-.52-.46-.2-.11-.4-.16-.62-.16-.25,0-.47.05-.67.15-.2.1-.36.24-.5.42-.13.18-.23.39-.3.63s-.11.51-.11.79c0,.25.03.5.09.74.06.24.16.45.29.64.13.19.29.34.48.46.19.11.42.16.68.16.24,0,.47-.05.68-.14.21-.1.4-.23.57-.39.17-.17.3-.36.4-.57.1-.21.16-.43.18-.66h.51c0,.33-.06.65-.19.96-.12.31-.3.6-.53.86-.23.26-.49.47-.8.62-.3.15-.64.23-1,.23-.42,0-.79-.08-1.1-.25-.31-.16-.56-.38-.76-.66-.19-.27-.34-.58-.44-.91-.09-.34-.14-.68-.14-1.03,0-.41.06-.79.17-1.14.11-.36.28-.67.5-.94.22-.27.5-.49.83-.64.33-.15.71-.23,1.15-.23.49,0,.9.1,1.25.29.34.2.62.46.84.79.22.33.38.7.48,1.11.1.41.15.83.15,1.27v.39c0,.44-.03.89-.09,1.35-.05.45-.16.89-.32,1.3-.16.41-.39.79-.69,1.11-.3.32-.69.58-1.18.77-.48.19-1.07.28-1.78.28h-.11v-.92Zm7.04-3.15l-.87-.22.43-4.25h4.38v1h-3.46l-.26,2.32c.16-.09.35-.17.59-.25.24-.08.52-.12.83-.12.39,0,.75.07,1.06.21.31.13.58.32.8.57.22.25.39.55.51.9.12.35.18.74.18,1.18,0,.41-.06.79-.17,1.13-.11.34-.28.65-.5.9-.22.25-.5.45-.84.59-.34.14-.73.21-1.19.21-.34,0-.67-.05-.98-.14-.3-.1-.58-.24-.82-.44-.24-.2-.43-.45-.59-.74-.15-.3-.24-.65-.28-1.04h1.03c.05.32.14.59.28.81.14.22.32.38.55.5.23.11.5.16.8.16.26,0,.49-.04.69-.14.2-.09.37-.22.5-.39.14-.17.24-.37.31-.61.08-.24.11-.51.11-.8,0-.27-.04-.52-.11-.75-.07-.23-.18-.43-.33-.6-.14-.17-.32-.3-.53-.4-.21-.1-.45-.15-.73-.15-.36,0-.64.05-.83.15-.18.1-.37.23-.57.4Z" style="fill:rgba(29,34,41,.6);"/><path d="m332.52,494v10" style="fill:none; stroke:#f2f2f2;"/><path d="m331.2,514.94l-.87-.22.43-4.25h4.38v1h-3.46l-.26,2.32c.16-.09.35-.17.59-.25.24-.08.52-.12.83-.12.39,0,.75.07,1.06.21.31.13.58.32.8.57.22.25.39.55.51.9.12.35.18.74.18,1.18,0,.41-.06.79-.17,1.13-.11.34-.28.65-.5.9-.22.25-.5.45-.84.59-.34.14-.73.21-1.19.21-.34,0-.67-.05-.98-.14-.3-.1-.58-.24-.82-.44-.24-.2-.43-.45-.59-.74-.15-.3-.24-.65-.28-1.04h1.03c.05.32.14.59.28.81.14.22.32.38.55.5.23.11.5.16.8.16.26,0,.49-.04.69-.14.2-.09.37-.22.5-.39.14-.17.24-.37.31-.61.08-.24.11-.51.11-.8,0-.27-.04-.52-.11-.75-.07-.23-.18-.43-.33-.6-.14-.17-.32-.3-.53-.4-.21-.1-.45-.15-.73-.15-.36,0-.64.05-.83.15-.18.1-.37.23-.57.4Z" style="fill:rgba(29,34,41,.6);"/><path d="m383.52,494v10" style="fill:none; stroke:#f2f2f2;"/><path d="m373.37,514.94l-.87-.22.43-4.25h4.38v1h-3.46l-.26,2.32c.16-.09.35-.17.59-.25.24-.08.52-.12.83-.12.39,0,.75.07,1.06.21.31.13.58.32.8.57.22.25.39.55.51.9.12.35.18.74.18,1.18,0,.41-.06.79-.17,1.13-.11.34-.28.65-.5.9-.22.25-.5.45-.84.59-.34.14-.73.21-1.19.21-.34,0-.67-.05-.98-.14-.3-.1-.58-.24-.82-.44-.24-.2-.43-.45-.59-.74-.15-.3-.24-.65-.28-1.04h1.03c.05.32.14.59.28.81.14.22.32.38.55.5.23.11.5.16.8.16.26,0,.49-.04.69-.14.2-.09.37-.22.5-.39.14-.17.24-.37.31-.61.08-.24.11-.51.11-.8,0-.27-.04-.52-.11-.75-.07-.23-.18-.43-.33-.6-.14-.17-.32-.3-.53-.4-.21-.1-.45-.15-.73-.15-.36,0-.64.05-.83.15-.18.1-.37.23-.57.4Zm5.51,3.49c0-.18.06-.34.17-.46.12-.13.29-.19.5-.19s.38.06.5.19c.12.12.18.28.18.46s-.06.33-.18.46c-.11.12-.28.19-.5.19s-.39-.06-.5-.19c-.11-.12-.17-.28-.17-.46Zm8.38-4.37v1.3c0,.7-.06,1.29-.19,1.77s-.31.87-.54,1.16c-.23.29-.52.51-.85.64-.33.13-.7.19-1.11.19-.33,0-.63-.04-.91-.12-.28-.08-.53-.21-.75-.39-.22-.18-.41-.42-.56-.71-.16-.29-.27-.65-.36-1.07-.08-.42-.12-.91-.12-1.47v-1.3c0-.7.06-1.28.19-1.76.13-.47.31-.85.55-1.14.23-.29.52-.5.84-.62.33-.12.7-.19,1.11-.19.33,0,.64.04.91.12.28.08.53.2.75.38.22.17.4.4.56.69.16.29.28.64.36,1.05s.12.9.12,1.46Zm-1.09,1.48v-1.66c0-.38-.02-.72-.07-1.01-.04-.29-.11-.54-.19-.75-.09-.21-.2-.38-.33-.5-.13-.13-.28-.22-.45-.28-.17-.06-.36-.09-.57-.09-.26,0-.49.05-.68.15-.2.09-.37.24-.5.45-.13.21-.24.48-.31.81-.07.34-.1.74-.1,1.22v1.66c0,.38.02.72.06,1.01.05.29.11.55.2.76.09.21.2.38.33.52s.28.24.45.3c.17.06.36.09.57.09.27,0,.5-.05.7-.15.2-.1.37-.26.5-.47.14-.22.24-.5.3-.84.07-.34.1-.75.1-1.23Zm3.85-.59l-.87-.22.43-4.25h4.38v1h-3.46l-.26,2.32c.16-.09.35-.17.59-.25.24-.08.52-.12.83-.12.39,0,.75.07,1.06.21.31.13.58.32.8.57.22.25.39.55.51.9.12.35.18.74.18,1.18,0,.41-.06.79-.17,1.13-.11.34-.28.65-.5.9-.22.25-.5.45-.84.59-.34.14-.73.21-1.19.21-.34,0-.67-.05-.98-.14-.3-.1-.58-.24-.82-.44-.24-.2-.43-.45-.59-.74-.15-.3-.24-.65-.28-1.04h1.03c.05.32.14.59.28.81.14.22.32.38.55.5.23.11.5.16.8.16.26,0,.49-.04.69-.14.2-.09.37-.22.5-.39.14-.17.24-.37.31-.61.08-.24.11-.51.11-.8,0-.27-.04-.52-.11-.75-.07-.23-.18-.43-.33-.6-.14-.17-.32-.3-.53-.4-.21-.1-.45-.15-.73-.15-.36,0-.64.05-.83.15-.18.1-.37.23-.57.4Z" style="fill:rgba(29,34,41,.6);"/><path d="m438.52,494v10" style="fill:none; stroke:#f2f2f2;"/><path d="m432.25,514.94l-.87-.22.43-4.25h4.38v1h-3.46l-.26,2.32c.16-.09.35-.17.59-.25.24-.08.52-.12.83-.12.39,0,.75.07,1.06.21.31.13.58.32.8.57.22.25.39.55.51.9.12.35.18.74.18,1.18,0,.41-.06.79-.17,1.13-.11.34-.28.65-.5.9-.22.25-.5.45-.84.59-.34.14-.73.21-1.19.21-.34,0-.67-.05-.98-.14-.3-.1-.58-.24-.82-.44-.24-.2-.43-.45-.59-.74-.15-.3-.24-.65-.28-1.04h1.03c.05.32.14.59.28.81.14.22.32.38.55.5.23.11.5.16.8.16.26,0,.49-.04.69-.14.2-.09.37-.22.5-.39.14-.17.24-.37.31-.61.08-.24.11-.51.11-.8,0-.27-.04-.52-.11-.75-.07-.23-.18-.43-.33-.6-.14-.17-.32-.3-.53-.4-.21-.1-.45-.15-.73-.15-.36,0-.64.05-.83.15-.18.1-.37.23-.57.4Zm5.51,3.49c0-.18.06-.34.17-.46.12-.13.29-.19.5-.19s.38.06.5.19c.12.12.18.28.18.46s-.06.33-.18.46c-.11.12-.28.19-.5.19s-.39-.06-.5-.19c-.11-.12-.17-.28-.17-.46Zm6.59-8v8.58h-1.08v-7.23l-2.19.8v-.98l3.1-1.17h.17Z" style="fill:rgba(29,34,41,.6);"/><path d="m494.52,494v10" style="fill:none; stroke:#f2f2f2;"/><path d="m484.37,514.94l-.87-.22.43-4.25h4.38v1h-3.46l-.26,2.32c.16-.09.35-.17.59-.25.24-.08.52-.12.83-.12.39,0,.75.07,1.06.21.31.13.58.32.8.57.22.25.39.55.51.9.12.35.18.74.18,1.18,0,.41-.06.79-.17,1.13-.11.34-.28.65-.5.9-.22.25-.5.45-.84.59-.34.14-.73.21-1.19.21-.34,0-.67-.05-.98-.14-.3-.1-.58-.24-.82-.44-.24-.2-.43-.45-.59-.74-.15-.3-.24-.65-.28-1.04h1.03c.05.32.14.59.28.81.14.22.32.38.55.5.23.11.5.16.8.16.26,0,.49-.04.69-.14.2-.09.37-.22.5-.39.14-.17.24-.37.31-.61.08-.24.11-.51.11-.8,0-.27-.04-.52-.11-.75-.07-.23-.18-.43-.33-.6-.14-.17-.32-.3-.53-.4-.21-.1-.45-.15-.73-.15-.36,0-.64.05-.83.15-.18.1-.37.23-.57.4Zm5.51,3.49c0-.18.06-.34.17-.46.12-.13.29-.19.5-.19s.38.06.5.19c.12.12.18.28.18.46s-.06.33-.18.46c-.11.12-.28.19-.5.19s-.39-.06-.5-.19c-.11-.12-.17-.28-.17-.46Zm6.59-8v8.58h-1.08v-7.23l-2.19.8v-.98l3.1-1.17h.17Zm4.56,4.52l-.87-.22.43-4.25h4.38v1h-3.46l-.26,2.32c.16-.09.35-.17.59-.25.24-.08.52-.12.83-.12.39,0,.75.07,1.06.21.31.13.58.32.8.57.22.25.39.55.51.9.12.35.18.74.18,1.18,0,.41-.06.79-.17,1.13-.11.34-.28.65-.5.9-.22.25-.5.45-.84.59-.34.14-.73.21-1.19.21-.34,0-.67-.05-.98-.14-.3-.1-.58-.24-.82-.44-.24-.2-.43-.45-.59-.74-.15-.3-.24-.65-.28-1.04h1.03c.05.32.14.59.28.81.14.22.32.38.55.5.23.11.5.16.8.16.26,0,.49-.04.69-.14.2-.09.37-.22.5-.39.14-.17.24-.37.31-.61.08-.24.11-.51.11-.8,0-.27-.04-.52-.11-.75-.07-.23-.18-.43-.33-.6-.14-.17-.32-.3-.53-.4-.21-.1-.45-.15-.73-.15-.36,0-.64.05-.83.15-.18.1-.37.23-.57.4Z" style="fill:rgba(29,34,41,.6);"/><path d="m549.52,494v10" style="fill:none; stroke:#f2f2f2;"/><path d="m543.25,514.94l-.87-.22.43-4.25h4.38v1h-3.46l-.26,2.32c.16-.09.35-.17.59-.25.24-.08.52-.12.83-.12.39,0,.75.07,1.06.21.31.13.58.32.8.57.22.25.39.55.51.9.12.35.18.74.18,1.18,0,.41-.06.79-.17,1.13-.11.34-.28.65-.5.9-.22.25-.5.45-.84.59-.34.14-.73.21-1.19.21-.34,0-.67-.05-.98-.14-.3-.1-.58-.24-.82-.44-.24-.2-.43-.45-.59-.74-.15-.3-.24-.65-.28-1.04h1.03c.05.32.14.59.28.81.14.22.32.38.55.5.23.11.5.16.8.16.26,0,.49-.04.69-.14.2-.09.37-.22.5-.39.14-.17.24-.37.31-.61.07-.24.11-.51.11-.8,0-.27-.04-.52-.11-.75-.07-.23-.18-.43-.33-.6-.14-.17-.32-.3-.53-.4-.21-.1-.45-.15-.73-.15-.36,0-.64.05-.83.15-.18.1-.37.23-.57.4Zm5.51,3.49c0-.18.06-.34.17-.46.12-.13.28-.19.5-.19s.38.06.5.19c.12.12.17.28.17.46s-.06.33-.17.46c-.11.12-.28.19-.5.19s-.39-.06-.5-.19c-.11-.12-.17-.28-.17-.46Zm8.62-.32v.89h-5.58v-.78l2.79-3.11c.34-.38.61-.71.8-.97.19-.27.32-.51.4-.72.08-.22.12-.43.12-.66,0-.28-.06-.54-.17-.76-.11-.23-.28-.41-.5-.55-.22-.14-.49-.2-.81-.2-.38,0-.7.07-.95.22-.25.14-.44.35-.56.61-.12.26-.19.56-.19.9h-1.08c0-.48.1-.92.32-1.32.21-.4.52-.71.94-.95.41-.24.92-.36,1.53-.36.54,0,1,.1,1.38.29.38.19.68.45.88.8.21.34.31.74.31,1.19,0,.25-.04.5-.13.76-.08.25-.2.51-.35.76-.14.25-.32.5-.51.75-.19.25-.4.49-.62.73l-2.28,2.48h4.28Z" style="fill:rgba(29,34,41,.6);"/><path d="m605.52,494v10" style="fill:none; stroke:#f2f2f2;"/><path d="m595.37,514.94l-.87-.22.43-4.25h4.38v1h-3.46l-.26,2.32c.16-.09.35-.17.59-.25.24-.08.52-.12.83-.12.39,0,.75.07,1.06.21.31.13.58.32.8.57.22.25.39.55.51.9.12.35.17.74.17,1.18,0,.41-.06.79-.17,1.13-.11.34-.28.65-.5.9-.22.25-.5.45-.84.59-.34.14-.73.21-1.19.21-.34,0-.67-.05-.98-.14-.3-.1-.58-.24-.82-.44-.24-.2-.43-.45-.59-.74-.15-.3-.24-.65-.28-1.04h1.03c.05.32.14.59.28.81.14.22.32.38.55.5.23.11.5.16.8.16.26,0,.49-.04.69-.14.2-.09.37-.22.5-.39.14-.17.24-.37.31-.61.07-.24.11-.51.11-.8,0-.27-.04-.52-.11-.75-.07-.23-.18-.43-.33-.6-.14-.17-.32-.3-.53-.4-.21-.1-.45-.15-.73-.15-.36,0-.64.05-.83.15-.18.1-.37.23-.57.4Zm5.51,3.49c0-.18.06-.34.17-.46.12-.13.28-.19.5-.19s.38.06.5.19c.12.12.17.28.17.46s-.06.33-.17.46c-.11.12-.28.19-.5.19s-.39-.06-.5-.19c-.11-.12-.17-.28-.17-.46Zm8.62-.32v.89h-5.58v-.78l2.79-3.11c.34-.38.61-.71.8-.97.19-.27.32-.51.4-.72.08-.22.12-.43.12-.66,0-.28-.06-.54-.17-.76-.11-.23-.28-.41-.5-.55-.22-.14-.49-.2-.81-.2-.38,0-.7.07-.95.22-.25.14-.44.35-.56.61-.12.26-.19.56-.19.9h-1.08c0-.48.1-.92.32-1.32.21-.4.52-.71.94-.95.41-.24.92-.36,1.53-.36.54,0,1,.1,1.38.29.38.19.68.45.88.8.21.34.31.74.31,1.19,0,.25-.04.5-.13.76-.08.25-.2.51-.35.76-.14.25-.32.5-.51.75-.19.25-.4.49-.62.73l-2.28,2.48h4.28Zm2.53-3.17l-.87-.22.43-4.25h4.38v1h-3.46l-.26,2.32c.16-.09.35-.17.59-.25.24-.08.52-.12.83-.12.39,0,.75.07,1.06.21.31.13.58.32.8.57.22.25.39.55.51.9.12.35.18.74.18,1.18,0,.41-.06.79-.17,1.13-.11.34-.28.65-.5.9-.22.25-.5.45-.84.59-.34.14-.73.21-1.19.21-.34,0-.67-.05-.98-.14-.3-.1-.58-.24-.82-.44-.24-.2-.43-.45-.59-.74-.15-.3-.24-.65-.28-1.04h1.03c.05.32.14.59.28.81.14.22.32.38.55.5.23.11.5.16.8.16.26,0,.49-.04.69-.14.2-.09.37-.22.5-.39.14-.17.24-.37.31-.61.07-.24.11-.51.11-.8,0-.27-.04-.52-.11-.75-.07-.23-.18-.43-.33-.6-.14-.17-.32-.3-.53-.4-.21-.1-.45-.15-.73-.15-.36,0-.64.05-.83.15-.18.1-.37.23-.57.4Z" style="fill:rgba(29,34,41,.6);"/><path d="m39,494h585.5" style="fill:none; stroke:#f2f2f2;"/><path d="m630,494h10" style="fill:none; stroke:#f2f2f2;"/><path d="m618.19,493.05v1.3c0,.7-.06,1.29-.19,1.77s-.3.87-.54,1.16-.52.51-.85.64c-.33.13-.7.19-1.11.19-.33,0-.63-.04-.91-.12-.28-.08-.53-.21-.75-.39-.22-.18-.41-.42-.56-.71-.16-.29-.27-.65-.36-1.07-.08-.42-.12-.91-.12-1.46v-1.3c0-.7.06-1.29.19-1.76.13-.47.31-.85.54-1.14.23-.29.52-.5.84-.62.33-.12.7-.19,1.11-.19.33,0,.64.04.91.12.28.08.53.2.75.38.22.17.41.4.56.69.16.29.28.64.36,1.05.08.41.12.9.12,1.46Zm-1.09,1.48v-1.66c0-.38-.02-.72-.07-1.01-.04-.29-.11-.54-.19-.75s-.2-.38-.33-.5c-.13-.13-.28-.22-.45-.28-.17-.06-.36-.09-.57-.09-.26,0-.49.05-.68.15-.2.09-.37.24-.5.45-.13.21-.23.48-.3.81s-.11.74-.11,1.22v1.66c0,.38.02.72.06,1.01.05.29.11.55.21.76.09.21.2.38.33.52.13.14.28.24.45.3.17.06.36.09.57.09.27,0,.5-.05.7-.15.2-.1.36-.26.5-.47.14-.22.24-.5.3-.84.07-.34.1-.75.1-1.23Z" style="fill:rgba(29,34,41,.6);"/><path d="m30.74,46h-3.56l.02-1.84h3.54c1.22,0,2.23-.25,3.05-.76.81-.52,1.42-1.23,1.83-2.16.41-.93.62-2.02.62-3.26v-1.04c0-.98-.12-1.84-.35-2.6-.23-.77-.58-1.41-1.03-1.93-.45-.53-1.01-.93-1.66-1.21-.65-.27-1.39-.41-2.24-.41h-3.84v-1.85h3.84c1.12,0,2.14.19,3.06.56.92.37,1.71.9,2.38,1.61.67.7,1.19,1.54,1.55,2.53.36.98.54,2.09.54,3.33v1.02c0,1.23-.18,2.35-.54,3.34-.36.98-.88,1.82-1.56,2.52-.67.7-1.48,1.23-2.44,1.61-.95.37-2.01.55-3.2.55Zm-2.36-17.06v17.06h-2.26v-17.06h2.26Zm18.42,17.3c-.88,0-1.68-.15-2.4-.45-.71-.3-1.32-.73-1.84-1.28-.51-.55-.9-1.2-1.17-1.95-.27-.75-.41-1.57-.41-2.46v-.49c0-1.03.15-1.95.46-2.75.3-.81.72-1.5,1.24-2.06.52-.56,1.12-.99,1.78-1.28.66-.29,1.35-.43,2.06-.43.91,0,1.69.16,2.34.47.66.31,1.21.75,1.63,1.31.42.55.73,1.21.94,1.97.2.75.3,1.57.3,2.46v.97h-9.47v-1.77h7.3v-.16c-.03-.56-.15-1.11-.35-1.64-.2-.53-.51-.97-.94-1.31-.43-.34-1.02-.52-1.76-.52-.49,0-.95.11-1.36.32-.41.2-.77.51-1.07.91-.3.41-.53.9-.69,1.49-.16.59-.25,1.26-.25,2.03v.49c0,.6.08,1.17.25,1.7.17.52.42.98.74,1.38.33.4.72.71,1.18.94.47.23,1,.34,1.59.34.77,0,1.41-.16,1.95-.47.53-.31,1-.73,1.39-1.25l1.31,1.04c-.27.41-.62.81-1.04,1.18-.42.38-.94.68-1.56.91-.61.23-1.33.35-2.17.35Zm9.63-10.92v10.69h-2.17v-12.68h2.11l.06,1.99Zm3.96-2.06v2.02c-.19-.04-.36-.06-.53-.07-.16-.02-.34-.02-.54-.02-.5,0-.94.08-1.32.23-.38.16-.71.38-.97.66-.27.28-.48.62-.63,1.01-.15.38-.25.8-.29,1.27l-.61.35c0-.77.07-1.48.22-2.16.16-.67.39-1.27.71-1.78.32-.52.73-.93,1.22-1.22.5-.3,1.09-.45,1.78-.45.16,0,.34.02.54.06.2.03.34.07.42.11Zm4.36.07v12.68h-2.18v-12.68h2.18Zm-2.34-3.36c0-.35.11-.65.32-.89.22-.24.54-.36.96-.36s.73.12.95.36c.23.24.34.54.34.89s-.11.62-.34.87c-.22.23-.54.35-.95.35s-.74-.12-.96-.35c-.21-.24-.32-.53-.32-.87Zm7.99,6.07v9.97h-2.17v-12.68h2.05l.12,2.71Zm-.52,3.15l-.9-.04c0-.87.14-1.67.39-2.4.25-.74.6-1.39,1.05-1.93.45-.55.99-.97,1.62-1.27.63-.3,1.33-.46,2.1-.46.62,0,1.19.09,1.69.26.5.16.93.43,1.28.8.36.37.63.84.82,1.43.19.58.28,1.29.28,2.12v8.31h-2.18v-8.33c0-.66-.1-1.2-.29-1.59-.2-.41-.48-.7-.86-.88-.38-.19-.84-.28-1.38-.28s-1.03.11-1.48.34c-.44.23-.82.54-1.14.94-.31.4-.56.86-.74,1.37-.17.51-.26,1.05-.26,1.62Zm13.97-11.18v18h-2.18v-18h2.18Zm5.84,5.32v12.68h-2.18v-12.68h2.18Zm-2.34-3.36c0-.35.11-.65.32-.89.22-.24.54-.36.96-.36s.73.12.95.36c.23.24.34.54.34.89s-.11.62-.34.87c-.22.23-.54.35-.95.35s-.74-.12-.96-.35c-.21-.24-.32-.53-.32-.87Zm8-1.96v18h-2.18v-18h2.18Zm7.75,5.32l-5.53,5.92-3.09,3.21-.18-2.31,2.21-2.65,3.94-4.17h2.65Zm-1.98,12.68l-4.52-6.05,1.12-1.93,5.95,7.98h-2.56Zm16.34-17.06v17.06h-2.23v-17.06h2.23Zm5.48,0v1.85h-13.18v-1.85h13.18Zm8.34,14.89v-6.53c0-.5-.1-.93-.31-1.3-.19-.38-.49-.66-.89-.87-.4-.2-.89-.3-1.48-.3-.55,0-1.03.09-1.44.28-.41.19-.73.43-.96.74-.23.3-.34.63-.34.98h-2.17c0-.45.12-.9.35-1.35.23-.45.57-.85,1.01-1.21.45-.37.98-.66,1.59-.87.62-.22,1.32-.33,2.09-.33.92,0,1.73.16,2.44.47.71.31,1.26.79,1.66,1.42.41.62.61,1.41.61,2.36v5.91c0,.42.04.87.1,1.35.08.48.19.89.34,1.23v.19h-2.26c-.11-.25-.2-.58-.26-1-.06-.42-.09-.81-.09-1.17Zm.38-5.52l.02,1.52h-2.19c-.62,0-1.17.05-1.65.15-.49.09-.89.24-1.22.43-.33.2-.58.44-.75.74-.17.29-.26.63-.26,1.02s.09.76.27,1.09c.18.33.45.59.81.79.37.19.82.28,1.35.28.66,0,1.25-.14,1.76-.42.51-.28.91-.62,1.21-1.03.3-.41.47-.8.49-1.18l.93,1.04c-.05.33-.2.69-.45,1.09-.24.4-.57.78-.97,1.15-.4.36-.88.66-1.43.9-.55.23-1.16.35-1.85.35-.86,0-1.61-.17-2.26-.5-.64-.34-1.14-.79-1.5-1.35-.35-.57-.53-1.21-.53-1.91s.13-1.28.4-1.79c.27-.52.65-.96,1.15-1.3.5-.35,1.1-.62,1.81-.8.7-.18,1.49-.27,2.36-.27h2.52Zm5.19-10.31h2.18v15.54l-.19,2.46h-1.99v-18Zm10.75,11.55v.25c0,.92-.11,1.78-.33,2.57-.22.78-.54,1.46-.96,2.04-.42.58-.94,1.03-1.55,1.35-.61.32-1.31.48-2.1.48s-1.51-.14-2.12-.41c-.6-.28-1.11-.68-1.52-1.21-.41-.52-.75-1.16-1-1.9-.24-.74-.41-1.58-.5-2.51v-1.08c.09-.94.26-1.78.5-2.52.25-.74.58-1.38,1-1.9.42-.53.92-.93,1.52-1.21.6-.28,1.3-.42,2.1-.42s1.5.16,2.12.47c.62.3,1.13.74,1.55,1.31.42.57.74,1.25.96,2.05.22.79.33,1.67.33,2.64Zm-2.18.25v-.25c0-.63-.06-1.23-.18-1.78-.12-.56-.31-1.05-.56-1.48-.26-.43-.6-.77-1.02-1.01-.42-.25-.94-.38-1.56-.38-.55,0-1.02.09-1.43.28-.4.19-.74.44-1.02.76-.28.31-.51.67-.69,1.08-.17.4-.3.81-.39,1.24v2.82c.12.55.33,1.07.61,1.58.29.5.67.91,1.15,1.23.48.32,1.08.48,1.79.48.59,0,1.09-.12,1.5-.35.42-.24.76-.57,1.02-1,.27-.42.46-.91.59-1.46s.19-1.15.19-1.78Zm7.28-11.8v18h-2.18v-18h2.18Zm2.91,11.8v-.27c0-.91.13-1.76.4-2.54.27-.79.65-1.47,1.15-2.05.5-.59,1.11-1.04,1.82-1.36.71-.33,1.51-.49,2.39-.49s1.69.16,2.4.49c.72.32,1.33.77,1.83,1.36.51.58.89,1.26,1.16,2.05.27.78.4,1.63.4,2.54v.27c0,.91-.13,1.76-.4,2.54-.27.78-.65,1.46-1.16,2.05-.5.58-1.11,1.03-1.82,1.36-.7.32-1.5.48-2.39.48s-1.69-.16-2.4-.48c-.71-.33-1.32-.78-1.83-1.36-.5-.59-.88-1.27-1.15-2.05-.27-.78-.4-1.63-.4-2.54Zm2.17-.27v.27c0,.63.08,1.23.22,1.79.15.55.37,1.05.67,1.48.3.43.68.77,1.14,1.02.45.24.98.36,1.58.36s1.11-.12,1.56-.36c.45-.25.83-.59,1.12-1.02.3-.43.52-.92.67-1.48.16-.56.24-1.16.24-1.79v-.27c0-.62-.08-1.21-.24-1.77-.15-.56-.38-1.06-.68-1.49-.3-.44-.67-.78-1.12-1.03-.45-.25-.97-.38-1.57-.38s-1.12.12-1.57.38c-.45.25-.82.59-1.12,1.03-.3.43-.52.93-.67,1.49-.15.55-.22,1.14-.22,1.77Zm19.48,3.11c0-.31-.07-.6-.21-.87-.13-.27-.41-.52-.83-.74-.41-.23-1.04-.42-1.88-.59-.7-.15-1.34-.32-1.91-.53-.56-.2-1.04-.45-1.44-.74-.39-.29-.69-.63-.9-1.02-.21-.39-.32-.85-.32-1.37s.11-.97.33-1.42c.23-.45.54-.84.95-1.18.41-.34.91-.61,1.49-.81.58-.2,1.22-.29,1.93-.29,1.02,0,1.88.18,2.6.54.72.36,1.27.84,1.65,1.44.38.59.57,1.25.57,1.98h-2.17c0-.35-.1-.69-.32-1.02-.2-.34-.5-.61-.9-.83-.39-.22-.87-.33-1.44-.33-.6,0-1.09.09-1.46.28-.37.18-.64.41-.81.69-.17.28-.25.58-.25.89,0,.23.04.45.12.63.09.18.23.35.44.5.21.15.51.29.89.42.38.13.87.27,1.46.4,1.04.23,1.9.52,2.57.84.67.33,1.17.73,1.5,1.21.33.48.49,1.05.49,1.73,0,.55-.12,1.06-.35,1.52-.23.46-.56.86-1,1.2-.43.33-.95.59-1.55.77-.59.18-1.26.27-2,.27-1.12,0-2.06-.2-2.84-.6-.77-.4-1.36-.91-1.76-1.55-.4-.63-.6-1.3-.6-2h2.18c.03.59.2,1.07.51,1.42.31.34.7.59,1.15.74.45.14.9.21,1.35.21.59,0,1.09-.08,1.49-.23.41-.16.72-.37.93-.64.21-.27.32-.59.32-.94Zm12.77.43v-9.75h2.18v12.68h-2.07l-.11-2.93Zm.41-2.67l.9-.02c0,.84-.09,1.62-.27,2.34-.17.71-.45,1.33-.84,1.85-.39.52-.9.93-1.54,1.23-.63.29-1.4.43-2.31.43-.62,0-1.18-.09-1.7-.27-.51-.18-.95-.46-1.31-.83-.37-.38-.65-.86-.86-1.46-.2-.6-.29-1.32-.29-2.17v-8.18h2.17v8.2c0,.57.06,1.04.19,1.42.13.37.31.66.53.88.23.21.48.36.75.45.28.09.57.13.87.13.92,0,1.65-.18,2.19-.53.54-.36.93-.84,1.16-1.44.24-.61.36-1.29.36-2.03Z" style="fill:#1d2229;"/><path d="m463.59,32.63l-3.77,10.37h-1.54l4.34-11.38h.99l-.02,1.01Zm3.16,10.37l-3.77-10.37-.02-1.01h.99l4.35,11.38h-1.55Zm-.2-4.21v1.23h-6.39v-1.23h6.39Zm4.62-7.79v12h-1.45v-12h1.45Zm3.88,3.55v8.45h-1.45v-8.45h1.45Zm7.33,6.21c0-.21-.05-.4-.14-.58-.09-.18-.27-.35-.55-.49-.28-.15-.69-.28-1.25-.39-.47-.1-.89-.22-1.27-.35-.38-.14-.7-.3-.96-.49-.26-.19-.46-.42-.6-.68-.14-.26-.21-.57-.21-.91s.07-.65.22-.95c.15-.3.36-.56.63-.79.28-.23.61-.41.99-.54.39-.13.82-.2,1.29-.2.68,0,1.26.12,1.73.36s.85.56,1.1.96c.26.4.38.84.38,1.32h-1.45c0-.23-.07-.46-.21-.68-.14-.22-.34-.41-.6-.55-.26-.15-.58-.22-.96-.22-.4,0-.73.06-.98.19-.24.12-.42.27-.54.46-.11.19-.16.39-.16.59,0,.16.03.3.08.42.06.12.16.23.3.34.14.1.34.19.59.28.26.09.58.18.98.27.69.16,1.26.34,1.71.56s.78.49,1,.8.33.7.33,1.16c0,.37-.08.71-.23,1.02-.15.31-.37.57-.66.8-.29.22-.63.39-1.03.52-.4.12-.84.18-1.34.18-.74,0-1.38-.13-1.89-.4-.52-.27-.91-.61-1.17-1.03-.27-.42-.4-.87-.4-1.34h1.45c.02.4.14.71.34.95.21.23.46.39.77.49.3.09.6.14.9.14.4,0,.73-.05.99-.16.27-.1.48-.25.62-.43s.21-.39.21-.62Zm-2.11,2.32h1.04l-.09.41c.3.05.58.18.82.38.25.2.38.52.38.98,0,.24-.05.47-.16.66-.1.2-.25.38-.45.52-.2.15-.45.26-.74.34-.29.08-.63.12-1.02.12l-.05-.84c.24,0,.46-.03.65-.08.2-.05.35-.14.47-.25.12-.11.18-.26.18-.45,0-.17-.04-.31-.13-.41-.09-.1-.23-.17-.41-.23-.18-.05-.42-.08-.71-.1l.24-1.05Zm8.46-5.51v1.19h-3.81v-1.19h3.81Zm7.7,2.55c0-.27-.04-.5-.12-.7-.08-.21-.22-.4-.42-.56-.2-.17-.47-.33-.83-.48-.35-.15-.79-.3-1.33-.46-.56-.17-1.07-.35-1.52-.55-.45-.21-.84-.45-1.16-.71-.32-.27-.57-.57-.74-.91-.17-.34-.26-.74-.26-1.18s.09-.85.27-1.23c.18-.38.44-.7.78-.98.34-.28.75-.5,1.23-.66.47-.16,1-.23,1.59-.23.85,0,1.58.16,2.17.49.6.32,1.05.75,1.37,1.27.31.52.47,1.08.47,1.67h-1.5c0-.43-.09-.8-.27-1.13-.18-.33-.46-.59-.83-.78-.37-.19-.84-.29-1.41-.29-.54,0-.98.08-1.33.24-.35.16-.61.38-.78.66-.17.28-.25.59-.25.95,0,.24.05.46.15.66.1.19.26.37.48.54.22.17.49.32.83.46.34.14.74.28,1.21.41.65.18,1.2.39,1.67.61.47.22.85.48,1.16.76.31.28.53.59.68.95.15.35.23.74.23,1.19s-.09.88-.28,1.26c-.19.38-.46.7-.8.96-.35.27-.77.47-1.26.62-.48.14-1.03.21-1.62.21-.53,0-1.04-.07-1.55-.22-.51-.15-.97-.36-1.38-.66-.41-.29-.74-.65-.99-1.08-.24-.43-.37-.93-.37-1.5h1.5c0,.39.08.73.23,1.01.15.28.36.51.62.69.27.18.57.32.9.41.34.08.69.12,1.05.12.53,0,.97-.07,1.34-.22.36-.15.64-.35.83-.62.19-.27.29-.59.29-.96Zm8.2,1.43v-4.35c0-.33-.07-.62-.2-.87-.13-.25-.33-.44-.59-.58-.27-.14-.59-.2-.98-.2-.36,0-.68.06-.96.19-.27.12-.48.29-.64.49-.15.2-.23.42-.23.66h-1.45c0-.3.08-.6.23-.9.16-.3.38-.57.67-.8.3-.24.65-.44,1.06-.58.42-.15.88-.22,1.39-.22.61,0,1.16.1,1.62.31.47.21.84.52,1.11.95.27.42.41.94.41,1.57v3.94c0,.28.02.58.07.9.05.32.13.59.23.82v.12h-1.51c-.07-.17-.13-.39-.17-.66-.04-.28-.06-.54-.06-.78Zm.25-3.68l.02,1.02h-1.46c-.41,0-.78.03-1.1.1-.32.06-.59.16-.81.29-.22.13-.39.29-.5.49-.11.19-.17.42-.17.68s.06.51.18.73c.12.22.3.39.54.52.24.12.54.19.9.19.44,0,.83-.09,1.17-.28.34-.19.61-.42.8-.69.2-.27.31-.53.33-.79l.62.7c-.04.22-.14.46-.3.73-.16.27-.38.52-.65.77-.27.24-.58.44-.95.6-.36.16-.78.23-1.23.23-.57,0-1.08-.11-1.51-.34-.43-.22-.76-.52-1-.9-.23-.38-.35-.8-.35-1.27s.09-.85.27-1.2c.18-.35.43-.64.77-.87.33-.23.73-.41,1.2-.53s.99-.18,1.57-.18h1.68Zm7.01-3.33v1.11h-4.57v-1.11h4.57Zm-3.02-2.05h1.45v8.41c0,.29.04.5.13.65.09.15.2.24.34.29.14.05.29.07.45.07.12,0,.24-.01.38-.03.14-.03.24-.05.3-.06v1.18c-.11.04-.26.07-.45.1-.18.04-.4.05-.66.05-.35,0-.68-.07-.98-.21-.3-.14-.53-.38-.71-.7-.17-.33-.26-.78-.26-1.34v-8.41Zm6.28,2.05v8.45h-1.45v-8.45h1.45Zm7.33,6.21c0-.21-.05-.4-.14-.58-.09-.18-.27-.35-.55-.49-.28-.15-.69-.28-1.25-.39-.47-.1-.89-.22-1.27-.35-.38-.14-.7-.3-.96-.49-.26-.19-.46-.42-.6-.68-.14-.26-.21-.57-.21-.91s.07-.65.22-.95c.15-.3.36-.56.63-.79.28-.23.61-.41.99-.54.39-.13.82-.2,1.29-.2.68,0,1.26.12,1.73.36s.85.56,1.1.96c.26.4.38.84.38,1.32h-1.45c0-.23-.07-.46-.21-.68-.14-.22-.34-.41-.6-.55-.26-.15-.58-.22-.96-.22-.4,0-.73.06-.98.19-.24.12-.42.27-.54.46-.11.19-.16.39-.16.59,0,.16.03.3.08.42.06.12.16.23.3.34.14.1.34.19.59.28.26.09.58.18.98.27.69.16,1.26.34,1.71.56s.78.49,1,.8.33.7.33,1.16c0,.37-.08.71-.23,1.02-.15.31-.37.57-.66.8-.29.22-.63.39-1.03.52-.4.12-.84.18-1.34.18-.74,0-1.38-.13-1.89-.4-.52-.27-.91-.61-1.17-1.03-.27-.42-.4-.87-.4-1.34h1.45c.02.4.14.71.34.95.21.23.46.39.77.49.3.09.6.14.9.14.4,0,.73-.05.99-.16.27-.1.48-.25.62-.43.14-.18.21-.39.21-.62Zm-2.11,2.32h1.04l-.09.41c.3.05.58.18.82.38.25.2.38.52.38.98,0,.24-.05.47-.16.66-.1.2-.25.38-.45.52-.2.15-.45.26-.74.34-.29.08-.63.12-1.02.12l-.05-.84c.24,0,.46-.03.65-.08.2-.05.35-.14.47-.25.12-.11.18-.26.18-.45,0-.17-.04-.31-.13-.41-.09-.1-.23-.17-.41-.23-.18-.05-.42-.08-.71-.1l.24-1.05Zm11.15-11.45v11.38h-1.51v-11.38h1.51Zm4.77,5.12v1.23h-5.09v-1.23h5.09Zm.77-5.12v1.23h-5.87v-1.23h5.87Zm6.3,9.93v-4.35c0-.33-.07-.62-.2-.87-.13-.25-.33-.44-.59-.58-.27-.14-.59-.2-.98-.2-.36,0-.68.06-.96.19-.27.12-.48.29-.64.49-.15.2-.23.42-.23.66h-1.45c0-.3.08-.6.23-.9.16-.3.38-.57.67-.8.3-.24.65-.44,1.06-.58.42-.15.88-.22,1.39-.22.61,0,1.16.1,1.62.31.47.21.84.52,1.11.95.27.42.41.94.41,1.57v3.94c0,.28.02.58.07.9.05.32.13.59.23.82v.12h-1.51c-.07-.17-.13-.39-.17-.66-.04-.28-.06-.54-.06-.78Zm.25-3.68l.02,1.02h-1.46c-.41,0-.78.03-1.1.1-.32.06-.59.16-.81.29-.22.13-.39.29-.5.49-.11.19-.17.42-.17.68s.06.51.18.73c.12.22.3.39.54.52.24.12.54.19.9.19.44,0,.83-.09,1.17-.28.34-.19.61-.42.8-.69.2-.27.31-.53.33-.79l.62.7c-.04.22-.14.46-.3.73-.16.27-.38.52-.65.77-.27.24-.58.44-.95.6-.36.16-.78.23-1.23.23-.57,0-1.08-.11-1.51-.34-.43-.22-.76-.52-1-.9-.23-.38-.35-.8-.35-1.27s.09-.85.27-1.2c.18-.35.43-.64.77-.87.33-.23.73-.41,1.2-.53.47-.12.99-.18,1.57-.18h1.68Zm4.91-2v7.12h-1.45v-8.45h1.41l.04,1.33Zm2.64-1.38v1.34c-.13-.03-.24-.04-.35-.05-.1-.01-.22-.02-.36-.02-.33,0-.63.05-.88.16-.26.1-.47.25-.65.44s-.32.41-.42.67c-.1.26-.16.54-.2.84l-.41.23c0-.51.05-.99.15-1.44.1-.45.26-.84.48-1.19.21-.35.48-.62.81-.81.33-.2.73-.3,1.19-.3.1,0,.22.01.36.04.14.02.23.04.28.07Zm2.79-3.5v12h-1.45v-12h1.45Zm5.16,3.55l-3.69,3.95-2.06,2.14-.12-1.54,1.48-1.77,2.62-2.78h1.77Zm-1.32,8.45l-3.02-4.03.75-1.29,3.97,5.32h-1.7Zm4.38-8.45v8.45h-1.45v-8.45h1.45Z" style="fill:rgba(29,34,41,.6);"/><path d="m575.52,36.41v1.73c0,.93-.08,1.72-.25,2.36-.17.64-.41,1.16-.72,1.55-.31.39-.69.67-1.13.85-.44.17-.93.26-1.48.26-.44,0-.84-.05-1.21-.16-.37-.11-.7-.28-1-.52-.29-.24-.54-.56-.75-.95-.21-.39-.37-.86-.48-1.42-.11-.56-.16-1.21-.16-1.95v-1.73c0-.93.08-1.71.25-2.34.17-.63.41-1.14.73-1.52.31-.39.69-.66,1.12-.83.44-.17.94-.25,1.48-.25.44,0,.85.05,1.22.16.38.1.71.27,1,.51.29.23.54.54.74.92.21.38.37.85.48,1.4.11.55.16,1.2.16,1.95Zm-1.45,1.97v-2.21c0-.51-.03-.96-.09-1.34-.06-.39-.14-.72-.26-1-.11-.28-.26-.5-.44-.67-.17-.17-.37-.3-.6-.38-.22-.08-.48-.12-.76-.12-.34,0-.65.07-.91.2-.27.12-.49.33-.67.6-.18.28-.31.64-.41,1.09-.09.45-.14.99-.14,1.63v2.21c0,.51.03.96.09,1.35.06.39.15.73.27,1.02.12.28.27.51.44.7s.37.32.59.41c.23.08.48.12.76.12.35,0,.66-.07.93-.2.27-.14.49-.35.66-.63.18-.29.32-.66.41-1.12.09-.46.13-1.01.13-1.64Zm3.49,3.86c0-.24.08-.45.23-.62.16-.17.38-.26.67-.26s.51.09.66.26c.16.17.23.37.23.62s-.08.44-.23.61c-.15.17-.37.25-.66.25s-.52-.08-.67-.25c-.15-.17-.23-.37-.23-.61Zm11.18-5.83v1.73c0,.93-.08,1.72-.25,2.36-.17.64-.41,1.16-.72,1.55-.31.39-.69.67-1.13.85-.44.17-.93.26-1.48.26-.44,0-.84-.05-1.21-.16-.37-.11-.7-.28-1-.52-.29-.24-.54-.56-.75-.95-.21-.39-.37-.86-.48-1.42-.11-.56-.16-1.21-.16-1.95v-1.73c0-.93.08-1.71.25-2.34.17-.63.41-1.14.73-1.52.31-.39.69-.66,1.12-.83.44-.17.94-.25,1.48-.25.44,0,.85.05,1.22.16.38.1.71.27,1,.51.29.23.54.54.74.92.21.38.37.85.48,1.4.11.55.16,1.2.16,1.95Zm-1.45,1.97v-2.21c0-.51-.03-.96-.09-1.34-.06-.39-.14-.72-.26-1-.11-.28-.26-.5-.44-.67-.17-.17-.37-.3-.6-.38-.22-.08-.48-.12-.76-.12-.34,0-.65.07-.91.2-.27.12-.49.33-.67.6-.18.28-.31.64-.41,1.09-.09.45-.14.99-.14,1.63v2.21c0,.51.03.96.09,1.35.06.39.15.73.27,1.02.12.28.27.51.44.7s.37.32.59.41c.23.08.48.12.76.12.35,0,.66-.07.93-.2.27-.14.49-.35.66-.63.18-.29.32-.66.41-1.12.09-.46.13-1.01.13-1.64Zm10.77,3.44v1.19h-7.45v-1.04l3.73-4.15c.46-.51.81-.94,1.06-1.3.26-.36.43-.68.53-.96.1-.29.16-.58.16-.88,0-.38-.08-.71-.23-1.02-.15-.31-.38-.55-.67-.73s-.66-.27-1.08-.27c-.51,0-.93.1-1.27.3-.33.19-.58.46-.75.81-.17.35-.25.75-.25,1.2h-1.45c0-.64.14-1.23.42-1.76.28-.53.7-.95,1.25-1.27.55-.32,1.23-.48,2.04-.48.72,0,1.33.13,1.84.38.51.25.9.6,1.17,1.06.28.45.41.98.41,1.59,0,.33-.06.67-.17,1.02-.11.34-.26.68-.46,1.02-.19.34-.42.67-.68,1-.26.33-.53.65-.82.97l-3.05,3.3h5.7Zm3.66-5.21h1.03c.51,0,.92-.08,1.25-.25.33-.17.58-.4.74-.7.17-.3.25-.63.25-1,0-.44-.07-.8-.22-1.1-.15-.3-.36-.52-.66-.67-.29-.15-.66-.23-1.11-.23-.41,0-.77.08-1.08.24-.31.16-.55.38-.73.67-.17.29-.26.64-.26,1.03h-1.45c0-.58.15-1.1.44-1.58.29-.47.7-.85,1.23-1.13.53-.28,1.15-.42,1.84-.42s1.29.12,1.8.37c.52.24.92.6,1.2,1.08.29.47.43,1.07.43,1.77,0,.29-.07.59-.2.92-.13.32-.34.62-.62.91-.28.28-.64.51-1.08.7-.44.18-.97.27-1.59.27h-1.23v-.88Zm0,1.19v-.87h1.23c.72,0,1.32.09,1.8.26.47.17.85.4,1.12.69.28.29.47.6.58.95.11.34.17.68.17,1.02,0,.53-.09,1-.27,1.41-.18.41-.43.76-.76,1.05-.32.29-.7.5-1.14.65-.44.15-.91.22-1.43.22s-.96-.07-1.4-.21c-.43-.14-.82-.34-1.15-.61-.33-.27-.59-.6-.78-.99-.19-.4-.28-.85-.28-1.35h1.45c0,.4.09.74.26,1.04.18.3.43.53.75.7.33.16.71.24,1.16.24s.82-.08,1.14-.23c.32-.16.57-.39.74-.7.18-.31.27-.71.27-1.18s-.1-.86-.3-1.16c-.2-.31-.48-.53-.84-.68-.36-.15-.78-.23-1.27-.23h-1.03Zm15.12-6.16v11.38h-1.48v-11.38h1.48Zm3.66,0v1.23h-8.79v-1.23h8.79Zm1.69,0h3.77c.85,0,1.58.13,2.16.39.59.26,1.04.65,1.35,1.16.31.51.47,1.13.47,1.87,0,.52-.11,1-.32,1.43-.21.43-.51.79-.91,1.09-.39.3-.86.52-1.41.66l-.42.16h-3.54l-.02-1.23h2.67c.54,0,.99-.09,1.35-.28.36-.19.63-.45.81-.77.18-.32.27-.68.27-1.07,0-.44-.09-.82-.26-1.15-.17-.33-.44-.58-.81-.76-.36-.18-.84-.27-1.41-.27h-2.26v10.14h-1.51v-11.38Zm6.65,11.38l-2.77-5.16h1.57s2.8,5.06,2.8,5.06v.09h-1.61Zm3.36-11.38l2.95,5.71,2.96-5.71h1.71l-3.92,7.12v4.25h-1.51v-4.25l-3.92-7.12h1.73Z" style="fill:#53ae32;"/><circle cx="232" cy="254" r="5.5" style="fill:#53ae32; stroke:#fff;"/><rect x="158" y="204" width="147" height="36" rx="4" ry="4" style="fill:rgba(98,98,97,.9);"/><path d="m170.84,210.43l-3.29,9.07h-1.35l3.79-9.95h.87l-.02.88Zm2.76,9.07l-3.3-9.07-.02-.88h.87l3.81,9.95h-1.35Zm-.17-3.68v1.08h-5.59v-1.08h5.59Zm4.14-6.82v10.5h-1.27v-10.5h1.27Zm3.5,3.1v7.4h-1.26v-7.4h1.26Zm6.51,5.43c0-.18-.04-.35-.12-.51-.08-.16-.24-.3-.49-.43-.24-.13-.61-.25-1.09-.34-.41-.09-.78-.19-1.11-.31-.33-.12-.61-.26-.84-.43-.23-.17-.4-.37-.53-.59s-.18-.49-.18-.8.06-.57.19-.83c.13-.26.32-.49.55-.69.24-.2.53-.36.87-.47.34-.11.71-.17,1.13-.17.59,0,1.1.11,1.52.31.42.21.74.49.96.84.22.35.34.73.34,1.15h-1.26c0-.2-.06-.4-.18-.59-.12-.2-.29-.36-.53-.49-.23-.13-.51-.19-.84-.19-.35,0-.64.06-.85.16-.21.1-.37.24-.47.4-.1.16-.14.34-.14.52,0,.14.02.26.07.37.05.1.14.2.26.29.12.09.3.17.52.25.22.08.51.15.86.23.61.14,1.1.3,1.5.49.39.19.68.43.88.7.19.28.29.62.29,1.01,0,.32-.07.62-.21.89-.13.27-.33.5-.58.7-.25.19-.55.34-.9.45-.35.1-.74.16-1.17.16-.65,0-1.2-.12-1.65-.35-.45-.23-.79-.53-1.02-.9-.23-.37-.35-.76-.35-1.17h1.27c.02.35.12.62.3.83.18.2.41.34.67.43.26.08.53.12.79.12.35,0,.64-.05.87-.14.24-.09.42-.22.54-.38.12-.16.18-.34.18-.55Zm-1.85,2.03h.91l-.08.36c.26.04.5.15.72.33.22.17.33.46.33.85,0,.21-.05.41-.14.58-.09.18-.22.33-.39.45-.17.13-.39.23-.65.29-.26.07-.55.1-.9.1l-.05-.73c.21,0,.4-.02.57-.07.17-.04.31-.12.41-.22.1-.1.16-.23.16-.39s-.04-.27-.12-.36c-.08-.09-.2-.15-.36-.2-.16-.04-.37-.07-.62-.09l.21-.92Zm9.95-10.02v9.95h-1.32v-9.95h1.32Zm4.17,4.48v1.08h-4.46v-1.08h4.46Zm.68-4.48v1.08h-5.13v-1.08h5.13Zm2.86,2.56v7.4h-1.27v-7.4h1.27Zm-1.37-1.96c0-.21.06-.38.18-.52.13-.14.32-.21.56-.21s.43.07.55.21c.13.14.2.32.2.52s-.07.36-.2.51c-.13.14-.31.21-.55.21s-.43-.07-.56-.21c-.12-.14-.18-.31-.18-.51Zm5.57,8.59l2.06-6.63h1.35l-2.97,8.54c-.07.18-.16.38-.27.59-.11.21-.25.42-.42.61-.17.19-.38.35-.63.46-.24.12-.53.18-.87.18-.1,0-.23-.01-.38-.04-.15-.03-.26-.05-.33-.07v-1.03s.09,0,.16.01c.08,0,.14.01.17.01.29,0,.53-.04.73-.12.2-.07.37-.2.51-.38.14-.17.26-.41.36-.72l.53-1.44Zm-1.51-6.63l1.92,5.74.33,1.33-.91.46-2.72-7.54h1.38Zm10.41,6.13v-3.81c0-.29-.06-.54-.18-.76-.11-.22-.29-.39-.52-.51-.23-.12-.52-.18-.86-.18-.32,0-.6.05-.84.16-.24.11-.42.25-.56.43-.13.18-.2.37-.2.57h-1.26c0-.26.07-.53.21-.79.14-.26.33-.49.59-.7.26-.21.57-.38.93-.51.36-.13.77-.19,1.22-.19.54,0,1.01.09,1.42.27.41.18.74.46.97.83.24.37.36.82.36,1.37v3.45c0,.25.02.51.06.79.05.28.11.52.2.72v.11h-1.32c-.06-.15-.11-.34-.15-.58-.04-.25-.06-.47-.06-.68Zm.22-3.22v.89s-1.27,0-1.27,0c-.36,0-.68.03-.96.09-.28.06-.52.14-.71.25-.19.11-.34.26-.44.43-.1.17-.15.37-.15.59s.05.45.16.64c.1.19.26.34.47.46.21.11.48.16.79.16.39,0,.73-.08,1.03-.25s.53-.36.7-.6c.18-.24.27-.47.29-.69l.54.61c-.03.19-.12.4-.26.63-.14.23-.33.46-.57.67-.23.21-.51.38-.83.53-.32.14-.68.2-1.08.2-.5,0-.94-.1-1.32-.29-.37-.2-.67-.46-.88-.79-.21-.33-.31-.7-.31-1.12s.08-.74.23-1.05c.15-.3.38-.56.67-.76.29-.21.64-.36,1.05-.46.41-.11.87-.16,1.37-.16h1.47Zm6.23-2.91v.97h-4v-.97h4Zm-2.65-1.8h1.26v7.36c0,.25.04.44.12.57.08.13.18.21.3.25s.26.06.4.06c.11,0,.21,0,.33-.03.12-.02.21-.04.27-.05v1.03c-.09.03-.23.06-.39.09-.16.03-.35.05-.58.05-.31,0-.59-.06-.85-.18-.26-.12-.47-.33-.62-.61-.15-.29-.23-.68-.23-1.18v-7.35Zm5.6,1.8v7.4h-1.26v-7.4h1.26Zm2.15,6.73c0-.21.07-.39.2-.54.14-.15.33-.23.59-.23s.45.08.58.23c.14.15.21.33.21.54s-.07.39-.21.53c-.13.15-.33.22-.58.22s-.45-.07-.59-.22c-.13-.15-.2-.32-.2-.53Zm0-6.04c0-.21.07-.39.2-.54.14-.15.33-.23.59-.23s.45.08.58.23c.14.15.21.33.21.54s-.07.39-.21.53c-.13.15-.33.22-.58.22s-.45-.07-.59-.22c-.13-.15-.2-.32-.2-.53Zm7.97-.69l1.62,2.69,1.64-2.69h1.48l-2.42,3.65,2.5,3.75h-1.46l-1.71-2.77-1.71,2.77h-1.47l2.49-3.75-2.41-3.65h1.46Zm7.04,0l1.62,2.69,1.64-2.69h1.48l-2.42,3.65,2.5,3.75h-1.46l-1.71-2.77-1.71,2.77h-1.47l2.49-3.75-2.41-3.65h1.46Zm7.04,0l1.62,2.69,1.64-2.69h1.48l-2.42,3.65,2.5,3.75h-1.46l-1.71-2.77-1.71,2.77h-1.47l2.49-3.75-2.41-3.65h1.46Zm7.04,0l1.62,2.69,1.64-2.69h1.48l-2.42,3.65,2.49,3.75h-1.46l-1.71-2.77-1.71,2.77h-1.47l2.49-3.75-2.41-3.65h1.46Zm7.05,0l1.62,2.69,1.64-2.69h1.48l-2.42,3.65,2.49,3.75h-1.46l-1.71-2.77-1.71,2.77h-1.47l2.49-3.75-2.41-3.65h1.46Zm7.05,0l1.62,2.69,1.64-2.69h1.48l-2.42,3.65,2.49,3.75h-1.46l-1.71-2.77-1.71,2.77h-1.47l2.49-3.75-2.41-3.65h1.46Zm-100.42,13.32l-3.29,9.07h-1.35l3.79-9.95h.87l-.02.88Zm2.76,9.07l-3.3-9.07-.02-.88h.87l3.81,9.95h-1.35Zm-.17-3.68v1.08h-5.59v-1.08h5.59Zm4.14-6.82v10.5h-1.27v-10.5h1.27Zm3.5,3.1v7.4h-1.26v-7.4h1.26Zm6.51,5.43c0-.18-.04-.35-.12-.51-.08-.16-.24-.3-.49-.43-.24-.13-.61-.25-1.09-.34-.41-.09-.78-.19-1.11-.31-.33-.12-.61-.26-.84-.43-.23-.17-.4-.37-.53-.59s-.18-.49-.18-.8.06-.57.19-.83c.13-.26.32-.49.55-.69.24-.2.53-.36.87-.47.34-.11.71-.17,1.13-.17.59,0,1.1.11,1.52.31.42.21.74.49.96.84.22.35.34.73.34,1.15h-1.26c0-.2-.06-.4-.18-.59-.12-.2-.29-.36-.53-.49-.23-.13-.51-.19-.84-.19-.35,0-.64.06-.85.16-.21.1-.37.24-.47.4-.1.16-.14.34-.14.52,0,.14.02.26.07.37.05.1.14.2.26.29.12.09.3.17.52.25.22.08.51.15.86.23.61.14,1.1.3,1.5.49.39.19.68.43.88.7.19.28.29.62.29,1.01,0,.32-.07.62-.21.89-.13.27-.33.5-.58.7-.25.19-.55.34-.9.45-.35.1-.74.16-1.17.16-.65,0-1.2-.12-1.65-.35-.45-.23-.79-.53-1.02-.9-.23-.37-.35-.76-.35-1.17h1.27c.02.35.12.62.3.83.18.2.41.34.67.43.26.08.53.12.79.12.35,0,.64-.05.87-.14.24-.09.42-.22.54-.38.12-.16.18-.34.18-.55Zm-1.85,2.03h.91l-.08.36c.26.04.5.15.72.33.22.17.33.46.33.85,0,.21-.05.41-.14.58-.09.18-.22.33-.39.45-.17.13-.39.23-.65.29-.26.07-.55.1-.9.1l-.05-.73c.21,0,.4-.02.57-.07.17-.04.31-.12.41-.22.1-.1.16-.23.16-.39s-.04-.27-.12-.36c-.08-.09-.2-.15-.36-.2-.16-.04-.37-.07-.62-.09l.21-.92Zm9.95-10.02v9.95h-1.32v-9.95h1.32Zm6.01,0l-4.14,4.64-2.32,2.41-.22-1.41,1.75-1.93,3.34-3.72h1.59Zm-1.27,9.95l-3.68-4.85.79-1.04,4.47,5.9h-1.57Zm7-1.71v-5.69h1.27v7.4h-1.21l-.06-1.71Zm.24-1.56h.53c0,.48-.05.94-.16,1.35-.1.42-.26.77-.49,1.08-.23.3-.53.54-.9.72-.37.17-.82.25-1.35.25-.36,0-.69-.05-.99-.16-.3-.1-.55-.27-.77-.49-.21-.22-.38-.5-.5-.85-.11-.35-.17-.77-.17-1.26v-4.77h1.26v4.79c0,.33.04.61.11.83.08.21.18.38.31.51.13.12.28.21.44.26.17.05.33.07.51.07.54,0,.96-.1,1.28-.31.31-.21.54-.49.68-.84.14-.35.21-.75.21-1.18Zm-4.05-6.1c0-.21.06-.38.19-.52.13-.14.31-.21.55-.21s.43.07.56.21c.13.14.19.32.19.52s-.06.36-.19.51c-.13.14-.31.21-.56.21s-.43-.07-.55-.21c-.13-.14-.19-.31-.19-.51Zm2.95.01c0-.21.06-.38.18-.52.13-.14.32-.21.56-.21s.43.07.55.21c.13.14.2.32.2.52s-.07.36-.2.51c-.13.14-.31.21-.55.21s-.43-.07-.56-.21c-.12-.14-.18-.31-.18-.51Zm5.43,3.43v5.93h-1.27v-7.4h1.2l.07,1.47Zm-.26,1.95l-.59-.02c0-.51.07-.97.2-1.4.13-.43.32-.81.57-1.13.25-.32.56-.57.94-.74.37-.18.81-.27,1.3-.27.35,0,.67.05.96.15.29.1.54.25.76.46.21.21.38.48.5.81.12.33.18.72.18,1.19v4.93h-1.26v-4.87c0-.39-.07-.7-.2-.93-.13-.23-.31-.4-.55-.51-.24-.11-.51-.16-.83-.16-.37,0-.69.07-.94.2-.25.13-.45.32-.6.55-.15.23-.26.5-.33.8-.06.3-.1.61-.1.94Zm4.79-.7l-.85.26c0-.41.07-.79.2-1.17.13-.37.32-.71.57-1,.25-.29.56-.52.92-.69.37-.17.78-.26,1.25-.26.4,0,.75.05,1.05.16.31.11.57.27.78.49.21.22.38.49.49.83.11.34.16.74.16,1.2v4.86h-1.27v-4.87c0-.42-.07-.74-.2-.96-.13-.23-.31-.39-.55-.49-.23-.1-.51-.14-.83-.14-.28,0-.52.05-.74.14-.22.1-.4.23-.54.4-.15.16-.26.35-.33.57-.07.21-.11.44-.11.68Zm11.11,2.97v-5.69h1.27v7.4h-1.21l-.06-1.71Zm.24-1.56h.53c0,.48-.05.94-.16,1.35-.1.42-.26.77-.49,1.08-.23.3-.53.54-.89.72-.37.17-.82.25-1.35.25-.36,0-.69-.05-.99-.16-.3-.1-.55-.27-.77-.49-.21-.22-.38-.5-.5-.85-.11-.35-.17-.77-.17-1.26v-4.77h1.26v4.79c0,.33.04.61.11.83.08.21.18.38.31.51.13.12.28.21.44.26.16.05.33.07.51.07.54,0,.96-.1,1.28-.31.31-.21.54-.49.68-.84.14-.35.21-.75.21-1.18Zm-4.05-6.1c0-.21.06-.38.19-.52.13-.14.31-.21.55-.21s.43.07.56.21c.13.14.19.32.19.52s-.06.36-.19.51c-.13.14-.31.21-.56.21s-.43-.07-.55-.21c-.13-.14-.19-.31-.19-.51Zm2.95.01c0-.21.06-.38.18-.52.13-.14.32-.21.56-.21s.43.07.55.21c.13.14.2.32.2.52s-.07.36-.2.51c-.13.14-.31.21-.55.21s-.43-.07-.56-.21c-.12-.14-.18-.31-.18-.51Zm5.54-1.14v10.5h-1.27v-10.5h1.27Zm6.49,9.24v-3.81c0-.29-.06-.54-.18-.76-.11-.22-.29-.39-.52-.51-.23-.12-.52-.18-.86-.18-.32,0-.6.05-.84.16-.24.11-.42.25-.56.43-.13.18-.2.37-.2.57h-1.26c0-.26.07-.53.21-.79.14-.26.33-.49.59-.7.26-.21.57-.38.93-.51.36-.13.77-.19,1.22-.19.54,0,1.01.09,1.42.27.42.18.74.46.97.83.24.37.35.82.35,1.37v3.45c0,.25.02.51.06.79.05.28.11.52.2.72v.11h-1.32c-.06-.15-.11-.34-.15-.58-.04-.25-.05-.47-.05-.68Zm.22-3.22v.89s-1.26,0-1.26,0c-.36,0-.68.03-.96.09-.28.06-.52.14-.71.25-.19.11-.34.26-.44.43-.1.17-.15.37-.15.59s.05.45.16.64c.11.19.26.34.47.46.21.11.48.16.79.16.39,0,.73-.08,1.03-.25.3-.16.53-.36.7-.6.18-.24.27-.47.29-.69l.54.61c-.03.19-.12.4-.26.63-.14.23-.33.46-.57.67-.23.21-.51.38-.83.53-.32.14-.68.2-1.08.2-.5,0-.94-.1-1.32-.29-.37-.2-.66-.46-.88-.79-.2-.33-.31-.7-.31-1.12s.08-.74.23-1.05c.15-.3.38-.56.67-.76.29-.21.64-.36,1.05-.46.41-.11.87-.16,1.37-.16h1.47Zm6.23-2.91v.97h-4v-.97h4Zm-2.65-1.8h1.26v7.36c0,.25.04.44.12.57.08.13.18.21.3.25s.25.06.4.06c.1,0,.21,0,.33-.03.12-.02.21-.04.27-.05v1.03c-.09.03-.23.06-.39.09-.16.03-.35.05-.58.05-.31,0-.59-.06-.85-.18-.26-.12-.47-.33-.62-.61-.15-.29-.23-.68-.23-1.18v-7.35Zm5.6,1.8v7.4h-1.27v-7.4h1.27Zm-1.37-1.96c0-.21.06-.38.18-.52.13-.14.32-.21.56-.21s.43.07.55.21c.13.14.2.32.2.52s-.07.36-.2.51c-.13.14-.31.21-.55.21s-.43-.07-.56-.21c-.12-.14-.18-.31-.18-.51Zm5.38,9.36h-1.27v-8.18c0-.53.1-.98.29-1.35.2-.37.48-.65.84-.83.37-.19.8-.29,1.3-.29.15,0,.29,0,.44.03.15.02.3.04.44.08l-.07,1.03c-.1-.02-.21-.04-.33-.05-.12,0-.24-.01-.36-.01-.27,0-.5.05-.7.16-.19.1-.34.26-.44.46-.1.21-.15.46-.15.76v8.18Zm1.57-7.4v.97h-4.01v-.97h4.01Zm1.45,6.73c0-.21.07-.39.2-.54.14-.15.33-.23.59-.23s.45.08.58.23c.14.15.21.33.21.54s-.07.39-.21.53c-.13.15-.33.22-.58.22s-.45-.07-.59-.22c-.13-.15-.2-.32-.2-.53Zm0-6.04c0-.21.07-.39.2-.54.14-.15.33-.23.59-.23s.45.08.58.23c.14.15.21.33.21.54s-.07.39-.21.53c-.13.15-.33.22-.58.22s-.45-.07-.59-.22c-.13-.15-.2-.32-.2-.53Zm7.97-.69l1.62,2.69,1.64-2.69h1.48l-2.42,3.65,2.49,3.75h-1.46l-1.71-2.77-1.71,2.77h-1.47l2.49-3.75-2.41-3.65h1.46Zm7.04,0l1.62,2.69,1.64-2.69h1.48l-2.42,3.65,2.49,3.75h-1.46l-1.71-2.77-1.71,2.77h-1.47l2.49-3.75-2.41-3.65h1.46Zm7.05,0l1.62,2.69,1.64-2.69h1.48l-2.42,3.65,2.5,3.75h-1.46l-1.71-2.77-1.71,2.77h-1.47l2.49-3.75-2.41-3.65h1.46Zm7.04,0l1.62,2.69,1.64-2.69h1.48l-2.42,3.65,2.49,3.75h-1.46l-1.71-2.77-1.71,2.77h-1.47l2.49-3.75-2.41-3.65h1.46Zm7.05,0l1.62,2.69,1.64-2.69h1.48l-2.42,3.65,2.49,3.75h-1.46l-1.71-2.77-1.71,2.77h-1.47l2.49-3.75-2.41-3.65h1.46Z" style="fill:#fff;"/><path d="m232,244l-2.6-4.5h5.2l-2.6,4.5Z" style="fill:#626261;"/></g></g></svg>