<?xml version="1.0" encoding="UTF-8"?><svg id="katman_2" xmlns="http://www.w3.org/2000/svg" xmlns:xlink="http://www.w3.org/1999/xlink" viewBox="0 0 100 34"><defs><linearGradient id="Adsız_degrade_2" x1="58.36" y1="-75.67" x2="58.36" y2="-110.47" gradientTransform="translate(-8.36 -76.47) scale(1 -1)" gradientUnits="userSpaceOnUse"><stop offset="0" stop-color="#432774"/><stop offset=".89" stop-color="#fff" stop-opacity="0"/></linearGradient></defs><g id="katman_1"><path d="m50.2,3.68c-2.76,0-11.48,4.57-15.2,4.57s-8.93,12.92-13.88,12.92S9.69,7.46,6.38,7.46,0,13.82,0,13.82v20.18h100V4.27c-2.76,0-4.75-4.27-7.45-4.27s-10.66,19.19-14.23,19.19-8.09-14.86-12.23-10.94c-4.14,3.92-13.11-4.57-15.88-4.57Z" style="fill:url(#Adsız_degrade_2);"/><path d="m52,14l1.53,1.53-1.93,1.91.95.95,1.91-1.93,1.53,1.53v-4h-4Zm-8,4l1.53-1.53,1.91,1.93.95-.95-1.93-1.91,1.53-1.53h-4v4Zm4,8l-1.53-1.53,1.93-1.91-.95-.95-1.91,1.93-1.53-1.53v4h4Zm8-4l-1.53,1.53-1.91-1.93-.95.95,1.93,1.91-1.53,1.53h4v-4Z" style="fill:#e94f3d;"/></g></svg>