<?xml version="1.0" encoding="UTF-8"?><svg id="katman_2" xmlns="http://www.w3.org/2000/svg" viewBox="0 0 84 25.79"><g id="katman_1"><g><path d="m27.28,6.65l.05,2.1c.39-.64.88-1.16,1.48-1.57.6-.41,1.29-.6,2.09-.6s1.51.21,2.11.65c.6.44,1.06.99,1.38,1.65.41-.69.92-1.25,1.55-1.67.63-.43,1.36-.63,2.2-.63.6,0,1.16.12,1.67.35.51.23.95.55,1.32.94.37.4.66.86.86,1.4.21.53.31,1.1.31,1.71v7.33h-2.35v-6.79c0-.73-.21-1.33-.63-1.81-.42-.48-.98-.73-1.68-.73-.39,0-.74.1-1.08.29-.34.2-.63.45-.88.77-.25.32-.45.68-.59,1.09-.15.41-.22.83-.22,1.25v5.9h-2.34v-6.79c0-.73-.21-1.33-.63-1.81-.42-.48-.98-.73-1.68-.73-.41,0-.77.1-1.1.29-.34.2-.63.45-.88.77-.25.32-.45.68-.59,1.08-.15.41-.22.83-.22,1.25v5.9h-2.43V6.65h2.26Z" style="fill:#432d7f;"/><path d="m51.33,18.31v-1.65c-.42.53-.91.96-1.48,1.28-.57.32-1.19.48-1.86.48-.6,0-1.17-.12-1.7-.35-.53-.23-.99-.56-1.38-.97-.4-.42-.71-.89-.93-1.44-.22-.54-.34-1.13-.34-1.75v-7.26h2.37v6.76c0,.77.24,1.43.73,1.97.48.53,1.1.81,1.84.83.41,0,.77-.08,1.1-.25.34-.16.62-.39.86-.68.24-.28.43-.62.58-1.01.14-.39.22-.8.22-1.23v-6.39h2.34v11.65h-2.34Z" style="fill:#432d7f;"/><path d="m61.41,6.56c.69,0,1.31.13,1.88.39.57.26,1.05.61,1.46,1.06.41.44.72.97.94,1.57.22.6.34,1.24.34,1.93v6.79h-2.36v-5.96c0-.44-.04-.87-.14-1.27-.1-.4-.24-.75-.44-1.06-.2-.31-.46-.56-.78-.74-.32-.18-.72-.28-1.18-.28s-.87.09-1.27.26c-.4.17-.73.41-1.03.7-.29.29-.53.64-.69,1.05-.16.41-.25.84-.25,1.28v6.01h-2.42V6.65h2.26l.05,1.61c.43-.52.96-.93,1.56-1.25.6-.31,1.29-.46,2.06-.46Z" style="fill:#432d7f;"/><path d="m70.71,6.65h1.99v2.26h-1.99v9.4h-2.34v-9.4h-1.96v-2.26h1.96v-3.28h2.34v3.28Z" style="fill:#432d7f;"/><path d="m81.54,11.76c-.15-.81-.54-1.48-1.14-1.99-.61-.52-1.32-.77-2.12-.77-.41,0-.79.07-1.14.2-.36.14-.69.33-.98.57-.29.24-.54.53-.74.88-.2.35-.35.72-.43,1.11h6.56Zm.03,5.57c-.45.35-.98.61-1.56.8-.59.2-1.17.28-1.75.28-.79,0-1.53-.15-2.23-.46-.7-.31-1.29-.73-1.81-1.27-.51-.53-.92-1.16-1.22-1.88-.3-.72-.45-1.48-.45-2.29s.15-1.58.45-2.3c.3-.73.71-1.35,1.22-1.89.51-.53,1.11-.96,1.81-1.27.7-.31,1.44-.46,2.25-.46s1.53.15,2.21.46c.69.31,1.29.74,1.82,1.28.53.54.94,1.17,1.24,1.89.3.72.45,1.48.45,2.29,0,.36-.03.74-.08,1.14h-8.72c.16.74.53,1.34,1.08,1.8.55.45,1.21.68,1.96.68.34,0,.68-.05,1.03-.15.35-.11.66-.28.93-.52l1.36,1.87Z" style="fill:#432d7f;"/><path d="m4.1,15.39c-1.08,0-1.94.45-2.66,1.24-1.8,1.96-1.92,5.5-.27,7.61,1.64,2.1,4.21,2.06,5.79-.08,1.41-1.9,1.47-5.03.12-6.98-.73-1.06-1.67-1.75-2.99-1.79Z" style="fill:#432d7f; fill-rule:evenodd;"/><path d="m19.39,14.61c-.54,0-.98.23-1.33.62-.9.98-.96,2.76-.13,3.81.82,1.05,2.11,1.03,2.9-.04.7-.95.73-2.52.06-3.49-.37-.52-.85-.87-1.5-.89Z" style="fill:#432d7f; fill-rule:evenodd;"/><path d="m16.51,9.72s.16-1.22.26-1.82c.03-.18.03-.36.07-.54.15-.84.41-1.65,1.32-1.89,1-.27,1.67.1,2.32.9.79.98,1.02,2.14.79,3.37-.25,1.35-.66,1.87-2.06,1.94-1.05.04-1.91.53-2.62,1.32-.56.61-.97,1.37-1.22,2.2,0,0-.97,2.7-1.58,5.23-.08.33-.22.51-.49.51s-.44-.2-.49-.51c-.44-3.34-1.18-5.03-1.18-5.03v-.02c-.3-.73-.67-1.41-1.1-2.05-1.29-1.89-2.92-3.22-4.95-3.63-.83-.2-1.76-.44-2.64-.78C.42,7.92-.74,4.49.51,2.05,1.34.43,3.35-.4,5.19.19c4.53,1.38,4.53,6.12,5.03,8.57.28,1.41,1.29,2.69,2.57,3.2,1.82.73,3.48-.28,3.72-2.24Z" style="fill:#eb5a48; fill-rule:evenodd;"/></g></g></svg>