<?xml version="1.0" encoding="UTF-8"?><svg id="katman_2" xmlns="http://www.w3.org/2000/svg" viewBox="0 0 151 151"><g id="katman_1"><g><path d="m119.9,1h23.1c3.86,0,7,3.14,7,7v23.1h1V8c0-4.41-3.59-8-8-8h-23.1v1Z" style="fill:#432774;"/><path d="m1,31.1V8c0-3.86,3.14-7,7-7h23.1V0H8C3.59,0,0,3.59,0,8v23.1h1Z" style="fill:#432774;"/><path d="m150,119.9v23.1c0,3.86-3.14,7-7,7h-23.1v1h23.1c4.41,0,8-3.59,8-8v-23.1h-1Z" style="fill:#432774;"/><path d="m31.1,150H8c-3.86,0-7-3.14-7-7v-23.1H0v23.1c0,4.41,3.59,8,8,8h23.1v-1Z" style="fill:#432774;"/></g></g></svg>