<?xml version="1.0" encoding="UTF-8"?><svg id="katman_2" xmlns="http://www.w3.org/2000/svg" viewBox="0 0 24 24"><g id="katman_1"><g><circle cx="12" cy="12" r="12" style="fill:#3fb6e6;"/><path d="m11.41,6v11.38h-1.5V6h1.5Zm3.05,5.35h1.49v.69c0,.85-.11,1.61-.33,2.29-.21.68-.52,1.26-.92,1.73-.4.47-.88.84-1.45,1.09s-1.19.38-1.88.38c-.24,0-.49-.02-.73-.05-.24-.03-.48-.06-.73-.1l1.47-1.13c.5,0,.94-.09,1.32-.27.39-.18.71-.45.97-.8.26-.35.46-.79.59-1.31.14-.53.2-1.13.2-1.82v-.69Zm-1.09-4.25v1.39l-5.37,2.45v-1.39l5.37-2.45Zm0,2.59v1.38l-5.37,2.45v-1.38l5.37-2.45Z" style="fill:#fff;"/></g></g></svg>